<svg xmlns="http://www.w3.org/2000/svg" version="1.0" viewBox="177.97569274902344 223.38705444335938 992.9327392578125 1458.5567626953125" width="5.1715246836344395in" height="7.596649805704752in"><style id="svg-style">.outline { stroke: black; fill: none; stroke-width: 1px; }
.outline { stroke: black; fill: none; stroke-width: 1px; }
</style><path id="path-1307" class="outline" d="M1099.2291868154293 229.82918681542924 C1101.2888846838898 231.88888468388998 1103.477720041908 230.71197767323025 1103.8038381065153 227.3694590172282 C1104.0173557452456 225.18102860414652 1103.6080965416133 224.06359014081136 1102.4270899058556 223.61039537225514 C1098.995133412788 222.29343009748078 1096.5154799086758 227.11547990867584 1099.2291868154293 229.82918681542924 Z"/><path id="path-1308" class="outline" d="M367.1749847381069 237.71084371081366 C368.8183124613963 239.6909324831819 371.44628030121606 238.85615985996057 371.82013681964156 236.23531355796723 C372.2494945274485 233.22538727534544 369.18099687854317 232.03198682208023 367.37233804978587 234.5054751564707 C366.36052484212934 235.88921216973608 366.3123628845288 236.67144796347574 367.1749847381069 237.71084371081366 Z"/><path id="path-1310" class="outline" d="M263.9352867851922 1660.6117637792793 C264.24587905333647 1660.9277517275048 266.3 1660.9086524615554 268.5 1660.5693209660585 C270.7 1660.2299894705613 284.58141337708764 1659.5404817284864 299.34758528241696 1659.0370815392248 C315.69856090566793 1658.479653095609 330.55543398577834 1658.4826048401244 337.34758528241696 1659.044631330556 C352.0145025966139 1660.258266849486 369.9670265438811 1660.2415892190177 394.5 1658.991537578623 C483.4696017071785 1654.458185893461 532.740253220677 1653.8168231725679 694 1655.0929056546092 C745.975 1655.5041948221092 855.325 1655.8921796509333 937 1655.9550941631073 C1063.3691202008813 1656.0524366981706 1086.8412654423707 1655.8501803490853 1094.5 1654.5979376419118 C1108.5477728557573 1652.3010541322033 1113.0432160465123 1651.1013031614796 1118.2785378230406 1648.251883954868 C1123.7946077330441 1645.2496624644825 1125.651867585236 1642.7858914756819 1123.6508418957692 1641.1251876545184 C1122.6908121430802 1640.3284337262137 1121.4116540461962 1640.5155542869604 1118.8337299102836 1641.8298548087191 C1116.9032406206882 1642.814074260804 1111.9884057724037 1644.698507392066 1107.9118746918734 1646.017483989301 C1101.7438921066014 1648.013157399221 1098.5700214425372 1648.4008582781787 1089 1648.3276444264584 C1082.675 1648.27925606966 1070.3 1647.797183800295 1061.5 1647.2563727167583 C1046.119407553783 1646.3111460274088 1045.4135912569157 1646.351314793938 1043.2679641119857 1648.2939775385641 C1041.037933967698 1650.3130592280077 1040.8698927283556 1650.3141038515469 856.2679641119857 1649.4564576690375 C599.9567127167049 1648.265655558025 504.28135055442624 1648.3427208762166 465.5 1649.7712164200143 C447.35 1650.4397644140697 419.9 1651.4630858861913 404.5 1652.04526413584 C389.1 1652.6274423854886 370.425 1653.0862409883955 363 1653.0648165867442 C294.49813815673383 1652.8671584854665 254.0866224397193 1652.3655942975738 252 1651.6871492592932 C250.625 1651.2400813519043 248.6 1650.4909916641693 247.5 1650.0225055087708 C246.4 1649.5540193533723 243.7 1648.707114624931 241.5 1648.1404950011233 C225.25555108539666 1643.9566661225072 219.41986797913975 1641.371215344681 213.16247424487915 1635.585790321103 C208.44368740313698 1631.2229215878042 200.62944761117586 1621.2225828045068 198.2488852735448 1616.5 C194.32513080187871 1608.7160175753108 193.15522067020257 1598.994479960175 192.5326361106452 1569 C192.20727581154952 1553.325 191.50390903185698 1531.95 190.96959882243954 1521.5 C190.4352886130221 1511.05 189.55131249728288 1486.975 189.00520745413016 1468 C188.45910241097744 1449.025 187.5860879193165 1422.7 187.06517525043915 1409.5 C186.54426258156184 1396.3 185.57142798759378 1354.751819264507 184.90332059717682 1317.1707094766825 C183.9590326106653 1264.0544126037123 183.94961266698732 1222.1976512593326 184.86101083993378 1129.1707094766825 C186.53165077740823 958.6475190463445 186.9159654119634 929.6596169594848 188.00536306889475 892 C188.53835180987303 873.575 189.23111531302678 846.35 189.54483752034753 831.5 C190.5047575121725 786.0623116694899 191.08083698402157 668.1241450408048 190.39634366755894 657.1749653779099 C189.8058390795891 647.729232790105 189.52728146175528 646.642616146275 187.12543454164168 644.4155789202134 L184.5 641.981227084607 L184.5233721373587 574.7406135423034 C184.55732785497494 477.05150403793743 185.96665351586637 340.9823397754165 186.98057312248216 337.5 C188.34536023934047 332.8125943802637 192.32956485379322 323.9872440990448 195.55812361763907 318.5 C197.1761556279376 315.75 202.47956189237522 309.514779113578 207.34347087194493 304.6439535857289 C215.0712758725683 296.90515953563835 217.4682591229295 295.18090821489415 226.34347087194493 290.97645086571515 C235.92772817363732 286.43609710424084 237.20431519856265 286.10255629318186 249 285.05685670283765 C255.875 284.4473808814135 270.05 284.1563036044298 280.5 284.41001830954053 C290.95 284.66373301465126 308.05 285.0796678850738 318.5 285.33431802159055 C328.95 285.5889681581073 355.95 286.31008785202766 378.5 286.9368062303024 C424.34179090289666 288.2108591283899 457.60357116866464 288.20783673515774 478.5 286.92771954520003 C486.2 286.45601682306346 500.15 285.7892873118414 509.5 285.4460984091511 C518.85 285.1029095064608 531.9 284.6059305165177 538.5 284.341700653722 C545.1 284.0774707909263 596.85 283.73209903267065 653.5 283.57420785759825 C710.15 283.41631668252586 763.25 283.0062476973758 771.5 282.6629434461537 C779.75 282.3196391949316 801.8 281.560242363683 820.5 280.97539493226805 C839.2 280.3905475008531 864.85 279.47309125312864 877.5 278.9366032706582 C890.15 278.4001152881878 930.65 277.99354808318986 967.5 278.033120592885 C1006.9981522288452 278.07553690257333 1039.3088092680746 277.67261102009536 1046.2152208695927 277.0515125805557 C1053.2255619345613 276.42106769147097 1060.163403872436 275.16249634934684 1063.4905507474446 273.917651171677 C1067.7148974909437 272.3371205038096 1071.5070375890334 271.8192730835225 1079.2753298778518 271.7621118347729 C1092.027996580013 271.6682741769607 1105.0955339830496 274.4959727369182 1113.4935238879455 279.1666238665657 C1121.2274276748499 283.46793487883923 1132.9908881270537 295.11872636062185 1136.611882441392 302.06355763887495 C1140.2336180690465 309.00981070779073 1143.8425764829133 322.86758018493015 1143.9311955322014 330.1684405196878 C1143.9956843418129 335.4813365156178 1144.2087064930008 335.96586874572307 1147.3274042000294 337.89332992930326 C1151.4137513384785 340.4188313506957 1155.848653622097 348.2950814764503 1156.4775511232751 354.14370958729353 C1156.735186427943 356.5396693142821 1157.1746347566266 365.025 1157.454102964794 373 C1157.939819912041 386.8605842850491 1157.8461390371112 387.808683448597 1155.3297061839207 394.5 C1153.8818197462733 398.35 1151.862177851044 402.69887760643604 1150.8416130834112 404.16417245874675 C1149.8210483157786 405.62946731105745 1146.851681603434 407.8397778054486 1144.2430203893123 409.0759735573937 C1141.6343591751906 410.3121693093388 1139.3265193688294 411.4617723341682 1139.1144874862878 411.63064694590344 C1138.2334582101566 412.33235027066047 1140.4170782106078 581.7196581804806 1142.0262336076705 637.5 C1142.597425461692 657.3 1143.2662406971535 684.525 1143.5124896864738 698 C1143.7587386757941 711.475 1144.4144144257923 741.175 1144.9695469086919 764 C1147.9315454882721 885.7864557768112 1148.3282691980523 924.2670641028549 1148.217103899526 1079 C1148.1521036439185 1169.475 1148.4573430613884 1254.975 1148.8954137161254 1269 C1149.3334843708624 1283.025 1149.3422228665556 1305.975 1148.9148325954434 1320 C1148.4874423243314 1334.025 1147.8618797370023 1367.325 1147.5246935124896 1394 C1147.1875072879773 1420.675 1146.491263449389 1455.325 1145.9774849822934 1471 C1144.638799131452 1511.8423125059471 1144.3063448986309 1507.5125837895362 1149.020617872623 1510.632342025855 C1154.330078249905 1514.145976648588 1161.4561777337142 1525.0267826460529 1162.8833120608806 1531.7992211028768 C1164.4147095735716 1539.0664384980487 1164.3239544940277 1565.9341340922488 1162.75 1571.2657489134558 C1161.9485309838192 1573.980645755532 1159.7590634534472 1577.2166918374978 1156.6482266293824 1580.2842063854773 C1152.0879403487404 1584.780985001638 1151.8244471444525 1585.3216911742854 1152.262408677685 1589.2842063854773 C1152.549326351646 1591.8801321943893 1151.807746035514 1597.1432580728815 1150.3324057783275 1602.98177626996 C1149.0146287032749 1608.1967532184378 1147.5007467815385 1612.899253218449 1146.9682237300249 1613.4317762699852 C1146.4357006785115 1613.9642993215211 1146.0000000000002 1615.0346935168125 1146 1615.8104300372993 C1145.9999999999998 1616.586166557786 1142.6249999999998 1620.8085061165261 1138.4999999999998 1625.1934068344995 C1131.464867308709 1632.6717967470033 1129.668318856335 1636.0589418022878 1131.9793332734048 1637.487227260528 C1132.5179665737774 1637.8201209476306 1133.9804665737774 1637.5520497728946 1135.2293332734048 1636.8915135388925 C1141.4483766155897 1633.6022085477591 1153.0000000000005 1620.7963353087084 1153.0000000000005 1617.191346912848 C1153.0000000000002 1616.2061061108093 1153.4171877071592 1614.972500000039 1153.927083793687 1614.4500000000253 C1154.4369798802145 1613.9275000000114 1155.7904692881066 1609.8113575024674 1156.934838033447 1605.30301667215 C1158.0792067787875 1600.7946758418325 1160.3272538261433 1594.2696758418324 1161.9304981386822 1590.80301667215 C1165.328004139219 1583.4566657518956 1168.2617064227475 1575.4546402066883 1170.0201847207097 1568.7374243161835 C1170.8816005235117 1565.4468998180316 1171.1043842417807 1559.2651558064183 1170.7409642219327 1548.7374243161835 C1170.3360806898786 1537.0085572271762 1169.7315529480604 1532.0366926318177 1168.115541543448 1527.1449560801561 C1165.8222797569038 1520.2031532737221 1160.9779417157963 1512.943840217358 1155.3287928923396 1507.9838218562907 L1151.7089248721718 1504.8055356390605 L1152.4932783582308 1486.1527678195303 C1152.924672775563 1475.8937455187886 1153.4247741139118 1450.85 1153.6046146656722 1430.5 C1153.7844552174329 1410.15 1154.35453605347 1377.975 1154.8714609679769 1359 C1155.3883858824838 1340.025 1155.5757219824848 1299.3 1155.2877634124236 1268.5 C1154.9998048423624 1237.7 1154.7978239839867 1193.15 1154.8389170604778 1169.5 C1155.145509103247 993.0493073125017 1154.9207706673021 905.2109840223947 1154.111294864464 885.1111129018368 C1153.5932315432494 872.247224997847 1153.402738534383 861.1140551393238 1153.6879770669825 860.370735438452 C1153.973215599582 859.6274157375802 1153.71988865689 841.5774149317537 1153.125028305444 820.2596225366153 C1152.530167953998 798.9418301414769 1151.5776186994492 760.575 1151.0082521842244 735 C1150.4388856689995 709.425 1149.514466394228 670.05 1148.9539871291768 647.5 C1147.819718294711 601.8644808789549 1147.4259848344927 577.0593313800471 1146.3942433395484 486.2365215405862 L1145.6869340803469 423.97304308117236 L1148.641372091268 420.2365215405862 C1151.718338811758 416.3450361249919 1155.3295341678554 410.3786979490776 1160.1203752554388 401.271162969167 C1162.764891721254 396.24385653652797 1163.6673102408781 391.77992197864876 1165.3302129970286 375.5 C1165.9218009277622 369.7083171609223 1164.163751428529 353.5633238676704 1162.3518158448023 348.14798171592736 C1161.4964656609752 345.5915917721673 1158.609475131887 339.675 1155.936281335717 335 C1153.0781387579407 330.0015533590379 1150.8174262894524 324.6462364569799 1150.4484152340767 322 C1148.9803727935857 311.47243620528957 1144.150712676353 299.6029527011092 1137.8346006918107 291 C1135.2099087832028 287.425 1130.2358860285694 282.42388992426305 1126.7812167926254 279.88642205391784 C1119.4066662034375 274.46978621984016 1108.7706667184345 269.6044364440463 1099.855168987184 267.56932474322855 C1096.3598260442327 266.7714541659486 1088.1 266.02934954165335 1081.5 265.92020335590564 C1072.9906726685347 265.77948204961655 1067.4637742766881 266.21909942144856 1062.5 267.4314904237357 C1058.65 268.3718444967899 1053.475 269.6086289492486 1051 270.17990031808836 C1048.1557370561616 270.836403746479 1018.1684992612351 271.3206848721841 969.5 271.4960906259414 C927.15 271.6487239264208 882.6 272.26902654364824 870.5 272.87454088644677 C858.4 273.4800552292453 833.2 274.4222488747341 814.5 274.9683045430886 C795.8 275.5143602114431 770.15 276.2776308081493 757.5 276.66446142465793 C744.85 277.05129204116656 697.6 277.3003970689002 652.5 277.21802815295496 C607.4 277.1356592370097 559.925 277.4927598241662 547 278.0115850133029 C534.075 278.5304102024396 516.975 279.187608910406 509 279.4720265865617 C501.025 279.75644426271737 482.04331465941635 280.46722658364007 466.81847702092523 281.05154285527885 C439.47973842288866 282.1007803045194 432.3876159104876 281.98586043588506 342 279.02899982146846 C290.41181361428715 277.34138946736687 255.60896376017635 276.89133706067986 248.5 277.8199063075283 C231.66648730071046 280.0186912129398 218.5191563542262 285.46598922645035 207.40623447469306 294.84617485015826 C203.50466343577423 298.13940960568584 198.04404216760605 303.9087526643888 195.2715205454304 307.6669372028315 C188.8693456218979 316.3451580028355 182.54601412765328 328.9113678507088 181.0142902044882 336 C180.1810575399766 339.8560994995048 179.70759145175788 363.0201520064826 179.43021410960378 413.5 C179.21261950134124 453.1 178.83179902961078 490 178.58394639464717 495.5 C178.3360937596836 501 178.07300981102898 537.675 177.99931539763696 577 C177.88922236930046 635.748121330457 178.1337079497209 650.430398404376 179.37015019406687 659.323776597133 C180.27134544893744 665.8058183291521 181.72392338194547 671.7762966422855 182.99137063365072 674.2079474290817 C185.1055677612283 678.2641234173129 185.10722306120832 678.3458582665572 184.58472710559744 752.8841708319487 C184.04558488221522 829.797209358116 183.70372640899586 850.6116992630427 181.9960349512035 910.5 C181.447128734831 929.75 180.7836975835201 969.8 180.52174350384598 999.5 C180.25978942417186 1029.2 179.70683071250482 1083.65 179.29294636680814 1120.5 C177.95264321088638 1239.8332673952193 179.14976698501258 1379.6734476754573 181.9852728941924 1435 C182.50674534121322 1445.175 183.1891599379958 1464.525 183.5017497759315 1478 C183.8143396138672 1491.475 184.51032560389444 1511.95 185.04838530932545 1523.5 C185.58644501475646 1535.05 186.46008583350078 1557.8941852310481 186.98980935097953 1574.2648560689959 C187.68429011656315 1595.7272145286836 188.4028476862347 1605.768919862056 189.56587304229362 1610.2648560689959 C190.45298455503763 1613.694185231048 191.5299270769763 1616.95 191.9590786466018 1617.5 C192.3882302162273 1618.05 193.30218712127459 1620.2459467212548 193.99009399115135 1622.3798816027884 C194.77097035369286 1624.8022143067649 198.67052960341852 1630.0340551294464 204.37041687728183 1636.3066342305615 C212.291399876012 1645.0234719557484 214.4741683071832 1646.8041047769914 220.85872052254982 1649.7572661061708 C224.9060168099522 1651.6293345740144 229.85601680995222 1653.413277141588 231.85872052254982 1653.7215829230008 C233.8614242351474 1654.029888704414 236.7151530329021 1654.893657639135 238.2003400731158 1655.641069444603 C239.6855271133295 1656.3884812500714 242.3855271133295 1657.0000771202092 244.2003400731158 1657.0001713782426 C248.01780759484467 1657.0003696504557 263.09822489186786 1659.760160254859 263.9352867851922 1660.6117637792793 Z"/><path id="path-1311" class="outline" d="M1113.6666666666665 1679.3333333333335 C1114.6409747642788 1680.3076414309455 1115.3128733240735 1680.169583379206 1117.6858345555306 1678.5074966348284 C1119.1016913812791 1677.515791911289 1119.6391635872699 1676.3361633542968 1119.287634180053 1674.9919128360666 C1118.9966581002525 1673.879218597592 1118.3588778890494 1672.7217987332433 1117.870344821824 1672.41986869307 C1117.3818117545986 1672.1179386528963 1116.086129733096 1672.15527581409 1114.991051440707 1672.5028401623888 C1113.6351925779022 1672.9331730484587 1113 1674.0171775332205 1113 1675.9007210038903 C1113 1677.4219911184175 1113.3 1678.9666666666667 1113.6666666666665 1679.3333333333335 Z"/><path id="path-1312" class="outline" d="M375.66666666666663 1681.3333333333335 C376.5340471383558 1682.2007138050224 377.2057969674004 1682.1558567904503 378.83749212889256 1681.1215971217043 C379.5731127997834 1680.6553195906104 380.0231127997834 1679.1997103391432 379.83749212889256 1677.8869098962214 C379.61383346878455 1676.3050861335778 378.7410925090143 1675.392217950204 377.25 1675.1804490469242 C375.3600071185435 1674.912027257335 375 1675.3253687638107 375 1677.7637823802575 C375 1679.3603687377827 375.3 1680.9666666666667 375.66666666666663 1681.3333333333335 Z"/></svg>