<?xml version="1.0" encoding="UTF-8" standalone="no"?>
<svg
   version="1.0"
   viewBox="310.04825 149.1339 849.81708 660.79015"
   width="4.4261308in"
   height="3.4416153in"
   id="svg1"
   sodipodi:docname="Audio-and-Storage-HAT-NVDAC_Adapter_for_RPi5.svg"
   inkscape:version="1.3.2 (091e20ef0f, 2023-11-25, custom)"
   xmlns:inkscape="http://www.inkscape.org/namespaces/inkscape"
   xmlns:sodipodi="http://sodipodi.sourceforge.net/DTD/sodipodi-0.dtd"
   xmlns="http://www.w3.org/2000/svg"
   xmlns:svg="http://www.w3.org/2000/svg">
  <defs
     id="defs1" />
  <sodipodi:namedview
     id="namedview1"
     pagecolor="#ffffff"
     bordercolor="#000000"
     borderopacity="0.25"
     inkscape:showpageshadow="2"
     inkscape:pageopacity="0.0"
     inkscape:pagecheckerboard="0"
     inkscape:deskcolor="#d1d1d1"
     inkscape:document-units="in"
     inkscape:zoom="0.92806604"
     inkscape:cx="211.73062"
     inkscape:cy="401.91105"
     inkscape:window-width="1920"
     inkscape:window-height="984"
     inkscape:window-x="0"
     inkscape:window-y="30"
     inkscape:window-maximized="1"
     inkscape:current-layer="svg1" />
  <style
     id="svg-style">.outline { stroke: black; fill: none; stroke-width: 1px; }
.outline { stroke: black; fill: none; stroke-width: 1px; }
</style>
  <path
     id="path-1440"
     class="outline"
     d="m 1116.1632,808.75738 c 0.3666,0.36667 1.1062,0.66667 1.6435,0.66667 0.5373,0 4.6248,-3.49823 9.0834,-7.77384 5.3093,-5.09149 9.6591,-8.34152 12.6064,-9.41908 2.475,-0.90489 8.0134,-1.94748 12.3077,-2.31689 7.2592,-0.62446 7.786,-0.82331 7.5,-2.83091 -0.2509,-1.76073 -1.0828,-2.21558 -4.5069,-2.4643 l -4.1993,-0.30501 -0.3552,-14.19499 c -0.1954,-7.80724 -0.9105,-19.36998 -1.5892,-25.69498 -0.6787,-6.325 -1.5772,-14.875 -1.9966,-19 -0.4194,-4.125 -0.2419,-27.3 0.3946,-51.5 1.4008,-53.26389 1.0024,-174.99955 -1.1535,-352.5 -0.1771,-14.575 -0.3769,-38.65 -0.4441,-53.5 -0.1008,-22.27292 0.1747,-28.22554 1.5738,-34 1.3794,-5.69363 1.6717,-11.54375 1.5663,-31.34702 -0.071,-13.39086 0.3343,-28.08119 0.9014,-32.64518 1.1751,-9.45604 0.2829,-13.5078 -2.9742,-13.5078 -1.7631,0 -2.0248,0.64629 -2.0248,5 0,3.39 -0.4112,5 -1.2771,5 -1.3969,0 -5.7148,-3.85707 -9.8827,-8.82783 -1.6105,-1.92083 -3.5937,-3.17217 -5.0275,-3.17217 -1.3022,0 -3.2722,-0.63354 -4.3777,-1.40787 -1.1055,-0.77433 -4.8377,-1.96419 -8.2937,-2.64412 -4.9957,-0.98283 -16.6721,-0.97778 -56.9625,0.0247 -27.8733,0.69349 -53.3788,1.39296 -56.6788,1.55438 -3.29999,0.16142 -13.64999,0.56678 -22.99999,0.90082 -9.35,0.33403 -35.225,1.26424 -57.5,2.06712 -116.56369,4.20143 -176.53269,5.44246 -409,8.46409 -184.15896,2.39371 -179.66616,2.25181 -192.02354,6.0651 -4.11205,1.26892 -8.03896,2.73768 -8.72646,3.26392 -1.99789,1.52925 -1.45308,3.66225 1.25,4.89385 l 2.5,1.13908 0.0239,25.58949 c 0.0131,14.07421 0.46693,27.38948 1.00846,29.58948 1.1957,4.85756 2.64402,74.03136 3.40234,162.5 0.30879,36.025 0.89982,98.35 1.31339,138.5 0.98628,95.74946 0.76677,189.55837 -0.48378,206.74778 -1.15135,15.82573 0.002,39.70615 2.26769,46.94012 0.80742,2.57834 1.46804,5.38047 1.46804,6.22694 0,2.22878 4.23811,4.6682 10.78849,6.20977 6.99617,1.64648 32.15579,1.76612 79.61598,0.37858 18.75254,-0.54825 57.94553,-1.67354 87.09553,-2.50064 29.15,-0.82711 69.875,-1.98722 90.5,-2.57802 45.62694,-1.307 530.99995,-2.02364 530.99995,-0.78401 0,0.47271 -1.8,2.65948 -4,4.85948 -3.7194,3.71941 -4.9274,6.7393 -3.3333,8.33333 z" />
  <path
     id="path-1441"
     class="outline"
     d="m 408.49651,796.39187 c -42.76072,1.19202 -65.9351,1.1943 -71,0.007 -4.54171,-1.06467 -8.6331,-5.99216 -9.39732,-11.31771 -0.61231,-4.267 -1.00588,-21.07023 -0.92887,-39.65709 0.0239,-5.775 0.55553,-12.87726 1.18133,-15.7828 0.81269,-3.77325 0.98933,-22.20392 0.61816,-64.5 -0.2858,-32.56946 -0.73136,-64.8422 -0.99012,-71.7172 -0.25876,-6.875 -0.91406,-66.05 -1.45623,-131.5 -1.3356,-161.23114 -1.96722,-203.96563 -3.21469,-217.5 -0.58298,-6.325 -1.34173,-14.69945 -1.68611,-18.60989 -0.34438,-3.91044 -0.47485,-16.58442 -0.28992,-28.1644 l 0.33623,-21.05451 2.66377,-1.02901 c 1.46507,-0.56595 5.13877,-1.48581 8.16377,-2.04413 6.91693,-1.27664 71.56574,-2.41972 234,-4.13745 124.72879,-1.319 216.66849,-2.76759 250.5,-3.94685 15.4,-0.5368 43.525,-1.43867 62.5,-2.00416 18.975,-0.56549 53.175,-1.68546 76,-2.48881 70.33859,-2.47565 125.62689,-3.75161 145.49999,-3.35791 16.6487,0.32983 19.5636,0.63474 23.5541,2.46386 3.3014,1.51327 5.4614,3.50154 7.853,7.22846 2.3767,3.70374 4.1788,5.36887 6.4459,5.95603 l 3.147,0.81502 0.3018,25.25576 c 0.2546,21.30756 0.023,26.5347 -1.4829,33.43687 -1.5107,6.92518 -1.779,13.09368 -1.7474,40.18112 0.02,17.6 0.6387,65.75 1.3739,107 1.6235,91.08458 1.0073,293.18284 -0.9756,320 -1.0236,13.84259 -1.0145,19.04303 0.049,28 0.7182,6.05 1.3888,15.05 1.4903,20 0.1015,4.95 0.5403,13.96542 0.9751,20.03427 0.6622,9.2429 0.531,11.5362 -0.8082,14.12605 -1.0215,1.97531 -3.1475,3.74644 -5.8873,4.90471 -4.092,1.72988 -14.8473,1.82695 -234.78839,2.11901 -126.775,0.16834 -252.325,0.76732 -279,1.33105 -26.675,0.56373 -77.075,1.89851 -112,2.96616 -34.925,1.06766 -80.375,2.41161 -101,2.98657 z" />
</svg>
