<?xml version="1.0" encoding="UTF-8" standalone="no"?>
<svg
   version="1.0"
   viewBox="483 1428.0113525390625 275.7689208984375 278.810791015625"
   width="1.4362964630126953in"
   height="1.4521395365397134in"
   id="svg1"
   sodipodi:docname="HDMI_to_micro_HDMI_Adapter.svg"
   inkscape:version="1.3.2 (091e20ef0f, 2023-11-25, custom)"
   xmlns:inkscape="http://www.inkscape.org/namespaces/inkscape"
   xmlns:sodipodi="http://sodipodi.sourceforge.net/DTD/sodipodi-0.dtd"
   xmlns="http://www.w3.org/2000/svg"
   xmlns:svg="http://www.w3.org/2000/svg">
  <defs
     id="defs1" />
  <sodipodi:namedview
     id="namedview1"
     pagecolor="#ffffff"
     bordercolor="#000000"
     borderopacity="0.25"
     inkscape:showpageshadow="2"
     inkscape:pageopacity="0.0"
     inkscape:pagecheckerboard="0"
     inkscape:deskcolor="#d1d1d1"
     inkscape:document-units="in"
     inkscape:zoom="4.6343148"
     inkscape:cx="68.94223"
     inkscape:cy="69.697466"
     inkscape:window-width="1920"
     inkscape:window-height="984"
     inkscape:window-x="0"
     inkscape:window-y="30"
     inkscape:window-maximized="1"
     inkscape:current-layer="svg1" />
  <style
     id="svg-style">.outline { stroke: black; fill: none; stroke-width: 1px; }
.outline { stroke: black; fill: none; stroke-width: 1px; }
</style>
  <path
     id="path-1843"
     class="outline"
     d="M621.8033171085722 1705.261560349868 C631.6707416117517 1707.80293305022 632.7739083553635 1707.5817021676319 637.9059306173101 1702.0323156149766 C640.4326687777896 1699.3000892032137 644.585409136746 1695.5875892032136 647.1342425261021 1693.7823156149766 C651.7053898841278 1690.5446886959928 660.1363798775437 1683.3579599030327 680.5880000422676 1665.2657259188804 C686.3291775216871 1660.1868751742645 692.258041026485 1655.736019299705 693.7632522751517 1655.374935086526 C695.2684635238182 1655.0138508733467 699.0017903163772 1652.4192742098505 702.0595340363938 1649.6092091676455 C710.2427295437951 1642.0888563407077 719.9984063528328 1633.7327779691354 722.7911252533928 1631.851876245735 C724.1370278414728 1630.9454081808892 727.5995712506442 1627.9086681653134 730.4856661626625 1625.1035651000109 C733.7102879613732 1621.9694351535777 736.9923915725642 1619.7515216854872 738.9998341986009 1619.35003316028 C740.8702544676185 1618.9759491064763 742.4594692913473 1617.9589906470544 742.7178854864949 1616.9708055987624 C742.9661161870887 1616.0215699414773 745.146447315108 1613.7634434769243 747.5630657709823 1611.9527467886442 C751.9488989862308 1608.666579020251 754.5935763206444 1603.710410032872 753.4924638423324 1600.840956910668 C753.1834187116182 1600.0355982096296 751.3824391770984 1598.8168593071857 749.4902870989552 1598.1326482385703 C743.4920740884689 1595.9636662729583 734.5633769412932 1588.3735093463715 724.943150457088 1577.2654807068461 C719.8151928973213 1571.3444663180808 713.567683224572 1564.4674256861497 711.0597956287561 1561.9831681914438 C708.5519080329402 1559.498910696738 705.375 1555.463252748433 704 1553.0150394174327 C702.625 1550.5668260864325 698.3294282355923 1545.357054442327 694.4542849679829 1541.4377690971978 C690.5791417003735 1537.5184837520687 685.9364049063128 1532.0176254353528 684.1370920922923 1529.2136395044954 C682.3377792782717 1526.4096535736378 677.85190479584 1521.2725024740566 674.1684821313329 1517.7977481720927 C670.4850594668256 1514.3229938701286 666.2404901848463 1509.379709581173 664.7361059491566 1506.8126719744137 C662.8375800936285 1503.5730825444493 660.2242839313268 1501.0661168213214 656.1932025705116 1498.6173643566985 C651.0933112973804 1495.5193441962067 649.4785072879383 1495.0611606803375 642.9427716283788 1494.857695071541 C638.8492472327704 1494.730258547688 631.8854982362843 1494.9942847422544 627.4677738584097 1495.4444199483553 C620.171640258347 1496.1878449158007 619.0284008535311 1496.0551367651422 614.9927698128561 1493.996311433753 C612.5492419656763 1492.7497165446205 609.2386061766799 1490.328075835563 607.6358013928641 1488.614887635847 C606.0329966090483 1486.9016994361311 600.5151672729671 1480.2752678073232 595.3739584237946 1473.8894840162739 C590.2327495746223 1467.5037002252245 583.9817514131861 1460.3943634501654 581.4828513983807 1458.0909578494761 C576.424624972868 1453.42844754132 569.3808524598716 1450 564.8599146851625 1450 C563.2240636668186 1450 559.8955959242563 1450.5010989013597 557.4633197016908 1451.1135531141326 C555.0310434791254 1451.7260073269058 551.9112090068484 1451.9435469158243 550.5303542077418 1451.596974422841 C549.0465908033204 1451.2245735140698 543.8233148207536 1446.2746801928768 537.7598545592286 1439.4948739155247 C530.7089680098658 1431.610985372278 526.8243549165173 1428.0193231892786 525.3397976331088 1428.0114526068164 C524.1516863313186 1428.0051536730675 521.0016863313186 1429.7615616841144 518.3397976331088 1431.9145815202542 C510.5200000284903 1438.2394813437008 494.6574516810562 1454.1107682961558 491.02686037892835 1459.2425653461075 C489.1814884789363 1461.8509762864667 486.6205200254988 1464.6738501274012 485.3358193712896 1465.515618325962 C483.2967221371159 1466.8516861483586 483 1467.8473256074765 483 1473.3533683436488 L483 1479.6606307275886 L494.6836633193901 1491.2795103814556 C505.8968458901284 1502.4305180119156 506.31966258090426 1503.0030012471443 505.1836633193901 1505.4962480387871 C504.53264849372556 1506.9250699406925 503.99512906909825 1509.310432182745 503.98917570910714 1510.797053021126 C503.98322234911603 1512.2836738595067 503.32649332815066 1515.6483090474323 502.5297778847396 1518.2740201054053 C501.73306244132857 1520.899731163378 501.36841420153877 1523.824731163378 501.71944846298453 1524.7740201054053 C502.3444478700094 1526.4641828360136 506.39557416901636 1531.5141989066344 514.605661834706 1540.8375984323993 C524.2555837442388 1551.7960779296402 536.4744827199227 1567.825790240552 538.2710859362855 1571.883762315001 C540.2040949858755 1576.2498330597552 540.2034158203086 1576.2962436639843 538.1027967241591 1583.383762315001 C536.9427747149845 1587.2976930417503 535.9950909937498 1591.76323097607 535.9968328991935 1593.307179946822 C535.9985748046371 1594.8511289175742 535.4785439223026 1598.185249753562 534.841208716228 1600.7163373601284 L533.6824174324562 1605.3183148266125 L537.7243698450975 1608.9091574133063 C539.9474436720501 1610.884120835988 543.5063997497475 1615.1992802536538 545.6331611288693 1618.4984005636747 C547.7599225079912 1621.797520873696 552.4300289526221 1627.647520873696 556.0111754502714 1631.4984005636747 C559.5923219479206 1635.3492802536537 564.3173219479206 1641.1828734181634 566.5111754502714 1644.4619409292518 C568.7050289526221 1647.7410084403402 573.425 1653.4410044087247 577 1657.1285986367725 C580.575 1660.8161928648206 585.975 1667.0384837369688 589 1670.9559116859907 C598.2958706173536 1682.9942268486066 600.8911742374275 1686.1922707188598 608.6319066210601 1695.1471847783757 C615.56801296427 1703.1712622342043 616.5171313806553 1703.9000938300492 621.8033171085722 1705.261560349868 Z" />
  <path
     id="path-1844"
     class="outline"
     d="M627.5088316682888 1696.9857100605313 C626.6317614839965 1698.4048394292356 622.9791891357144 1698.1804949273928 619.925404214341 1696.519928662603 C616.907993095126 1694.879141495013 596.3432243158692 1671.5086432007397 590.4035975527988 1662.9703497865517 C588.1505762068382 1659.731601278001 583.9997684851104 1655.0071412013874 581.1795803934039 1652.471549616299 C578.3593923016973 1649.9359580312107 573.8290852879292 1644.5379010153886 571.1122314739191 1640.4758673589167 C568.3953776599091 1636.4138337024447 564.567807854963 1631.6814156554606 562.6065207962613 1629.9593828100628 C558.6265824376944 1626.4649506484363 550.193311518672 1615.620695932883 548.9776545281698 1612.4341664717588 C548.5441924339848 1611.297958031226 546.7968947629801 1608.1723567263298 545.0947708148258 1605.4883857942116 C541.8332251578375 1600.3454620097093 541.2333737984573 1596.1535482731724 543.0666124394075 1591.3150996611744 C543.6532492810817 1589.7667948475284 544.9559830305608 1587.6 545.9615763271388 1586.5 C547.4229561807518 1584.90142347364 547.7455050914716 1583.0950178422595 547.5686019840834 1577.5 C547.3431252053359 1570.3687142994074 546.2439997571786 1567.414987129595 541.0550344777284 1559.995809419949 C537.8275713251303 1555.3811856190753 531.1590439426146 1547.3352000467598 522.4104669775138 1537.5 C517.1588752644689 1531.5961306887116 515.1434089880265 1528.530825352603 514.7183272181129 1525.8010907569212 C514.4015248485138 1523.766690673228 513.3819744743472 1520.4998661272782 512.452659719965 1518.541480654811 L510.7629965301792 1514.9807797957797 L514.9369008597475 1510.4526282675215 C517.7762160441944 1507.3723350033515 518.9273623169563 1505.3464994283058 518.53709079791 1504.1168627560264 C518.2215478826367 1503.1226750652459 512.5716167150406 1496.8173073604612 505.981688203252 1490.104934523171 C494.0578767352072 1477.9595723888333 494 1477.8776118663748 494 1473.1374013415425 C494 1469.1796468791565 494.4936214226701 1467.9012630728632 496.91909450308134 1465.5775123853593 C498.52459647977605 1464.0393438720644 500.09005809703757 1461.7773159708313 500.39789809699573 1460.5507837159523 C500.70573809695395 1459.3242514610733 504.57293273037766 1455.0298134034729 508.9916639490484 1451.0075880323952 C513.4103951677191 1446.9853626613176 517.9566353165982 1442.1881995204062 519.0944198354463 1440.347225497036 C520.2322043542944 1438.5062514736662 521.8489524212853 1437 522.6871933176483 1437 C524.1737386564845 1437 539.3365400870538 1451.9327557301756 545.6735538957347 1459.6376180688012 C548.8117345817108 1463.453177085898 548.8841851752678 1463.4804519362726 552.1735538957347 1462.0846170336208 C554.0030992530806 1461.3082543078863 557.075 1460.7017043804196 559 1460.7367283059173 C573.1967980429181 1460.9950283562864 573.1437868330302 1460.9852098135395 575.8632977002962 1463.8600867365972 C577.3134839651333 1465.3931223560162 580.2215209965353 1468.8642537754986 582.325602214523 1471.573712113225 C584.4296834325106 1474.2831704509513 590.9546834325106 1481.8591116467783 596.825602214523 1488.4091369928406 C605.3544831239984 1497.9245788180235 608.60548089505 1500.8318272726042 613 1502.8733096183398 C618.1049867475849 1505.244841080945 619.6729042076437 1505.4444266078408 634.8310296619173 1505.6522553656414 C653.3558262901298 1505.9062435967958 654.0742728419563 1506.1438477013335 659.3184875333435 1513.750729058855 C661.0683193900046 1516.2889095324906 663.337523861679 1519.0708420516446 664.3611641370642 1519.9328013236418 C670.2039319189553 1524.8527209329309 678.559682769007 1534.1808223553298 681.1172056852457 1538.6387270751738 C682.7386685011967 1541.4650269665194 685.8070430093775 1544.9300719682265 687.9358157034253 1546.3388270789674 C691.9668792406912 1549.0064587033876 699.1889628574817 1557.9149149439309 702.3106532395362 1564.0702212236774 C703.3065125212812 1566.0338428966998 705.4521735856606 1568.4266049889227 707.0787889381572 1569.3874703175056 C708.7054042906537 1570.3483356460886 711.910129256819 1573.691736095434 714.20039997408 1576.8172490938282 C716.490670691341 1579.9427620922227 720.5704328727613 1584.975 723.2665381550139 1588 C729.793004361559 1595.3226221560246 734.204353259755 1604.0421430463023 733.8055096634312 1608.8314473306032 C733.5383215546634 1612.039835695941 733.0609780724585 1612.6411401670612 730 1613.62520708813 C728.075 1614.2440709866016 725.15 1616.002551295124 723.5 1617.5329411070688 C717.3383092258811 1623.2479646131687 686.9657415175358 1649.5797463506121 676.5775456889355 1658.2128018738167 C672.134895560021 1661.904842904416 666.025 1667.1031207224873 663 1669.76453035842 C651.3240899025315 1680.0370525540175 636.3177994271007 1691.8156409624323 632.3178486626639 1693.8472597097457 C630.0176654271289 1695.0155479359698 627.8536077796603 1696.4278505938235 627.5088316682888 1696.9857100605313 Z" />
</svg>
