<?xml version="1.0" encoding="UTF-8" standalone="no"?>
<svg
   version="1.0"
   viewBox="533.5072021484375 362.1737060546875 271.49542236328125 1132.7847900390625"
   width="1.4140386581420898in"
   height="5.89992078145345in"
   id="svg1"
   sodipodi:docname="HDMI_to_HDMI_cable.svg"
   inkscape:version="1.3.2 (091e20ef0f, 2023-11-25, custom)"
   xmlns:inkscape="http://www.inkscape.org/namespaces/inkscape"
   xmlns:sodipodi="http://sodipodi.sourceforge.net/DTD/sodipodi-0.dtd"
   xmlns="http://www.w3.org/2000/svg"
   xmlns:svg="http://www.w3.org/2000/svg">
  <defs
     id="defs1" />
  <sodipodi:namedview
     id="namedview1"
     pagecolor="#ffffff"
     bordercolor="#000000"
     borderopacity="0.25"
     inkscape:showpageshadow="2"
     inkscape:pageopacity="0.0"
     inkscape:pagecheckerboard="0"
     inkscape:deskcolor="#d1d1d1"
     inkscape:document-units="in"
     inkscape:zoom="1.3877305"
     inkscape:cx="68.096797"
     inkscape:cy="283.19621"
     inkscape:window-width="1920"
     inkscape:window-height="984"
     inkscape:window-x="0"
     inkscape:window-y="30"
     inkscape:window-maximized="1"
     inkscape:current-layer="svg1" />
  <style
     id="svg-style">.outline { stroke: black; fill: none; stroke-width: 1px; }
.outline { stroke: black; fill: none; stroke-width: 1px; }
</style>
  <path
     id="path-1498"
     class="outline"
     d="M665 1494.708597019282 C665.8013740829927 1495.5672870613562 688.8403564994285 1494.0504770097791 696.5 1492.6347416830936 C704.0345716056931 1491.2421234505573 711.1152833505836 1488.0181690791812 720.264720049018 1481.8143078274366 C723.4353160759779 1479.6644554939087 727.7660972772853 1477.1392511872016 729.8886782741455 1476.2027427014204 C732.1761293063333 1475.1934915559414 735.8290547389831 1471.980267470728 738.8577739552502 1468.3132539077212 C745.1148507936537 1460.7375151241567 753.9465297834023 1445.1872108481875 758.0758985317118 1434.475103186398 C762.2219499375226 1423.7197185895288 766.6225837906135 1408.0320087871232 767.8869305456906 1399.5 C768.4574567990618 1395.65 769.4625787733385 1384.175 770.1205349329721 1374 C771.0520458752401 1359.594596693413 771.0495168436228 1351.8480624085776 770.1091083900367 1339 C768.8864446069759 1322.295704616895 767.7506176232403 1311.2178497604273 765.9565902863679 1298.5 C763.8688865423726 1283.7002798314634 763.7565740067322 1277.5178521865164 765.3752650615705 1266.5 C766.2641026240999 1260.45 767.3993369429596 1247.4 767.8980079923699 1237.5 C768.9286452675419 1217.0389986319253 767.8229359275189 1180.2526009365122 765.5835759056316 1160.5 C764.772977635158 1153.35 763.4017346965895 1141.2 762.5363693754797 1133.5 C761.6710040543699 1125.8 760.7206119021084 1117.925 760.4243868148989 1116 C759.3375805426704 1108.9374581547181 753.3812525419312 1073.8948313170486 752.0106843432666 1066.5 C750.2465038079931 1056.9814532513765 741.9846032493634 1016.1216696048242 741.0383630639226 1012.2356487901354 C740.4672633787652 1009.89025562471 740 1006.6857615630341 740 1005.1145508753002 C740 1002.9630836050312 740.869672432709 1001.6704959868927 743.5226234231486 999.8789020851648 C750.5841789724763 995.1100843028238 760.7996976947484 979.6533255890832 764.5163141173479 968.1140528990271 C766.0672558138643 963.2987216601997 766.1155629866494 961.7625145928085 764.9722773922545 953.6140528990271 C764.2689567928978 948.6013238045622 762.6592916965365 941.1992020400047 761.395243844785 937.1648934222328 C760.1311959930334 933.1305848044608 758.4111898149173 926.3805848044608 757.5730078934157 922.1648934222328 C755.620512722222 912.3446898889736 754 895.9537103987572 754 886.0250357733169 C754.0000000000001 881.7553554351614 753.3540348575798 874.4905349751015 752.5645219057326 869.8809903065171 C751.7750089538855 865.2714456379326 750.4077136963625 856.1 749.5260880001258 849.5 C748.6444623038892 842.9 747.5398052037415 836.15 747.071294444242 834.5 C745.358662146707 828.4684559348191 744.0486110099024 817.0853892216576 742.9995744132978 799.1207239950922 C742.203792895824 785.4930311184332 741.2816601547823 778.2602609142488 739.4327353823217 771.1441367662014 C738.0612600741305 765.865615593011 735.8934110161129 759.2626440131675 734.6152930311716 756.4708665887715 C733.3371750462303 753.6790891643757 730.2008676658315 749.0410325613632 727.64572107473 746.1640741376327 C723.6578534568233 741.6739484532536 722.9999999999999 740.3277086814632 723 736.6570108022097 C723 732.7401173476967 724.493442234048 725.4886192783966 728.5929721686365 709.5 C732.0430797412847 696.0441996207496 733.1875690322101 693.0200266998676 737.1465171577877 686.8983039082702 C741.0838207626072 680.8100500462562 752.6871225752956 657.9387224907476 761.700410066143 638.5 C770.7898292181999 618.8970863374396 787.2630689895851 570.7108227646867 791.1008764085927 552.5 C791.5645114914726 550.3 792.86436409953 544.225 793.9894377598315 539 C795.114511420133 533.775 796.9085885771059 522.975 797.9762758864379 515 C799.04396319577 507.025 800.3580237519507 498.925 800.8964104557283 497 C803.0691859433648 489.2312479406473 805.0050822222231 479.2983700108739 805.0026149881198 475.9315012274413 C804.9988552626514 470.80085622857445 802.3537893586976 462.630150093453 800.0099635945963 460.50901692918364 C798.9044836175683 459.5085712998094 797.9999999999999 458.06180728787035 798 457.29398579154144 C798 456.52616429521254 796.425 455.2398696887782 794.5 454.43555333279846 C791.6367466324291 453.2392096887199 791 452.44369787348046 791 450.0628700526114 C791 448.46221060448823 791.4373572146744 444.980749613873 791.9719049214987 442.32629007346645 C792.506452628323 439.6718305330599 793.8918623593664 432.325 795.0505932127064 426 C796.2093240660463 419.675 797.7969668513718 411.7075179712239 798.5786882912076 408.2944843804976 C800.518367329375 399.82575194572695 800.3672548630785 393.48346494246147 798.1222184917724 389.1361545133865 C797.0894386622472 387.1362695310239 795.7692387722717 384.3067302575789 795.1884409584934 382.8482894612865 C794.1744114096089 380.3019608979631 793.7423371523291 380.1705342469865 784.316222466721 379.5412207318145 C778.9173001100245 379.1807737268973 772.475 378.4486050294385 770 377.9141791819061 C756.4164801326584 374.98109468995546 730.5340411695981 370.1067798191155 714.5 367.46213191859704 C709.55 366.64568103331504 703.475 365.5420322607027 701 365.00957909056956 C698.525 364.47712592043644 694.193808815073 363.7566447003019 691.3751307001621 363.4085097124927 C687.0868303201619 362.8788616506526 685.2096034066022 363.2310317172404 679.8751307001621 365.5659237877469 C676.368808815073 367.1006365169459 672.7380062761889 368.9978022305279 671.8066806137531 369.78184759570695 C670.8753549513174 370.565892960886 669.8238078724619 372.62322308306153 669.4699093274078 374.3536923116526 C669.1160107823536 376.08416154024366 667.9655045061646 380.3599008013716 666.9132287136546 383.8553351141592 C665.8609529211445 387.3507694269467 665 391.7382694269467 665 393.6053351141592 C665 399.0700423877873 662.1667324774322 397.88395351592595 655.7905756248933 389.7500000000001 C652.6647985473974 385.76250000000005 648.395692045548 380.8721945719892 646.3036722874504 378.8826546044205 C640.0679280342886 372.952374849088 629.3436853552257 366.24304367122943 623.2280411920764 364.4460127090242 C615.1586571366032 362.0748915962251 606.0969378850372 361.5239802317512 598.7948212037319 362.9605839301594 C595.3549497188404 363.63733730358814 589.3813947950907 365.6949315727002 585.5202547065101 367.53301563929733 C580.7548413048381 369.80157628289254 576.4700589243267 372.9146744802822 572.1799528375425 377.2253794545071 C564.647071742786 384.7944295778696 559.9999999999999 391.43277433435634 560 394.6244493481171 C560.0000000000001 395.9023677741797 558.7074174987192 400.22215148151537 557.1275944415981 404.22396869775184 C555.547771384477 408.2257859139883 553.9381572798349 414.65 553.5506742090599 418.5 C553.1631911382851 422.35 551.7982133813783 429.775 550.5173903048226 435 C546.0620854441696 453.175006621142 545.6558388562391 459.30524054724395 546.3307721133863 498.1757893734497 C547.0339457052667 538.6727468830252 548.1741701959861 558.6033872913138 550.4684131795535 570.5 C551.3169462347084 574.9 552.3003637693558 582.8728450761732 552.6537854787699 588.217433502607 C553.007207188184 593.562021929041 553.5671870638574 597.7711023507524 553.8981852024887 597.5709455508546 C554.2291833411199 597.3707887509569 554.535174789144 602.4479436747837 554.5781661980977 608.8535120482475 C554.6482340369889 619.2933730279226 555.5340096985434 626.5551919140931 560.0240156500668 653.5 C560.6655686668206 657.35 561.5587369683519 663.425 562.0088340979141 667 C562.8727726924035 673.8620310427287 565.2450524351113 686.8950545505596 570.0724534359326 711.3005681406856 C571.6826040461697 719.4408806180627 573 727.4555319443 573 729.1109044212129 L573 732.1206725610546 L563.575446729101 731.4288663800914 C555.9975554103464 730.8726138021398 552.8385952740832 731.0922827631537 547.4534986647647 732.5499604832293 C541.5087893281594 734.1591183091631 540.3854195397487 734.8736559048717 537.4577548866494 738.9079156287364 C535.6436629450766 741.4076958025098 533.9232237468243 744.6338812658786 533.634556668311 746.0772166584447 C533.3458895897978 747.5205520510108 533.5645234920066 751.5811336907287 534.1204097843307 755.1007314133733 C534.7126306817252 758.8503819274342 535.2965476868245 794.7176185771466 535.5306665253373 841.7260768388562 C535.8593501254315 907.7220872175351 536.1869725526767 922.8876135686367 537.3777318286409 927.2260768388562 C538.1738628302282 930.1267345774853 539.0918321141261 937.1126569922999 539.4176635706361 942.7503488717776 C539.7434950271462 948.3880407512554 540.67626643941 954.9130407512554 541.4904889312224 957.2503488717776 C542.3047114230347 959.5876569922999 542.9774424328875 962.9871485185117 542.9854467308952 964.8047744855817 C542.9945361090344 966.8688018012167 544.5017631918425 970.5995059169777 547 974.7416383960195 C549.2 978.3892875796904 551 982.1401351139049 551 983.0768551387183 C551 985.6224008175304 559.521483641851 996.7066106651534 562.7161365833964 998.3164685619005 C564.2472614625284 999.0880370304253 566.85 1000.0538089069578 568.5 1000.4626282875283 C572.6707748735536 1001.4960183483195 588.2819396000355 1001.1180603999743 589.4444525388843 999.955547461113 C589.970003642491 999.4299963575008 591.5028016349945 999 592.8506703000032 999 L595.3013406000193 999 L594.7002865956873 1009.25 C594.1230815109183 1019.0932954048088 588.2809979199917 1055.8998070004834 584.0678489072503 1076.2368780511028 C582.9584165349414 1081.5921609792094 580.9450178588526 1092.3921609792094 579.5936296270529 1100.2368780511028 C572.5181910922981 1141.3093190851682 570.5292514985945 1150.424212581379 564.1170354463668 1171.1628669989836 C561.0599200196395 1181.050316179302 555.6029379883269 1201.6717970212478 551.3257685022793 1219.5 C549.0725683270944 1228.8918443508012 547.260269517133 1239.5808582211002 543.2722478952601 1267 C542.1583504094137 1274.6584622621076 541.5911783441637 1285.1809351963345 541.5743656420054 1298.5 C541.5537385323897 1314.8408479552368 541.9499207458584 1320.695491226858 543.7397974613018 1330.5 C544.9446703004476 1337.1 547.1925291721058 1346.325 548.7350393983199 1351 C550.277549624534 1355.675 553.5971042817054 1363.325 556.1118275253673 1368 C561.1379687263639 1377.343855302519 562.4755561981548 1380.5157691769675 563.9132273135107 1386.5 C569.0224937904882 1407.7670544800133 575.9219095307544 1425.8092266977303 583.6430054782954 1438.0939419897409 C588.9891292049825 1446.5999375562294 596.1235300463454 1456.5353905660215 604.5 1467.1396451403787 C607.9480453054132 1471.5047237958051 616.4506754784236 1478.421104180149 623 1482.1882870907862 C629.7050235488442 1486.0450283540122 647.4641904662795 1491.80673160829 656.5260908921616 1493.0653393700197 C660.9117409014727 1493.674462499003 664.725 1494.413928441171 665 1494.708597019282 Z" />
  <path
     id="path-1499"
     class="outline"
     d="M692.5350635551749 1486.5306567335647 C688.1965593356146 1487.435787297761 680.1337612442983 1487.9797975529107 671.5 1487.9499270863798 C658.5867692395741 1487.9052508188388 656.6057643387575 1487.6378704022788 645.9802598366686 1484.5054738432013 C639.6444027468362 1482.6376644659529 631.3688865621315 1479.3973290150855 627.5902238706581 1477.3047283968294 C623.8115611791845 1475.2121277785732 618.6454442526837 1471.4247151680497 616.1099640339894 1468.8882559289991 C598.1215075265332 1450.892853571613 583.8746797036123 1429.014634635854 576.460278600018 1408 C575.1989440869676 1404.425 573.4502789980659 1397.7161659018468 572.5743561802366 1393.0914797818818 C571.6984333624073 1388.466793661917 570.598313777451 1384.191793661917 570.129645991445 1383.5914797818818 C569.660978205439 1382.991165901847 569.0315257128257 1380.893557560315 568.7308626745264 1378.9301279118113 C568.4301996362273 1376.9666982633073 567.059979431881 1373.7036203882478 565.6859288870903 1371.6788437450123 C564.3118783422997 1369.654067101777 561.0918618274993 1363.7744865968657 558.5303366319785 1358.6131092896542 C555.446629655642 1352.3995552564616 553.4335428136711 1346.6980301702006 552.5723309215202 1341.7386663624895 C551.856952976289 1337.6191000597605 551.0109868087214 1333.826794024314 550.6924061047034 1333.311319617053 C550.3738254006854 1332.795845209792 549.364777397559 1325.6524224020754 548.450077208867 1317.4370467110166 C546.3717962091955 1298.7709751227883 547.0115042493303 1283.3161344527393 551.0344765977725 1255 C554.0429349376085 1233.8246342584869 554.3517127637238 1232.286240368275 560.9698400244954 1205.5 C566.5370728966379 1182.9671546763245 569.3189567997217 1172.9204743703622 573.0148087205063 1162 C574.7831225895912 1156.775 576.8209187519744 1148.9 577.5432446369134 1144.5 C578.2655705218523 1140.1 579.5757880326682 1132.675 580.4548391053934 1128 C581.3338901781186 1123.325 583.5881824872689 1110.725 585.4643775701718 1100 C587.3405726530747 1089.275 589.9911548266256 1074.875 591.3545601780627 1068 C592.7179655294998 1061.125 594.5839269802256 1050.325 595.5011411796756 1044 C596.4183553791256 1037.675 597.9945783667443 1027.325 599.0038589299395 1021 C600.0131394931345 1014.675 601.1385526530646 1006.0125 601.5047770631174 1001.75 L602.17063962685 994 L597.6868655483263 994 C594.6389146765895 994 591.3768105423151 993.0393205489562 587.5 991 C584.3632996916085 989.35 581.3611829811379 988 580.8286295322873 988 C580.2960760834369 987.9999999999999 577.8981927939076 989.3499999999999 575.5000000000001 991 C573.1018072060926 992.65 570.0715033885106 994 568.7659915164845 994 C565.9105677708005 994 560.993980889843 989.0883703887796 558.2553939477832 983.5 C557.1772815727288 981.3 555.749446257579 977.25 555.0824265807839 974.5 C554.4154069039887 971.75 553.1448807183073 968.3825976217905 552.2590350570474 967.016883603979 C550.6039057401094 964.4651599705207 547.6015070989591 952.1247560052882 546.0508220297575 941.5 C543.8048203728375 926.1111760110415 542.1169724017842 884.8947611700848 543.1228349548023 870 C543.2528327031683 868.075 542.9408757353966 845.125 542.429597248643 819 C541.9183187618893 792.875 541.6001502940242 765.4363582638393 541.7225562089425 758.0252405863098 C541.9116163230844 746.5785163412584 542.2302088136108 744.1704167454129 543.839362281754 742.0252405863098 C545.6759967145044 739.5768076207017 546.0342189925892 739.510250187218 555.6168060728115 739.8370002682502 C561.0525627327652 740.0223504157877 568.7592992976083 740.8273960710432 572.7428873280186 741.625990613262 C581.0420933943824 743.2897421404666 584 742.4707842975058 584 738.5092252987978 C584 737.1780013474734 582.875 734.4310379606462 581.5 732.4048622169596 C580.125 730.3786864732731 579 727.8928406477158 579 726.8807603823881 C579 725.8686801170603 578.3365668411134 721.543976195207 577.525704091363 717.2703072227142 C572.1534802269056 688.9558897089179 570.8567778052607 681.7831556835883 570.0647683967252 676 C569.5751682907571 672.425 567.990344256566 662.975 566.5429372096337 655 C562.3009495080121 631.6272715114017 560.197720526352 616.2818734253783 559.5529146984316 604 C558.8678636701881 590.9515602147311 557.5591265399249 578.0609408382278 555.4410987935831 563.5 C554.641071327343 558 553.6078842387841 545.85 553.1451274856746 536.5 C551.891577063746 511.17201425743946 551.778261316636 465.6160970941328 552.946135558099 456.5 C553.5098248880145 452.1 555.5640699428359 441.3 557.5111245688131 432.5 C559.4581791947904 423.7 561.7126338869869 413.446102611714 562.5210238848053 409.71356135936446 C564.4788299638969 400.67387510145574 569.7974598430746 389.600923164505 575.0179897871974 383.69590156005245 C585.6596513303682 371.6589547381228 602.7576671028908 365.77277182447733 616.7029513734599 369.34538791511 C623.4332887088183 371.06962035047405 634.2835540541251 377.14069914036986 641.1986182552199 383.05151573018054 C646.9032991898011 387.927728260841 662.618292720181 408.61462240023695 663.5790797213554 412.5126947148077 C663.9840466178656 414.1557126216635 665.1407683152936 417.4412838166437 666.1495723823066 419.813964036986 C667.8352784488297 423.778699680046 668.2475161666172 424.1025117386834 671.2418807975288 423.813964036986 C673.7681639324317 423.57052234491954 674.5734790852239 422.9816202421984 674.8271273843382 421.192183922176 C675.0070474457242 419.9228850793728 674.422729459024 417.76791910527925 673.528642969449 416.40337064641255 C672.2662962791285 414.47678608114194 671.8579997666561 410.9701537448204 671.7015155851108 400.71118672423654 C671.517020301885 388.61583620781636 671.7111536667953 386.9984100363042 674 381.56131596826776 C676.1112565111944 376.5460818362995 677.274197605745 375.16911507210284 681.4788461288681 372.7060759202144 C686.9886239699129 369.47850565695234 687.6018997799406 369.46898455936423 704.5 372.3486728578183 C709.45 373.1922266829061 714.85 374.0899298071078 716.5 374.34356868937766 C723.9819677323499 375.49370076987003 744.9838953677312 379.40239165712075 760.6028632947834 382.5515990594839 C770.0094381069143 384.44821957676777 779.4594381069144 386.0016821272002 781.6028632947834 386.0037380604448 C783.7462884826525 386.0057939936894 786.9504231914079 386.89183535260446 788.7231626475732 387.9727188580338 C790.4959021037383 389.0536023634631 792.2455421085701 391.1301363383054 792.6112515471993 392.5872388021279 C792.9769609858284 394.0443412659504 792.7368304380656 398.44579990703534 792.0776281077262 402.3682580045389 C791.4184257773868 406.2907161020425 790.2670681778346 413.1 789.519055664277 417.5 C788.7710431507194 421.9 787.6230547147325 429.325 786.9679702509729 434 C786.3128857872134 438.675 784.9116346392136 446.0352528906331 783.8540788109734 450.3561175347402 C781.6114583191957 459.51881073193744 782.1910229792699 461.0000000000002 788.0188525207614 461.0000000000002 C791.0870217405516 461.0000000000002 792.3732389730528 461.6610656889154 794.8964078053191 464.5347962283147 C796.6033835123936 466.4789341538876 798 469.1504279373898 798 470.4714490805417 C798 471.79247022369356 797.1031527159137 476.614311920952 796.0070060353638 481.1866528522271 C794.910859354814 485.7589937835022 794.0108593548139 491.2132309760733 794.0070060353638 493.30717994682954 C794.0031527159138 495.40112891758577 793.5906678225562 499.0011289175858 793.0903729390137 501.30717994682954 C792.5900780554713 503.6132309760733 791.4377097949049 510.675 790.5295545821996 517 C789.6213993694944 523.325 788.402360118197 531.425 787.8205784682054 535 C783.7205156693336 560.1945459369142 768.5188057409592 607.3921024941321 755.4508551341278 635.5 C746.3765060716079 655.0180469421457 734.6753620433484 677.5374757561117 729.4707467465591 685.5 C727.3519258630249 688.7415772716201 725.5953439128306 693.3134763654077 724.4759809207876 698.5 C720.8891380569361 715.1194928894151 720.2273108931115 717.7065304516163 718.957586286216 720.0710309020644 C718.240197119363 721.4069639059289 717.5812872029387 725.0251712430631 717.4933420274954 728.1114916512515 C717.3804310285916 732.0739548389025 716.6967154005312 734.6171829456167 715.1667208542538 736.7658621506514 C713.9750243844142 738.439445517133 713 740.9418758367774 713 742.3268184165279 C713 744.3066714606645 713.7309399840549 745.0861277829677 716.4196954985166 745.9734971245166 C720.6323883960623 747.3638111573608 727.526489899497 754.675315443733 730.0907614347427 760.4722765727439 C733.4830984479718 768.1412170620401 736.1340868401509 783.6000439736395 736.354792421837 797 C736.5874666427214 811.1266220115467 738.226814339504 824.9570343925013 740.9775439648467 836 C742.0050541562063 840.125 743.3639926450828 847.55 743.9974072734612 852.5 C744.6308219018397 857.45 745.6409045617094 863.525 746.242035406505 866 C746.8431662513005 868.475 747.6497844798166 878.375 748.0345203587627 888 C748.9470133508861 910.8279854565279 750.9704880371529 923.8008765600649 756.6132640525518 943 C757.5332552340119 946.1302012003143 758.2879779752809 952.5932888358207 758.3648790324944 958 C758.4943659987792 967.1038881856379 758.3480343981291 967.7918718632142 754.8553896515343 974.5 C749.6298211706932 984.536458185794 743.6126890477377 991.6558352174742 737.915787184004 994.5426738633578 C735.2516004722144 995.8927194396043 732.5736713959041 997.9280851916642 731.9648336810924 999.0657088679354 C731.1141732561307 1000.6551824113122 731.1962165211228 1001.6505189523363 732.3191604612994 1003.3643480290863 C733.122877905225 1004.590975891448 734.269982797723 1008.4982998922334 734.8682824446282 1012.0472902530538 C735.4665820915335 1015.5962806138742 737.1052314564511 1023.9 738.5097254777784 1030.5 C745.1920327123196 1061.9015062209314 752.83819998573 1104.2890035151377 755.3759404161535 1124 C756.9139887711913 1135.9462437356672 759.2038303114836 1157.543959975806 760.5180264343862 1172.5 C761.987274048879 1189.2205835908803 762.7840947906595 1225.2771453089483 761.9323744765734 1236.5 C760.2716003167159 1258.3835065484282 758.8965948686296 1269.4463814027608 757.2398481736255 1274.2546367633872 C755.9197497229397 1278.0858624246216 755.8230532483341 1279.639564460097 756.7419587590646 1282.2546367633872 C759.5130123518339 1290.140654875981 763.1264761399793 1321.3124784753954 764.537097346361 1349.5 C765.1847630943157 1362.4418812992692 763.9575297700961 1385.1511730088612 761.8890872870529 1398.5 C759.8077502260946 1411.9320429814902 754.179942934201 1428.771662868239 747.0171705707892 1443 C739.8727196986773 1457.1919427942414 734.1502347013208 1464.3688187049636 729.0930885680045 1465.4795543207222 C727.5745053264641 1465.8130911510623 724.3448217998512 1468.1250993991823 721.9160140644201 1470.6173504276558 C715.8524302428998 1476.83932213623 709.0431138306324 1481.7206858071168 703.8921064510837 1483.5380670612155 C701.51501781368 1484.3767527804596 696.404348510521 1485.7234181330168 692.5350635551749 1486.5306567335647 Z" />
</svg>
