<?xml version="1.0" encoding="UTF-8" standalone="no"?>
<svg
   version="1.0"
   viewBox="393.15579 212 339.63564 999.91498"
   width="1.7689356in"
   height="5.2078905in"
   id="svg1"
   sodipodi:docname="micro-to-2xUSB-A.svg"
   inkscape:version="1.3.2 (091e20ef0f, 2023-11-25, custom)"
   xmlns:inkscape="http://www.inkscape.org/namespaces/inkscape"
   xmlns:sodipodi="http://sodipodi.sourceforge.net/DTD/sodipodi-0.dtd"
   xmlns="http://www.w3.org/2000/svg"
   xmlns:svg="http://www.w3.org/2000/svg">
  <defs
     id="defs1" />
  <sodipodi:namedview
     id="namedview1"
     pagecolor="#ffffff"
     bordercolor="#000000"
     borderopacity="0.25"
     inkscape:showpageshadow="2"
     inkscape:pageopacity="0.0"
     inkscape:pagecheckerboard="0"
     inkscape:deskcolor="#d1d1d1"
     inkscape:document-units="in"
     inkscape:zoom="1.1403866"
     inkscape:cx="153.89518"
     inkscape:cy="307.79036"
     inkscape:window-width="1920"
     inkscape:window-height="984"
     inkscape:window-x="0"
     inkscape:window-y="30"
     inkscape:window-maximized="1"
     inkscape:current-layer="svg1" />
  <style
     id="svg-style">.outline { stroke: black; fill: none; stroke-width: 1px; }
.outline { stroke: black; fill: none; stroke-width: 1px; }
.outline { stroke: black; fill: none; stroke-width: 1px; }
.outline { stroke: black; fill: none; stroke-width: 1px; }
.outline { stroke: black; fill: none; stroke-width: 1px; }
.outline { stroke: black; fill: none; stroke-width: 1px; }
.outline { stroke: black; fill: none; stroke-width: 1px; }
.outline { stroke: black; fill: none; stroke-width: 1px; }
.outline { stroke: black; fill: none; stroke-width: 1px; }
.outline { stroke: black; fill: none; stroke-width: 1px; }
</style>
  <path
     id="path-1250"
     class="outline"
     d="m 574.99793,1209.9499 c 13.00118,2.4771 23.57923,1.9036 43.67515,-2.3678 9.92476,-2.1095 24.40375,-9.6703 35.82485,-18.7073 3.025,-2.3935 7.5922,-6.7487 10.14933,-9.6782 6.54392,-7.4968 14.37759,-19.7324 18.98493,-29.6531 5.14514,-11.0787 11.86574,-34.3128 11.86574,-41.0215 0,-5.2974 2.53651,-7.8237 10.18951,-10.1482 5.4516,-1.6559 8.32935,-3.3246 13.35179,-7.7423 4.59687,-4.0434 7.12052,-7.2294 8.94899,-11.2977 1.40064,-3.1164 3.0294,-8.2777 3.61946,-11.4697 1.29232,-6.9908 0.70661,-19.6577 -1.4702,-31.795 -2.64957,-14.7732 -14.42613,-51.92983 -24.10965,-76.0691 -5.30278,-13.21887 -11.89445,-30.42919 -14.55426,-38 -1.54582,-4.4 -6.142,-16.1 -10.21372,-26 -4.07173,-9.9 -8.85541,-22.725 -10.6304,-28.5 -3.92215,-12.76083 -5.49942,-17.49963 -7.23808,-21.74625 -1.15807,-2.82855 -1.10805,-3.62043 0.38874,-6.15429 0.9448,-1.59943 1.71782,-4.37818 1.71782,-6.17501 0,-4.73936 2.43129,-6.92445 7.70465,-6.92445 7.47382,0 12.0553,-3.46235 16.59684,-12.54271 1.38717,-2.77349 3.28439,-7.72349 4.21606,-11 1.14691,-4.0335 2.91024,-7.24901 5.46039,-9.95729 3.01454,-3.20147 4.50128,-6.30478 7.44738,-15.54516 3.04801,-9.56002 3.49986,-12.02144 2.62781,-14.3151 -0.57922,-1.52347 -1.05313,-6.50907 -1.05313,-11.07911 0,-4.82973 -0.62812,-10.08946 -1.5,-12.56063 -0.825,-2.3383 -1.5,-5.68814 -1.5,-7.44409 0,-1.75596 -1.53155,-12.61188 -3.40345,-24.12428 -1.87189,-11.5124 -3.65092,-26.10663 -3.95338,-32.43163 -0.53029,-11.08906 -2.34303,-23.92799 -5.15346,-36.5 -0.73771,-3.3 -1.63713,-10.05 -1.99871,-15 -0.36159,-4.95 -1.74498,-14.49964 -3.07422,-21.22143 -1.32923,-6.72179 -2.41849,-14.14679 -2.42059,-16.5 -0.006,-7.08743 -2.68714,-20.89732 -5.29543,-27.27857 -1.34886,-3.3 -2.75173,-8.07635 -3.11751,-10.6141 -0.41225,-2.86027 -1.50473,-5.37353 -2.87414,-6.61206 -2.31158,-2.09063 -9.60585,-4.26299 -14.40193,-4.28915 -1.54395,-0.008 -3.4154,-0.40074 -4.15878,-0.87181 -1.42143,-0.90075 -1.46622,-0.63626 5.35396,-31.61288 1.33204,-6.05 3.5929,-17.3 5.02412,-25 1.43123,-7.7 3.21494,-16.25 3.96381,-19 0.74887,-2.75 2.13006,-9.275 3.06932,-14.5 0.93926,-5.225 2.32902,-12.875 3.08835,-17 5.61787,-30.51855 8.39033,-54.33973 9.01994,-77.5 0.4458,-16.39913 0.20647,-23.84816 -1.09238,-34 -3.34045,-26.10907 -6.04915,-36.27887 -14.18007,-53.23894 -4.10184,-8.55593 -4.96401,-9.63637 -11.66237,-14.61486 -3.97819,-2.95675 -9.93308,-6.61971 -13.23308,-8.13992 -5.7765,-2.66104 -6.65188,-2.76936 -23.5,-2.90788 l -17.5,-0.14387 -8,-5.58881 c -4.4,-3.07385 -9.66913,-6.72104 -11.70918,-8.10487 -3.3394,-2.26521 -14.80861,-5.45581 -26.13975,-7.27176 -2.11691,-0.33926 -9.31691,0.15938 -16,1.10809 -11.76233,1.66974 -12.75893,1.6601 -31.15107,-0.30145 -10.45,-1.11451 -22.55948,-2.98698 -26.90996,-4.16105 C 479.73749,213.4606 473.49319,212.5 470.21175,212.5 c -3.28144,0 -9.96944,0.93984 -14.86224,2.08853 -6.99148,1.6414 -9.93255,2.90789 -13.73782,5.91579 -8.14178,6.4357 -12.07044,12.11737 -15.74129,22.76522 -1.84502,5.35175 -3.35861,10.75741 -3.36353,12.01258 -0.005,1.25516 -0.61842,3.7408 -1.36333,5.52363 -1.13069,2.70612 -2.1904,3.45578 -6.41598,4.53876 -2.78388,0.71349 -7.05834,2.56354 -9.49879,4.11123 -3.09937,1.96556 -5.22002,4.38491 -7.0336,8.02429 -1.42802,2.86567 -3.14577,7.66515 -3.81722,10.66551 -0.90769,4.05595 -0.95465,7.4713 -0.18311,13.31516 0.82694,6.26345 2.1709,10.16322 6.61667,19.19962 3.06842,6.23682 7.55279,13.65065 9.96525,16.47517 2.41246,2.82453 7.20985,9.79953 10.66087,15.5 3.45101,5.70048 7.57751,12.16451 9.16999,14.36451 1.59248,2.2 4.44105,6.7 6.33017,10 l 3.43476,6 -0.0792,38.53497 c -0.0763,37.10465 -10e-4,38.71176 2.02773,43.29809 1.15882,2.61971 4.1197,7.4097 6.57971,10.64441 2.46002,3.23471 5.17468,7.23866 6.03258,8.89765 1.15507,2.23366 1.6684,7.11738 1.97824,18.82062 0.30748,11.61396 0.88287,17.12995 2.17013,20.80426 1.40141,4.00013 1.74649,8.29957 1.72564,21.5 -0.0212,13.40354 -0.3512,17.25066 -1.75857,20.5 -0.95287,2.2 -2.97508,5.35 -4.49378,7 -2.51662,2.73418 -5.24254,9.9061 -7.98173,21 -1.35455,5.48601 -0.60773,71.12434 0.96711,85 0.72434,6.38203 1.33388,26.32326 1.45192,47.5 0.15973,28.65525 0.55745,38.54178 1.85052,46 0.90588,5.225 1.64887,12.33485 1.65108,15.79966 0.002,3.77122 0.63651,7.52277 1.57989,9.34706 1.4309,2.76705 1.89798,2.98697 5.07721,2.39054 2.86947,-0.53832 4.14162,-0.16849 7.04929,2.0493 3.52282,2.68699 3.54409,2.74939 3.00218,8.8098 -0.33366,3.73142 -2.27402,10.57319 -4.99249,17.60364 -2.4457,6.325 -13.92027,30.4 -25.49907,53.5 -19.88991,39.6809 -29.34203,61.06084 -34.05076,77.02007 -1.13267,3.83896 -3.05703,11.70493 -4.27635,17.47993 -1.79354,8.49469 -2.2307,13.93767 -2.28901,28.5 -0.0561,14.0132 0.346,19.9934 1.81546,27 4.59384,21.9041 13.17156,39.486 25.90284,53.0935 4.36871,4.6693 10.6975,10.443 14.06397,12.8302 10.53765,7.4726 23.74728,13.3595 38.39629,17.1116 4.00149,1.0249 7.96873,2.6295 8.81609,3.5658 0.84736,0.9364 2.62682,4.9128 3.95434,8.8367 3.55032,10.4938 13.82793,30.0444 20.58467,39.1573 9.49667,12.8081 20.08057,23.1882 30.57604,29.9872 10.19979,6.6075 21.50966,11.2177 32.79343,13.3676 z" />
  <path
     id="path-1251"
     class="outline"
     d="m 609.88911,1203.808 c -10.3521,1.8252 -19.441,2.5941 -24.39118,2.0635 -14.06694,-1.508 -29.41237,-6.879 -40.5,-14.1752 -3.85,-2.5335 -11.292,-8.9016 -16.53779,-14.1514 -9.62158,-9.6288 -15.12618,-17.1783 -22.74676,-31.197 -5.19207,-9.5513 -11.4347,-25.8957 -12.16405,-31.8479 l -0.5514,-4.5 -8.5,-0.6274 c -11.17906,-0.825 -21.45399,-4.3924 -33.45617,-11.6156 -12.26848,-7.3835 -20.31865,-15.0762 -30.05503,-28.7205 -7.92899,-11.1115 -14.24138,-27.7537 -16.57157,-43.69 -1.63212,-11.1621 -0.64102,-34.56333 2.01129,-47.48935 1.91673,-9.34116 6.49836,-25.64697 9.23225,-32.85715 2.18585,-5.76483 15.11817,-33.06277 19.17184,-40.46852 6.5671,-11.99761 33.30478,-67.15437 34.67545,-71.53148 0.68892,-2.2 1.5853,-4.45 1.99194,-5 0.40664,-0.55 1.29272,-2.8 1.96905,-5 0.67633,-2.2 2.10729,-5.87567 3.17991,-8.16816 1.07262,-2.2925 2.20548,-5.74116 2.51747,-7.6637 0.5201,-3.20503 0.24588,-3.70769 -3.29959,-6.04828 -2.12676,-1.40401 -6.56684,-4.4976 -9.86684,-6.87464 l -6,-4.3219 -0.61592,-6.46166 c -0.33876,-3.55391 -1.06645,-7.58666 -1.6171,-8.96166 -0.55064,-1.375 -1.57685,-7.05845 -2.28047,-12.62989 -0.8907,-7.05278 -1.04262,-14.34314 -0.50012,-24 1.11869,-19.9135 1.08269,-24.76782 -0.33276,-44.87011 -2.68303,-38.10436 -2.97906,-46.81138 -2.46175,-72.40648 0.48739,-24.11457 0.73335,-26.99345 2.83391,-33.16935 1.29809,-3.81653 4.11208,-9.05506 6.45908,-12.02425 2.28739,-2.89376 5.02957,-6.96807 6.09374,-9.05402 1.77117,-3.47176 1.85138,-4.74394 0.94815,-15.03677 -0.67368,-7.6769 -0.65584,-12.4729 0.0562,-15.11728 0.75797,-2.81492 0.69694,-5.82926 -0.22339,-11.0325 -0.69648,-3.93764 -1.28731,-9.70676 -1.31295,-12.82026 -0.0367,-4.45067 -0.52766,-6.17476 -2.29664,-8.06445 -2.03783,-2.17689 -2.25,-3.39354 -2.25,-12.902 0,-10.35958 -0.0397,-10.53648 -3,-13.37264 -1.65,-1.5808 -3,-3.39124 -3,-4.02321 0,-0.63196 -2.193,-3.88155 -4.87333,-7.22131 -4.11287,-5.12473 -4.98592,-6.97338 -5.59482,-11.84683 -0.39681,-3.176 -0.45769,-12.10472 -0.13529,-19.8416 0.3224,-7.73688 0.84185,-23.29205 1.15433,-34.56705 l 0.56815,-20.5 -4.40923,-6.0277 c -2.42509,-3.31524 -6.95699,-10.29024 -10.07091,-15.5 -10.46553,-17.50944 -12.11956,-20.02479 -17.26815,-26.26025 -5.41541,-6.55863 -11.6379,-17.98546 -13.96012,-25.63605 -0.76394,-2.5168 -1.39385,-7.63143 -1.39981,-11.36584 -0.008,-4.74317 0.56563,-7.90819 1.90155,-10.5 3.63726,-7.05658 13.84119,-14.47186 19.50082,-14.1714 6.67133,0.35417 6.33201,0.89643 6.7513,-10.78876 0.35526,-9.90076 0.66025,-11.29173 3.86062,-17.6074 8.19948,-16.18099 21.93261,-23.62051 40.90426,-22.15867 4.63616,0.35723 10.26116,1.32559 12.5,2.1519 3.73997,1.38035 19.50435,3.36885 42.07063,5.30674 6.63628,0.5699 10.05054,0.42012 13,-0.57029 2.22223,-0.74621 8.25265,-1.34964 13.5685,-1.35773 10.28892,-0.0157 18.68517,1.85992 22.79371,5.09171 1.32413,1.04156 2.98412,1.89374 3.68887,1.89374 1.95092,0 15.49834,9.37477 19.39509,13.42134 2.4893,2.58501 4.30172,3.57866 6.52749,3.57866 1.69473,0 4.10959,-0.72022 5.36636,-1.6005 3.36077,-2.35397 12.56,-2.83875 20.89129,-1.10092 4.07262,0.84951 9.9695,3.04871 13.5,5.03472 9.31842,5.24192 14.9273,11.56455 20.10791,22.6667 8.26938,17.72147 12.83539,42.88618 12.8414,70.77303 0.002,8.95017 -0.51191,21.10017 -1.14186,27 -1.04358,9.77355 -1.71278,14.99071 -5.09575,39.72697 -0.60175,4.4 -1.9293,11.6 -2.95011,16 -1.0208,4.4 -2.1491,10.62676 -2.50731,13.83723 -0.35822,3.21048 -1.4645,8.38548 -2.45842,11.5 -0.99391,3.11453 -2.10961,8.52508 -2.47932,12.02346 -0.36972,3.49838 -1.53842,9.12338 -2.59713,12.5 -1.0587,3.37662 -1.93072,7.19045 -1.93782,8.47518 -0.007,1.28472 -0.67909,5.10972 -1.49333,8.5 -2.37811,9.90183 -6.31931,29.72052 -7.03881,35.39527 -0.36478,2.87713 -1.55106,6.35981 -2.63616,7.73929 -1.27765,1.62427 -1.8622,3.65724 -1.65876,5.76886 l 0.31418,3.26071 7.43124,-0.26774 c 4.08719,-0.14725 8.9097,0.2202 10.7167,0.81656 2.62699,0.86699 4.07316,2.52399 7.21577,8.26774 2.16168,3.95089 4.87667,10.88402 6.03331,15.40694 1.15664,4.52293 2.10298,11.36348 2.10298,15.20121 0,3.83774 0.72066,9.58717 1.60146,12.7765 2.38982,8.65343 3.29748,14.67045 3.96713,26.29879 0.33257,5.775 1.45132,13.2 2.48611,16.5 2.44545,7.79867 4.1888,25.6406 3.39934,34.78988 -0.50285,5.82758 -0.2163,8.45649 1.49438,13.71012 1.16408,3.575 2.58499,10.325 3.15757,15 0.57258,4.675 1.50412,12.325 2.07009,17 0.93482,7.72185 1.12869,12.99915 0.7623,20.75 -0.0715,1.5125 0.36853,6.125 0.97785,10.25 0.60931,4.125 1.36449,10.875 1.67818,15 l 0.57034,7.5 -4.70104,4.75 c -3.99206,4.03364 -5.28291,4.75 -8.55932,4.75 -2.96582,0 -4.2209,0.55343 -5.42595,2.39256 -1.34937,2.0594 -1.40056,3.29952 -0.3676,8.90559 1.11174,6.03361 1.37265,6.48173 3.54462,6.08788 1.2895,-0.23383 2.34454,10e-4 2.34454,0.52274 0,0.52134 -1.60574,3.64345 -3.56831,6.93803 -4.38348,7.35858 -8.18211,9.51498 -15.16115,8.60664 -2.62379,-0.34149 -6.00804,-0.14436 -7.52054,0.43808 -2.4802,0.95508 -2.75,1.53826 -2.75,5.94418 0,3.56183 -0.67724,5.88317 -2.5,8.56916 -1.375,2.02618 -2.5,4.54871 -2.5,5.60562 0,1.05692 0.65172,3.39943 1.44826,5.20559 0.79654,1.80616 3.06965,8.68393 5.05135,15.28393 4.69346,15.63145 4.20016,14.27155 12.51492,34.5 3.9563,9.625 9.35475,23.125 11.99657,30 2.64183,6.875 6.25188,15.875 8.02234,20 5.93332,13.82403 11.97941,30.33022 19.55817,53.39497 4.13763,12.59223 7.95633,24.96723 8.486,27.50003 2.11143,10.0963 4.30783,28.0396 4.36352,35.6473 0.0547,7.4702 -0.19009,8.4549 -3.44113,13.8433 -1.925,3.1906 -4.92829,7.4782 -6.67399,9.5279 -4.1909,4.9209 -13.93419,10.0865 -19.02486,10.0865 -2.15539,0 -4.74834,0.6065 -5.7621,1.3478 -1.49191,1.0909 -1.73064,2.1868 -1.25255,5.75 0.84618,6.3064 -3.29916,25.5331 -8.20162,38.0402 -2.23388,5.6991 -6.19699,14.187 -8.8069,18.862 -3.49355,6.2578 -7.24172,10.979 -14.20911,17.8979 -5.2051,5.1689 -12.42744,11.3151 -16.04963,13.6583 -10.70189,6.923 -22.78751,12.0167 -32.62806,13.7518 z" />
</svg>
