<?xml version="1.0" encoding="UTF-8" standalone="no"?>
<svg
   version="1.0"
   viewBox="978 0 251.98995 275.92182"
   width="1.3124477in"
   height="1.4370928in"
   id="svg1"
   sodipodi:docname="micro_SD_Card_Reader.svg"
   inkscape:version="1.3.2 (091e20ef0f, 2023-11-25, custom)"
   xmlns:inkscape="http://www.inkscape.org/namespaces/inkscape"
   xmlns:sodipodi="http://sodipodi.sourceforge.net/DTD/sodipodi-0.dtd"
   xmlns="http://www.w3.org/2000/svg"
   xmlns:svg="http://www.w3.org/2000/svg">
  <defs
     id="defs1" />
  <sodipodi:namedview
     id="namedview1"
     pagecolor="#ffffff"
     bordercolor="#000000"
     borderopacity="0.25"
     inkscape:showpageshadow="2"
     inkscape:pageopacity="0.0"
     inkscape:pagecheckerboard="0"
     inkscape:deskcolor="#d1d1d1"
     inkscape:document-units="in"
     inkscape:zoom="3.0348825"
     inkscape:cx="59.804622"
     inkscape:cy="11.20307"
     inkscape:window-width="1920"
     inkscape:window-height="984"
     inkscape:window-x="0"
     inkscape:window-y="30"
     inkscape:window-maximized="1"
     inkscape:current-layer="svg1" />
  <style
     id="svg-style">.outline { stroke: black; fill: none; stroke-width: 1px; }
.outline { stroke: black; fill: none; stroke-width: 1px; }
</style>
  <path
     id="path-1697"
     class="outline"
     d="m 1196.94,274.53673 c 1.2888,1.23153 10.2782,1.15654 11.05,-0.0922 0.3399,-0.55 1.4308,-1 2.4242,-1 2.9136,0 6.8661,-3.76527 7.6234,-7.26219 0.3856,-1.78079 1.4683,-4.36281 2.406,-5.73781 1.4773,-2.1662 1.6198,-4.18648 1.0669,-15.13096 l -0.6381,-12.63096 -5.4128,-11.20794 c -5.8192,-12.0495 -8.1495,-14.32997 -14.304,-13.99817 -5.7792,0.31156 -6.1471,0.0381 -3.071,-2.28197 1.6407,-1.2375 7.0156,-5.70678 11.9442,-9.93174 7.0618,-6.05356 10.074,-9.51945 14.2112,-16.35199 2.8875,-4.76863 5.25,-9.64111 5.25,-10.82771 0,-1.18661 -0.8266,-2.67371 -1.837,-3.30468 -1.0103,-0.63097 -3.062,-3.65116 -4.5593,-6.71152 -1.7188,-3.51307 -4.6063,-7.14172 -7.8329,-9.84333 -6.7884,-5.68403 -13.7927,-12.80381 -20.6496,-20.99009 -13.3545,-15.94373 -28.2957,-32.964905 -37.1212,-42.288955 -11.9876,-12.66478 -32.8548,-36.48092 -45.5,-51.93002 -14.5821,-17.81541 -15.4663,-19.08907 -15.4831,-22.30091 -0.014,-2.69773 -0.4707,-3.33594 -2.7669,-3.86715 -1.5125,-0.34991 -4.4111,-1.93349 -6.4414,-3.51905 -3.9623,-3.09447004 -7.2744,-3.71732004 -8.1153,-1.52612 -0.2863,0.74621 0.098,2.43371 0.8538,3.75 2.5723,4.47914 2.7715,5.16476 1.862,6.4116 -0.5,0.68556 -4.6153,5.52034 -9.145,10.74394 -4.5298,5.22361 -12.1798,12.81342 -17,16.86624 -4.8203,4.05283 -12.8141,10.98824 -17.7641,15.41201 -4.95,4.42377 -11.5362,9.91317 -14.636,12.19866 -3.0998,2.28549 -6.4933,5.24541 -7.5412,6.57762 -2.1453,2.72724 -11.2707,10.55641 -21.57005,18.50604 -6.3482,4.89992 -7.13105,5.24095 -9.85265,4.2922 -1.62608,-0.56686 -3.61882,-0.77649 -4.42833,-0.46585 -2.79977,1.07437 -1.50673,4.734595 3.28872,9.309345 2.6183,2.4978 10.56346,11.51646 17.65591,20.04146 7.0924,8.525 15.666,18.65 19.0524,22.5 3.3864,3.85 10.3098,12.04444 15.3854,18.20987 5.0756,6.16543 10.2391,12.01543 11.4746,13 2.1244,1.693 12.3286,13.83682 24.777,29.48656 3.3483,4.20939 6.2692,9.15197 7.2532,12.27337 0.906,2.87425 2.5459,6.03912 3.6441,7.03304 1.1045,0.9995 1.9969,3.07862 1.9969,4.65215 0,2.1726 0.4698,2.84501 1.988,2.84501 1.2789,0 4.1314,2.69731 7.9977,7.56264 6.0157,7.57021 8.9979,10.43678 14.4008,13.84274 2.1522,1.35669 4.2196,1.70909 8.126,1.38514 2.9048,-0.24089 7.7724,-1.67372 10.9237,-3.21552 3.1263,-1.52956 8.6946,-5.42684 12.374,-8.66063 3.6794,-3.23378 7.1398,-5.87329 7.6898,-5.86556 1.6587,0.0233 3.9697,4.10568 5.9161,10.45119 1.1935,3.89081 2.9646,7.0546 5.0383,9 4.117,3.86239 16.5666,10.32545 22.4618,11.6608 2.5211,0.57106 6.8338,1.25998 9.5838,1.53093 2.75,0.27095 5.4275,0.90116 5.95,1.40046 z" />
  <path
     id="path-1698"
     class="outline"
     d="m 1209.1303,266.8952 c -3.3305,2.10541 -7.8519,2.53777 -11.1403,1.06528 -1.65,-0.73884 -6.1404,-1.66319 -9.9787,-2.05411 -5.2649,-0.5362 -8.8079,-1.66855 -14.4272,-4.61086 -4.0966,-2.14506 -8.0049,-4.36196 -8.685,-4.92645 -0.6802,-0.56448 -2.2186,-3.11526 -3.4187,-5.6684 -1.8583,-3.95324 -2.0784,-5.61505 -1.4833,-11.19909 0.3844,-3.60637 1.141,-7.38686 1.6814,-8.40109 0.5404,-1.01424 2.9691,-2.72279 5.397,-3.7968 3.7229,-1.64679 4.4145,-2.39714 4.4145,-4.7893 0,-4.07989 -2.974,-4.48104 -8.2159,-1.10821 -2.3563,1.51611 -5.3531,3.92163 -6.6597,5.34559 -1.3066,1.42397 -3.6636,2.87193 -5.2378,3.21769 -1.5742,0.34575 -3.7463,1.75259 -4.8269,3.1263 -2.8923,3.67697 -13.8177,11.96073 -19.5597,14.83041 -5.7316,2.86448 -12.1622,3.26155 -16.4992,1.01879 -4.1624,-2.15246 -16.9968,-17.70476 -17.0185,-20.62254 -0.022,-2.9035 -7.0842,-13.04104 -16.4823,-23.65854 -3.85,-4.34955 -9.9185,-11.46576 -13.4855,-15.8138 -3.5671,-4.34804 -9.4171,-10.84986 -13,-14.44849 -3.583,-3.59862 -10.5645,-11.42982 -15.5145,-17.40266 -13.7804,-16.62791 -31.1223,-37.29884 -37.63665,-44.86134 -3.2249,-3.74383 -5.8634,-7.43346 -5.8634,-8.19917 0,-0.76572 4.6125,-4.845955 10.25005,-9.067205 5.6375,-4.22125 11.825,-9.14454 13.75,-10.94065 1.925,-1.7961 4.9675,-4.00438 6.7612,-4.90728 1.7936,-0.90291 3.8186,-2.55425 4.5,-3.66966 1.1846,-1.93928 13.0193,-12.39916 24.7306,-21.85772 6.3115,-5.09744 23.8779,-20.81253 25.7669,-23.05135 0.6961,-0.825 1.5431,-2.74631 1.8824,-4.26958 0.793,-3.56094 5.7479,-7.73057 9.1856,-7.72988 3.177,6.4e-4 7.001,4.04411 37.8285,39.99946 11.5533,13.475 21.8328,25.175 22.8434,26 2.4765,2.0217 31.1746,34.967595 40.3859,46.363865 4.0615,5.02487 9.2879,11.18901 11.6142,13.69808 2.3263,2.50908 4.7566,5.54658 5.4007,6.75 0.644,1.20343 1.7649,2.18805 2.4907,2.18805 0.7259,0 3.6033,2.4145 6.3943,5.36556 6.184,6.53865 7.4614,11.08921 4.6441,16.54435 -2.3805,4.60944 -15.7754,17.87599 -22.351,22.13684 -4.6196,2.99335 -5.0775,3.62916 -5.0775,7.04971 v 3.75963 l -5.75,0.69535 c -3.1625,0.38244 -6.3125,1.14492 -7,1.6944 -1.7191,1.37399 -1.575,5.6922 0.2128,6.37826 0.8046,0.30874 3.6171,-0.11509 6.25,-0.94183 2.633,-0.82674 7.1868,-1.75165 10.1196,-2.05536 4.6975,-0.48645 5.5904,-0.27322 7.5,1.79102 1.1922,1.28876 3.8247,5.14789 5.8501,8.57583 2.7479,4.65069 3.8566,7.85798 4.3683,12.6363 0.4073,3.80293 0.1901,9.34129 -0.5348,13.63681 -0.6713,3.97822 -1.4489,8.9426 -1.728,11.03195 -0.3221,2.4116 -1.289,4.2929 -2.6477,5.15184 z" />
</svg>
