<svg xmlns="http://www.w3.org/2000/svg" version="1.0" viewBox="398.0462646484375 251.0396728515625 503.65264892578125 379.25018310546875" width="2.6231908798217773in" height="1.975261370340983in"><style id="svg-style">.outline { stroke: black; fill: none; stroke-width: 1px; }
.outline { stroke: black; fill: none; stroke-width: 1px; }
.outline { stroke: black; fill: none; stroke-width: 1px; }
.outline { stroke: black; fill: none; stroke-width: 1px; }
</style><path id="path-1636" class="outline" d="M458.4189133703793 628.8769360899232 C461.67431572408793 629.893050641359 465.200168984797 630.4989095299524 466.25414283862176 630.2232891756863 C467.8358855050279 629.8096541765916 468.0603712650724 629.135343519927 467.53991640958634 626.3610806294195 L466.9093738826878 623 L481.4290067951123 623 L495.9486397075368 623 L497.5 626 C499.4961404318084 629.8601099464245 502.47762251047203 629.937250271538 503.793392547649 626.1628298726553 L504.78243538056677 623.3256597453105 L538.1412176902834 622.6403231201491 C572.297489866758 621.9386025332228 575.0284587686955 621.6222441786597 583.1399677840241 617.4276198458804 C585.6630481659264 616.1228842728217 590.4175454752396 616.057273414777 619.7696949438978 616.9221388933111 C677.7796959604906 618.6314122581986 687.3685441601124 618.5920990052124 698.3790227247114 616.59984904934 C706.5543585363433 615.1205934189506 708.9937780303568 615.0183185363013 712.5242746671024 616.0067964866281 C714.8707007368263 616.6637551727953 717.7379493580411 616.9005593133763 718.8959382698021 616.5330279101416 C720.2968285843288 616.0884025965081 722.0477898484453 616.6099037594502 724.1284484940778 618.0914633952598 C725.9223390905998 619.3688261690354 729.3327350926462 620.5177314486638 732.1277621666668 620.7862981611715 C736.410373878614 621.1978029222936 737 621.5329612399543 737 623.55580069207 C737 625.8197267295083 739.3305812740653 629 740.9896411031932 629 C743.7155524671717 629 745 627.5244623846477 745 624.3930111958164 C745 621.0384422874553 745.0509730391628 621 749.4990062770222 621 C751.9734597293844 621 777.7359597293844 620.5215245916859 806.7490062770222 619.9367213148576 L859.5 618.873442629715 L871.8908742027816 614.7723017248434 C882.6216102688614 611.2206345946821 884.4973402241059 610.2749698310405 885.8908742027816 607.7140859865033 C886.7758933912517 606.0876948280958 889.3259311465166 602.2241836436021 891.5576247700368 599.1285055765175 C895.5766472279316 593.5535469249799 897.1506162218209 589.6378690341077 900.4746488719222 576.9449719340603 C901.9647479454114 571.2549934652573 902.0350967342403 569.2754834118261 901.0077261506171 561.9449719340603 C900.356766981671 557.3002373703271 899.4603359623231 546.3 899.015657218733 537.5 C898.570978475143 528.7 897.9065787044933 472.45000000000005 897.539213283956 412.5 C897.1337692347431 346.33598621024595 896.4620516743975 300.55428736801815 895.8299678444249 296.00437061702985 C895.2572482732202 291.88177445639633 893.7723163739645 285.7087472958799 892.5301191794124 282.2865324825489 C891.2879219848603 278.86431766921794 888.3287291964567 273.13055382672013 885.9541352051824 269.54483505477594 C881.7342727373771 263.1726972824102 877.0488049180135 259.1737754154797 870 255.92840600231185 C868.075 255.04210879405986 865.882399878051 253.57064131289115 865.1275552845577 252.6584782663814 C863.2520499271757 250.39209562910483 857.7314621246138 250.5342621069776 855.5867210212468 252.90417435014865 C853.9143429477734 254.7521313204857 850.8172087334412 254.81032540416876 750.6817334591348 254.87530288462105 C693.9317800566107 254.91212768599917 641.2 255.1600019057065 633.5 255.4261344839707 C580.9158394892337 257.2435836024887 555.7465636614284 258.0454438491544 521 259.01023751367495 C499.275 259.6134667298341 470.7 260.5202924753154 457.5 261.0254058369667 C437.3659080305156 261.7958602974594 432.1308242391924 262.3197451187102 425 264.2777428327701 C417.5039576028671 266.3360229678229 416.32283101125876 266.976879119227 415 269.7035469418072 C414.175 271.4040672157371 411.6013289482205 274.30393653861995 409.2807309960455 276.14770099265803 C406.40888139383713 278.4294466129765 404.69218131773584 280.77739606124493 403.90510748135205 283.5 C403.26911250044566 285.7 402.1774306648499 288.85 401.4791478466949 290.5 C400.7808650285399 292.15 399.7211219574904 296.65 399.12416324436276 300.5 C397.96301375002986 307.98866790093393 397.6580285746333 337.62741616892754 398.6148041430396 350 C399.80861237668415 365.4377817920218 400.82109615708146 410.509639833546 401.4003114246252 474 C401.7289633642041 510.025 402.2537103210959 550.2053198930461 402.56641577327366 563.2895997623245 C403.0366212039881 582.9640231171943 403.4614503015088 588.0281276768978 405.0223285208048 592.5648989722602 C407.5293615835693 599.8517170565075 412.29258317731257 608.6234595793335 416.27075341833586 613.2795109311271 C419.52477619179706 617.0880199227495 420.1323146118214 617.3715033882901 440.4251524333571 624.5501935993174 C444.2339862717035 625.8975871196928 448.50898627170346 627.0066273946454 449.9251524333571 627.0147275436564 C451.3413185950107 627.0228276926674 455.16351101667067 627.8608215384876 458.4189133703793 628.8769360899232 Z"/><path id="path-1637" class="outline" d="M456.70120988102417 618.4443146845038 C453.5118753155875 619.2999416080266 450.8118753155875 619.9538882661817 450.70120988102417 619.8975294804038 C450.59054444646085 619.841170694626 448.025 619.2258323112402 445 618.5301108506576 C441.975 617.8343893900749 438.3650951891923 616.8056456264791 436.97798930931623 616.2440135982222 C435.59088342944017 615.6823815699654 432.5108073019164 613.5977199533513 430.13337569259676 611.6114322279686 C427.75594408327714 609.6251445025858 425.39329450454443 608 424.883043295413 608 C424.3727920862816 608 422.00131204473126 606.1988640537568 419.61308764752346 603.997475675015 C417.07108112663883 601.6543358845066 414.074606620381 597.4048447890472 412.38543073539097 593.747475675015 C409.60708095467714 587.7318494952582 409.4931766342968 586.8876700173386 409.3161358462089 571 C409.21501056162384 561.925 408.6584244918348 527.95 408.0792779133444 495.5 C407.2606334070997 449.6307585777619 406.7334755164408 364.21654406957066 407.11647995967473 339.5 C407.14204815114834 337.85 406.65075078830495 330.2 406.0247080422449 322.5 C405.39866529618484 314.8 405.15143756633336 306.7554537317007 405.47531308701934 304.62323051489045 C405.79918860770533 302.49100729808026 406.72473769431565 299.8033794885478 407.5320888350424 298.6507242714851 C408.33943997576904 297.4980690544224 408.99999999999994 295.83355663474094 409 294.9518077833041 C409 294.07005893186727 410.14834018396454 292.26981846504805 411.5518670754768 290.9512734125948 C412.95539396698905 289.63272836014147 414.90533665487965 286.7417870481222 415.88507304856705 284.5269593858853 C417.787817589158 280.2255459956876 423.6460590997208 274.46526571865905 427.67619040646156 272.93301252685876 C429.02589531019953 272.4198556370865 432.2960170477232 272.00000000000006 434.94312760095863 272 C438.74676278385544 271.9999999999999 440.0530497857686 271.55270329069776 441.1723049114868 269.8670150521455 C442.4909505091388 267.88102872632487 443.5847969632157 267.7117548427348 457.0442769717025 267.4108107641925 C464.99492463726614 267.2330401271382 494.9 266.3958243488827 523.5 265.550331256958 C552.1 264.70483816503327 587.65 264.00628126113673 602.5 263.9979825816324 C617.35 263.98968390212804 634.675 263.47302166080976 641 262.84984426759183 C648.7894442324045 262.08238093931254 684.0820486442401 261.75310698285745 750.3811752623562 261.8293366303524 C836.402194411367 261.9282421861474 848.5451153337365 262.1271534177074 850.5959919680122 263.47093939948184 C853.5806412128494 265.42655669439665 859.3876384062398 265.44277686888404 861 263.5 C861.6846891869864 262.67499999999995 862.6760288816625 261.99999999999994 863.2029770992804 261.99999999999994 C863.7299253168982 261.99999999999994 866.4873251949492 263.49662269187377 869.3305323838382 265.32582820416394 C872.1737395727272 267.15503371645417 875.625 269.3435133631208 877 270.1891163078675 C880.3972163499076 272.2783498710847 887.9941206785466 285.84519191629266 889.5750481174641 292.6461177574423 C890.5711373465193 296.93115248529165 890.9932284260807 326.604716419646 891.441238831964 423.84180551743987 C891.7596656645571 492.953812482848 892.2451287018405 556.475 892.5200455814825 565 C892.922717886875 577.4866156197531 892.735076442613 580.9860297387495 891.5548708745557 583 C890.749107906104 584.375 889.0122470474912 587.7656032585189 887.6951800776385 590.5346739078199 C885.4853450906974 595.1807468427603 880.0659485669408 601 877.9489548642914 601 C877.455277849786 601 876.3327963997689 602.3895493448915 875.4545516420313 604.0878874330924 C873.2768854988714 608.2990293974823 865.3956565288033 611.7502884436424 854.8861181674376 613.0949842150962 C850.2737531753469 613.6851364642251 838.85 614.0614666174031 829.5 613.9312734443806 C820.15 613.801080271358 794.2390109935637 614.0346346002664 771.9200244301416 614.4502830641768 L731.3400488602831 615.206007544014 L726.4200244301416 612.7356508030001 C719.5453090462082 609.283838778001 707.7277586700341 608.33826614801 699.1041754754935 610.5499931739403 C693.470517297466 611.9948814258546 687.3334560486369 612.1251750789318 647.6041754754935 611.643370421031 C622.7968789639722 611.342527545531 599.35 610.8110601737969 595.5 610.4623318171776 C591.65 610.1136034605584 586.7600071326723 609.174557378864 584.6333491837163 608.3755627467459 C581.2031558582639 607.0868242095922 580.4976721082941 607.0991180089275 578.3833491837163 608.4844755967563 C577.0725071326723 609.34337229638 576 610.4793472971966 576 611.0088644874597 C576 611.5383816777229 574.3125 613.0607909953056 572.25 614.3919963043104 L568.5 616.8123695934099 L515.5 616.8504994812087 C470.783308869373 616.8826700928227 461.5937137806765 617.1317656326263 456.70120988102417 618.4443146845038 Z"/></svg>