<?xml version="1.0" encoding="UTF-8" standalone="no"?>
<svg
   version="1.0"
   viewBox="400.66577 181.41473 661.17744 249.56541"
   width="3.4436326in"
   height="1.2998198in"
   id="svg1"
   sodipodi:docname="Mini-USB.svg"
   inkscape:version="1.3.2 (091e20ef0f, 2023-11-25, custom)"
   xmlns:inkscape="http://www.inkscape.org/namespaces/inkscape"
   xmlns:sodipodi="http://sodipodi.sourceforge.net/DTD/sodipodi-0.dtd"
   xmlns="http://www.w3.org/2000/svg"
   xmlns:svg="http://www.w3.org/2000/svg">
  <defs
     id="defs1" />
  <sodipodi:namedview
     id="namedview1"
     pagecolor="#ffffff"
     bordercolor="#000000"
     borderopacity="0.25"
     inkscape:showpageshadow="2"
     inkscape:pageopacity="0.0"
     inkscape:pagecheckerboard="0"
     inkscape:deskcolor="#d1d1d1"
     inkscape:document-units="in"
     inkscape:zoom="0.81942541"
     inkscape:cx="215.39483"
     inkscape:cy="-198.91987"
     inkscape:window-width="1920"
     inkscape:window-height="984"
     inkscape:window-x="0"
     inkscape:window-y="30"
     inkscape:window-maximized="1"
     inkscape:current-layer="svg1" />
  <style
     id="svg-style">.outline { stroke: black; fill: none; stroke-width: 1px; }
.outline { stroke: black; fill: none; stroke-width: 1px; }
</style>
  <path
     id="path-1086"
     class="outline"
     d="m 1035.6854,429.85833 c 0.723,0.2892 1.3903,0.5614 1.4828,0.6049 0.092,0.043 0.88,-0.1942 1.75,-0.5281 0.87,-0.3338 1.5818,-1.4649 1.5818,-2.5136 0,-1.0486 0.4129,-2.6879 0.9176,-3.643 0.5047,-0.955 1.6252,-5.3364 2.4899,-9.7364 0.8648,-4.4 2.5039,-11.375 3.6427,-15.5 1.1387,-4.125 3.168,-12.8094 4.5096,-19.2988 1.3416,-6.4893 3.0512,-13.0143 3.7992,-14.5 0.748,-1.4856 1.6407,-4.8465 1.9837,-7.4684 0.3431,-2.622 1.3333,-6.1394 2.2005,-7.8164 0.8673,-1.6771 1.4373,-4.2568 1.2668,-5.7328 -0.2871,-2.4853 -0.656,-2.6836 -4.9933,-2.6836 -3.7156,0 -5.2654,-0.5548 -7.5,-2.685 -1.5492,-1.4768 -5.5391,-4.0321 -8.8664,-5.6785 -5.7756,-2.8578 -22.5919,-8.1365 -25.9203,-8.1365 -1.1691,0 -1.561,-0.9723 -1.5114,-3.75 0.1281,-7.1744 -0.9907,-17.5925 -2.54,-23.6522 -0.8575,-3.3538 -2.9576,-9.1353 -4.6669,-12.8478 -2.8583,-6.2082 -3.3568,-6.7508 -6.2097,-6.7604 -2.80637,-0.01 -3.36429,-0.5743 -5.85482,-5.9274 -2.27049,-4.8802 -2.57215,-6.3923 -1.72158,-8.6294 0.80302,-2.1121 0.69298,-3.0863 -0.49714,-4.4014 -0.84063,-0.9289 -1.52673,-2.1034 -1.52467,-2.6101 0.007,-1.8193 8.78233,-4.3775 25.19481,-7.3453 11.8037,-2.1343 18.3105,-3.8338 22.1972,-5.7977 5.7323,-2.8964 6.8813,-5.0973 4.2808,-8.1996 -0.7279,-0.8683 -2.5294,-5.8537 -4.0034,-11.0787 -5.1439,-18.2343 -7.5783,-27.5405 -8.6722,-33.1514 l -1.1019,-5.6514 -5.145,-1.6828 c -5.9415,-1.9434 -11.8326,-1.426 -18.5593,1.63 -2.3679,1.0757 -8.44286,2.8892 -13.49998,4.03 -14.74244,3.3254 -15.49969,3.3575 -18.24962,0.7741 -1.43038,-1.3438 -4.89869,-2.793 -8.42162,-3.519 l -5.98969,-1.2344 -21.76693,7.2882 c -11.9718,4.0085 -26.94192,9.3164 -33.26692,11.7953 -6.325,2.479 -13.679,5.2391 -16.34221,6.1337 -2.66322,0.8946 -6.26322,2.6914 -8,3.9928 -1.73679,1.3014 -5.63279,3.7871 -8.65779,5.5238 -3.025,1.7367 -8.65,5.1719 -12.5,7.6338 -3.85,2.4619 -8.12418,4.9488 -9.49817,5.5264 -1.37399,0.5775 -3.24824,1.7289 -4.165,2.5586 -0.91676,0.8296 -7.59561,3.2555 -14.84189,5.3908 -9.7711,2.8793 -15.80003,4.0409 -23.335,4.4962 -5.58797,0.3376 -13.53494,1.2295 -17.65994,1.9821 -4.125,0.7525 -9.975,1.66 -13,2.0166 -3.025,0.3566 -10.675,1.5094 -17,2.5618 l -11.5,1.9134 -6.29266,-3.1756 c -3.95722,-1.997 -8.33418,-3.3448 -11.79341,-3.6317 -6.05988,-0.5025 -17.06305,1.387 -19.41393,3.3339 -2.71155,2.2456 -7.65544,2.6614 -12.68331,1.0668 -2.64918,-0.8402 -10.21669,-3.1766 -16.81669,-5.1919 -18.74273,-5.7233 -33.12075,-10.2848 -44,-13.9592 -17.91322,-6.05 -51.74566,-16.2604 -63,-19.0131 -10.55322,-2.5811 -19.48223,-4.0747 -39,-6.5238 -15.62112,-1.9601 -46.88385,0.8724 -61,5.5268 -8.86751,2.9238 -27.47615,11.862 -31.44702,15.1047 -1.40414,1.1467 -4.12798,3.0482 -6.05298,4.2256 -3.31322,2.0265 -18,17.3269 -18,18.7521 0,0.3674 -0.93064,1.975 -2.06809,3.5724 -1.44257,2.0259 -2.91787,2.9044 -4.87756,2.9044 -1.5452,0 -3.23271,0.5625 -3.75001,1.25 -1.84545,2.4526 -4.60693,20.06 -4.63814,29.5731 -0.0378,11.5192 2.19244,21.7282 6.92003,31.6769 5.38232,11.3266 7.62729,14.726 13.07773,19.8027 3.03601,2.8279 6.43378,7.3719 8.26315,11.0507 3.7995,7.6407 16.52281,21.6151 26.55306,29.1641 4.00647,3.0154 7.58632,5.4825 7.95522,5.4825 0.36889,0 2.3263,1.125 4.3498,2.5 2.02349,1.375 4.7292,2.5 6.01269,2.5 1.28348,0 3.13647,0.4297 4.11775,0.9548 0.98128,0.5252 5.1142,1.8413 9.18426,2.9248 9.86128,2.625 28.07765,3.6238 38.90011,2.1328 4.675,-0.6441 11.2,-1.5444 14.5,-2.0007 3.3,-0.4563 8.25,-1.572 11,-2.4792 28.68369,-9.4633 37.79932,-12.8044 48,-17.5935 5.5,-2.5822 15.4,-6.8318 22,-9.4434 6.6,-2.6116 14.69411,-6.1018 17.98691,-7.756 3.29279,-1.6542 8.69279,-4.0374 12,-5.296 3.3072,-1.2586 9.89921,-4.0958 14.64892,-6.3049 4.74971,-2.209 11.19734,-4.7611 14.32807,-5.6712 4.29292,-1.248 7.45529,-1.4808 12.86416,-0.9469 3.94457,0.3894 8.07194,1.191 9.17194,1.7813 1.1,0.5904 6.46139,1.1014 11.9142,1.1357 9.90099,0.062 9.91636,0.066 11.54315,2.9935 2.31588,4.167 5.7157,5.0105 12.38305,3.0723 6.4227,-1.8672 10.6596,-4.8597 10.6596,-7.5289 0,-1.6675 0.59415,-1.8216 5.25,-1.3615 11.33384,1.1198 19.16709,2.5144 21.65062,3.8545 1.42966,0.7714 9.12438,4.6372 17.09938,8.5905 22.74705,11.2762 26.7,13.7061 31.28599,19.2323 7.71066,9.2915 9.48971,10.5825 18.07084,13.1137 4.47874,1.3211 13.54317,3.3799 20.14317,4.5752 19.68253,3.5646 19.67803,3.5632 22.51866,7.0437 2.10768,2.5824 3.70245,3.3896 8.05468,4.0768 2.98466,0.4714 6.77666,1.4884 8.42666,2.2602 1.65,0.7718 5.14954,2.3566 7.77675,3.5217 8.40512,3.7275 22.86664,2.2942 26.75733,-2.6521 1.94671,-2.4748 2.10292,-2.4998 8.72406,-1.3982 3.70802,0.6169 12.14186,2.6466 18.74186,4.5104 6.6,1.8638 17.625,4.613 24.5,6.1092 12.39386,2.6974 18.28526,4.4744 35.33416,10.6577 6.5535,2.3769 9.0539,3.782 9.6854,5.4428 0.4681,1.2314 1.4427,2.4755 2.1658,2.7648 z" />
  <path
     id="path-1087"
     class="outline"
     d="m 1038.4304,410.79213 c -0.6874,3.1625 -1.7405,5.729 -2.3401,5.7032 -0.5997,-0.026 -3.3403,-0.9254 -6.0903,-1.9992 -2.75,-1.0739 -7.025,-2.3677 -9.5,-2.8752 -2.475,-0.5075 -8.775,-1.8965 -14,-3.0866 -5.225,-1.1902 -11.29996,-2.5182 -13.49996,-2.9511 -10.1031,-1.9884 -40.34035,-10.3102 -45.86092,-12.6217 -8.38949,-3.5128 -9.25645,-3.7323 -12.01244,-3.0405 -1.46315,0.3672 -2.65192,1.5857 -3.03462,3.1105 -0.34605,1.3787 -2.39156,3.6731 -4.54558,5.0986 -3.86896,2.5603 -3.98079,2.573 -9.23142,1.0451 -2.92326,-0.8506 -6.86495,-2.6911 -8.7593,-4.0899 -1.89435,-1.3987 -4.4662,-2.5432 -5.7152,-2.5432 -1.24901,0 -3.85857,-1.394 -5.79902,-3.0977 -3.09187,-2.7147 -4.79628,-3.2748 -13.7848,-4.5301 -5.64118,-0.7878 -11.8317,-1.8436 -13.7567,-2.3462 -1.925,-0.5027 -7.195,-1.4082 -11.71111,-2.0123 -4.51611,-0.6041 -10.38577,-1.7442 -13.04368,-2.5335 -2.65792,-0.7893 -6.69796,-3.0318 -8.97788,-4.9834 -2.27992,-1.9515 -4.92194,-5.3085 -5.87115,-7.4599 -1.43431,-3.2509 -2.75378,-4.3678 -7.81101,-6.6116 -3.34684,-1.485 -14.62886,-7.195 -25.07115,-12.6888 -19.95338,-10.4979 -19.90136,-10.4811 -38.41162,-12.3926 -4.98281,-0.5146 -6.64139,-0.3416 -7.5,0.782 -1.68437,2.2042 -8.45473,5.8741 -10.83673,5.8741 -1.16601,0 -3.27779,-1.3579 -4.69284,-3.0176 l -2.57283,-3.0175 -13,-0.346 c -7.15,-0.1904 -17.82763,-1.0995 -23.72808,-2.0203 l -10.72807,-1.6742 -13.27193,4.9317 c -7.29955,2.7123 -14.32229,5.2467 -15.60608,5.6318 -1.28379,0.3852 -7.13379,3.0776 -13,5.9831 -21.10321,10.4525 -44.69651,20.0878 -53.86888,21.9997 -1.76167,0.3672 -4.23667,1.4694 -5.5,2.4493 -1.26333,0.98 -3.35981,2.3417 -4.65885,3.026 -4.73404,2.4937 -27.02127,9.9126 -31.76482,10.5737 -2.68031,0.3736 -7.12329,1.2899 -9.87329,2.0362 -7.55649,2.0508 -28.95444,3.7694 -37.4017,3.0039 -4.11694,-0.373 -9.96102,-1.5484 -12.98685,-2.6119 -3.02583,-1.0635 -6.91441,-3.3031 -8.64129,-4.9768 -1.86641,-1.809 -4.66331,-3.2905 -6.89634,-3.6528 -6.7408,-1.0939 -14.57717,-6.3059 -24.41,-16.2351 -8.77234,-8.8583 -13.08765,-15.1713 -13.14186,-19.2256 -0.0121,-0.9034 -2.22902,-3.3256 -4.92654,-5.3828 -2.69752,-2.0571 -6.99057,-6.5812 -9.54012,-10.0535 -5.48664,-7.4725 -11.10135,-19.2062 -12.65346,-26.4434 -0.61118,-2.8498 -0.93225,-10.1982 -0.71349,-16.3297 l 0.39774,-11.1482 9.19634,-13.6081 c 6.94634,-10.2787 11.02581,-15.1878 16.67388,-20.065 8.18393,-7.0669 27.27561,-18.4454 32.65318,-19.4611 1.86478,-0.3522 4.06551,-1.1898 4.89051,-1.8613 2.31283,-1.8826 18.95604,-5.4546 31.24427,-6.7057 8.29936,-0.8449 14.97703,-0.8331 26.7505,0.047 13.12852,0.9817 28.82423,3.5715 46.50523,7.6734 6.69724,1.5537 50.04544,14.9568 65,20.0977 8.8,3.0252 21.4,7.3398 28,9.588 11.42173,3.8906 15.42165,5.9132 21.82391,11.0355 3.8954,3.1166 10.06898,2.8912 15.99909,-0.5841 2.49323,-1.4611 5.22963,-2.6566 6.0809,-2.6566 0.85127,0 3.02114,-0.8983 4.82193,-1.9963 2.2488,-1.3711 4.99659,-1.987 8.77417,-1.9667 4.48901,0.024 6.23526,0.5708 9.5,2.9748 6.07103,4.4704 7.69106,4.961 12.61519,3.821 8.73008,-2.0211 38.39486,-6.2867 54.38481,-7.8202 12.17931,-1.168 32.76167,-6.047 41.71427,-9.8882 2.59285,-1.1125 10.24285,-5.3638 17,-9.4473 14.62803,-8.8401 19.2023,-11.1992 23.52426,-12.132 1.7812,-0.3844 3.50352,-1.1277 3.82738,-1.6518 1.20378,-1.9477 20.32937,-10.7406 31.93409,-14.6814 33.04556,-11.222 36.02637,-11.6494 44.2846,-6.3501 3.71714,2.3853 6.03426,3.2276 7.97714,2.9 1.50604,-0.254 8.21472,-2.0819 14.90817,-4.062 6.69346,-1.9801 17.04345,-4.2863 22.99995,-5.125 9.8045,-1.3803 10.9416,-1.3763 12.0078,0.042 0.6477,0.8619 1.4809,3.4382 1.8515,5.7249 0.3706,2.2868 1.4692,7.3078 2.4413,11.1578 0.972,3.85 2.2475,9.25 2.8344,12 0.5868,2.75 1.6161,7.3048 2.2872,10.1218 0.6712,2.817 0.9443,5.8411 0.6069,6.7202 -0.3373,0.8791 -1.6451,1.7886 -2.9062,2.0212 -1.261,0.2325 -7.9178,1.3983 -14.7928,2.5907 -6.875,1.1923 -14.525,2.6572 -16.99996,3.2552 -2.475,0.598 -6.975,1.6166 -10,2.2635 -4.50846,0.9642 -5.55953,1.5831 -5.83018,3.433 -0.1929,1.3183 0.41433,2.8011 1.46043,3.566 1.53174,1.12 1.61562,1.6934 0.58018,3.9659 -0.66574,1.4611 -1.21043,3.7308 -1.21043,5.0436 0,1.3129 1.16755,5.2292 2.59455,8.703 4.81512,11.7214 6.47027,16.0743 10.19663,26.8159 0.8586,2.475 2.04433,4.847 2.63496,5.2712 0.59062,0.4241 2.53632,0.5163 4.32382,0.2047 l 3.25,-0.5665 v 4.9863 c 0,2.7424 -0.45,5.2644 -1,5.6043 -0.55,0.3399 -1,1.9149 -1,3.5 0,1.5851 0.45,3.1601 1,3.5 0.55,0.3399 1,2.0949 1,3.8999 0,3.1804 0.1777,3.3213 5.75,4.5599 11.8491,2.6336 18.2199,5.0646 19.8691,7.5816 1.2343,1.8838 2.4826,2.4586 5.3394,2.4586 3.2453,0 4.2747,0.6479 7.9445,5 2.3188,2.75 4.9115,5 5.7616,5 1.2074,0 1.4369,0.8202 1.0492,3.75 -0.7897,5.9668 -7.1019,32.2567 -10.6244,44.25 -1.05,3.575 -2.4715,9.0875 -3.159,12.25 z" />
  <path
     id="path-1088"
     class="outline"
     d="m 492.57924,318.69733 c 1.40896,2.7618 2.6036,3.8448 4.24123,3.8448 1.25388,0 8.33223,-0.4569 15.72968,-1.0153 9.14624,-0.6904 15.84971,-1.7883 20.94989,-3.4312 4.125,-1.3288 21.45,-6.9164 38.5,-12.4168 41.97069,-13.5401 51.05814,-16.1367 56.47472,-16.1367 2.54391,0 5.16528,-0.54 5.82528,-1.2 1.78977,-1.7898 1.45529,-4.259 -0.86086,-6.3551 -1.39052,-1.2584 -3.38614,-1.8122 -6.13521,-1.7026 -2.61354,0.1043 -5.65519,-0.679 -8.48352,-2.1847 -2.42504,-1.2909 -5.22083,-2.1349 -6.21286,-1.8755 -0.99203,0.2594 -3.50201,-0.2379 -5.57774,-1.1052 -2.07573,-0.8673 -4.62521,-1.5769 -5.6655,-1.5769 -1.0403,0 -2.67284,-0.4318 -3.62788,-0.9596 -1.73576,-0.9592 -7.7596,-2.4511 -16.23643,-4.0213 -2.475,-0.4585 -8.8556,-1.778 -14.1791,-2.9324 -11.94277,-2.5897 -18.47888,-3.2788 -31.3209,-3.3024 -10.70967,-0.02 -16.757,0.478 -25.5,2.0987 -6.67649,1.2377 -10.05588,2.2705 -16.19347,4.9491 -4.14747,1.8101 -4.76719,2.4916 -5.32714,5.8581 -0.34852,2.0954 -1.02712,5.0518 -1.50801,6.5698 -0.48088,1.5181 -1.16322,5.3431 -1.5163,8.5 -0.51064,4.5657 -0.0994,7.6641 2.01035,15.1452 1.45878,5.1729 3.53498,11.1354 4.61377,13.25 z" />
  <path
     id="path-1089"
     class="outline"
     d="m 523.31045,314.40433 c -6.22072,1.0858 -13.60412,2.2423 -16.40754,2.5701 -4.27174,0.4995 -5.54301,0.2453 -7.85056,-1.5698 -1.51438,-1.1912 -3.5467,-4.0165 -4.51627,-6.2784 -0.98771,-2.3042 -2.07953,-8.3365 -2.48304,-13.7186 -0.64331,-8.5805 -0.49005,-10.1411 1.43551,-14.6171 1.63499,-3.8007 3.04411,-5.4377 5.8336,-6.7769 2.02284,-0.9712 4.38576,-2.1036 5.25094,-2.5166 0.86518,-0.413 7.46333,-1.5025 14.66255,-2.4212 18.61522,-2.3754 31.39389,-1.6102 54.7644,3.2793 2.2,0.4602 4.98292,1.3656 6.18426,2.0119 1.20134,0.6463 3.45134,1.1846 5,1.1962 1.54866,0.012 5.96574,1.1346 9.81574,2.4956 3.85,1.361 8.125,2.4743 9.5,2.474 3.63888,-9e-4 12,3.2031 12,4.5984 0,0.6568 -1.2375,1.4942 -2.75,1.861 -4.77484,1.1581 -25.53888,7.5876 -30.75,9.5217 -2.75,1.0207 -14.76031,5.0194 -26.68959,8.886 -12.36824,4.0089 -26.55036,7.8787 -33,9.0044 z" />
</svg>
