<?xml version="1.0" encoding="UTF-8" standalone="no"?>
<svg
   version="1.0"
   viewBox="378.14456 479.46097 1166.208 466.18676"
   width="6.0739999in"
   height="2.428056in"
   id="svg1"
   sodipodi:docname="Mini_keyboard.svg"
   inkscape:version="1.3.2 (091e20ef0f, 2023-11-25, custom)"
   xmlns:inkscape="http://www.inkscape.org/namespaces/inkscape"
   xmlns:sodipodi="http://sodipodi.sourceforge.net/DTD/sodipodi-0.dtd"
   xmlns="http://www.w3.org/2000/svg"
   xmlns:svg="http://www.w3.org/2000/svg">
  <defs
     id="defs1" />
  <sodipodi:namedview
     id="namedview1"
     pagecolor="#ffffff"
     bordercolor="#000000"
     borderopacity="0.25"
     inkscape:showpageshadow="2"
     inkscape:pageopacity="0.0"
     inkscape:pagecheckerboard="0"
     inkscape:deskcolor="#d1d1d1"
     inkscape:document-units="in"
     inkscape:zoom="0.86305029"
     inkscape:cx="282.13883"
     inkscape:cy="210.87995"
     inkscape:window-width="1920"
     inkscape:window-height="984"
     inkscape:window-x="0"
     inkscape:window-y="30"
     inkscape:window-maximized="1"
     inkscape:current-layer="svg1" />
  <style
     id="svg-style">.outline { stroke: black; fill: none; stroke-width: 1px; }
.outline { stroke: black; fill: none; stroke-width: 1px; }
</style>
  <path
     id="path-1292"
     class="outline"
     d="m 1543.2843,717.06817 c 0.4713,-1.375 0.6943,-14.2 0.4954,-28.5 -0.3484,-25.0522 -0.4582,-26.2793 -3.0112,-33.6625 l -2.6495,-7.66253 -0.019,-51.33747 c -0.01,-28.23561 0.043,-52.23747 0.1193,-53.33747 0.2509,-3.6247 -2.8387,-16.89942 -5.2368,-22.5 -2.6201,-6.1192 -7.3019,-14.49497 -9.7221,-17.39279 -1.9593,-2.34595 -14.354,-10.39811 -19.0808,-12.39568 -1.925,-0.81352 -7.775,-2.59855 -13,-3.96674 l -9.5,-2.48761 -226.5,-0.29215 c -207.9119,-0.26817 -465.54748,-1.44456 -711.9337,-3.25077 -53.58853,-0.39284 -101.96353,-0.43092 -107.5,-0.0846 -7.77532,0.48635 -11.83729,1.31824 -17.84761,3.65518 -4.27971,1.66403 -9.3053,4.18794 -11.16799,5.60868 -1.88237,1.43576 -3.66826,3.86511 -4.02059,5.46924 -0.34863,1.58735 -1.78426,3.9551 -3.19028,5.26167 -5.34416,4.96587 -11.11069,14.49163 -13.84832,22.87557 -1.52655,4.675 -3.54674,9.625 -4.48933,11 -0.94259,1.375 -1.99506,4.3248 -2.33881,6.55511 -0.4423,2.86971 -0.1724,4.7013 0.92329,6.26562 1.14245,1.63108 1.47894,4.24489 1.28372,9.97174 -0.14552,4.26867 0.1224,8.38736 0.59536,9.15263 0.93695,1.51602 0.88546,251.48137 -0.0593,288.05487 -0.40741,15.7711 -0.99024,23.414 -1.94887,25.5561 -1.14156,2.5509 -1.15136,3.9559 -0.0593,8.5 0.71959,2.9941 2.49854,8.0857 3.95324,11.3146 3.4534,7.6653 10.4743,17.4328 16.00799,22.2704 6.29035,5.4991 14.59639,10.2609 20.79803,11.9235 9.64988,2.587 29.28482,3.6691 89.34218,4.9239 15.4,0.3218 36.325,0.7859 46.5,1.0313 30.3834,0.7331 200.87498,1.6022 409.99998,2.0901 266.00541,0.6206 391.41711,1.1858 398.00001,1.7937 3.025,0.2793 12.025,0.8653 20,1.3021 12.1314,0.6646 15.8885,0.5081 23,-0.9578 4.675,-0.9637 11.1749,-2.6512 14.4442,-3.75 3.2693,-1.0988 6.8693,-1.9852 8,-1.9696 1.1307,0.015 4.9808,-1.4185 8.5558,-3.1867 3.575,-1.7682 7.625,-3.6934 9,-4.2783 3.7475,-1.5939 27.1321,-16.9437 29.9817,-19.6801 1.3649,-1.3108 5.4149,-5.0611 9,-8.3342 3.585,-3.2731 7.8683,-7.6222 9.5183,-9.6647 1.65,-2.0425 5.6184,-6.9168 8.8187,-10.8317 7.8626,-9.6184 12.5374,-16.8112 18.0128,-27.7153 4.9419,-9.8419 11.7643,-28.627 14.1805,-39.0454 0.8184,-3.5288 1.488,-8.8065 1.488,-11.7282 0,-2.9217 0.642,-7.132 1.4268,-9.3561 1.1531,-3.2683 1.2006,-4.8747 0.2478,-8.3757 -0.7562,-2.7783 -1.1551,-12.5804 -1.1124,-27.3319 0.053,-18.3981 0.4286,-24.6006 1.8761,-31 0.9953,-4.4 2.1953,-9.125 2.6667,-10.5 z" />
  <path
     id="path-1293"
     class="outline"
     d="m 1536.8305,666.56817 c 1.3556,7.0478 1.7554,13.7601 0.8721,14.6434 -0.2622,0.2622 -0.5293,8.8655 -0.5935,19.1183 -0.1163,18.5705 -0.1273,18.6583 -2.8927,23.0188 l -2.776,4.3772 0.3342,33.7096 c 0.1838,18.5403 0.5714,34.0934 0.8613,34.5625 0.7872,1.2737 -1.9969,18.4389 -4.4718,27.5702 -3.1523,11.6312 -15.0014,34.9395 -24.5562,48.3047 -12.4204,17.3734 -30.1435,34.4353 -46.7406,44.9966 -7.7763,4.9484 -23.3976,12.1987 -26.2828,12.1987 -1.3962,0 -3.9711,1.0735 -5.7219,2.3855 -1.7508,1.3121 -5.6583,3.083 -8.6833,3.9354 -8.4172,2.3718 -22.5136,3.5268 -31,2.5399 -7.4701,-0.8687 -69.7861,-1.16 -504.00003,-2.3561 -125.675,-0.3462 -249.65,-1.018 -275.5,-1.4929 -95.45657,-1.7538 -142.55737,-2.9748 -143.82137,-3.7284 -0.45175,-0.2693 -6.87756,-0.4401 -14.27958,-0.3796 -13.159,0.1077 -20.36743,-0.8796 -25.39905,-3.4787 -1.375,-0.7102 -5.11239,-2.4329 -8.30531,-3.8282 -7.52735,-3.2894 -17.75303,-13.0881 -22.48071,-21.5419 l -3.61453,-6.4634 0.0119,-27.0458 c 0.0152,-34.7499 1.23142,-185.3229 2.01965,-250.04577 0.3349,-27.5 0.98741,-50.99566 1.45001,-52.21258 0.49476,-1.30154 0.40696,-3.45792 -0.21324,-5.23703 -0.59488,-1.70649 -0.77941,-5.53576 -0.42345,-8.78741 0.82786,-7.56235 0.83943,-12.84953 0.0389,-17.80061 -0.51991,-3.21575 -0.15545,-4.94597 1.79046,-8.5 9.24243,-16.8805 12.35128,-21.15017 16.71649,-22.9583 2.39779,-0.99319 3.15148,-2.03772 3.63011,-5.03087 0.516,-3.22691 1.27994,-4.14024 5.24188,-6.26689 2.55081,-1.36921 7.09531,-3.00387 10.09889,-3.63259 3.82317,-0.80028 28.11656,-1.13729 81,-1.12365 41.54642,0.0107 96.46395,0.26661 122.03895,0.56865 25.575,0.30204 125.42904,0.99846 221.89787,1.5476 96.46885,0.54914 175.85286,1.27959 176.40886,1.62323 0.556,0.34364 24.227,0.56399 52.6021,0.48967 71.6938,-0.18779 341.8888,0.0262 374.0912,0.29629 14.575,0.12224 27.9525,0.54882 29.7279,0.94796 1.7753,0.39915 5.3753,1.81527 8,3.14694 2.6246,1.33167 5.3089,2.4231 5.9649,2.4254 1.7489,0.006 8.3516,3.92606 11.8072,7.00973 1.65,1.47242 4.4364,3.66055 6.1919,4.86251 3.9872,2.72989 8.411,10.37364 11.6515,20.13195 l 2.4906,7.5 -0.2225,58.30523 c -0.2151,56.34214 -0.1566,58.41274 1.7354,61.50004 1.0768,1.7571 2.5638,6.3447 3.3043,10.1947 z" />
</svg>
