<?xml version="1.0" encoding="UTF-8" standalone="no"?>
<svg
   version="1.0"
   viewBox="402 658.1629028320312 892.8067626953125 708.2879028320312"
   width="4.650035222371419in"
   height="3.688999493916829in"
   id="svg1"
   sodipodi:docname="RPi5_Power_Adapter_USB-C.svg"
   inkscape:version="1.3.2 (091e20ef0f, 2023-11-25, custom)"
   xmlns:inkscape="http://www.inkscape.org/namespaces/inkscape"
   xmlns:sodipodi="http://sodipodi.sourceforge.net/DTD/sodipodi-0.dtd"
   xmlns="http://www.w3.org/2000/svg"
   xmlns:svg="http://www.w3.org/2000/svg">
  <defs
     id="defs1" />
  <sodipodi:namedview
     id="namedview1"
     pagecolor="#ffffff"
     bordercolor="#000000"
     borderopacity="0.25"
     inkscape:showpageshadow="2"
     inkscape:pageopacity="0.0"
     inkscape:pagecheckerboard="0"
     inkscape:deskcolor="#d1d1d1"
     inkscape:document-units="in"
     inkscape:zoom="1.4314407"
     inkscape:cx="223.2017"
     inkscape:cy="176.74501"
     inkscape:window-width="1920"
     inkscape:window-height="984"
     inkscape:window-x="0"
     inkscape:window-y="30"
     inkscape:window-maximized="1"
     inkscape:current-layer="svg1" />
  <style
     id="svg-style">.outline { stroke: black; fill: none; stroke-width: 1px; }
.outline { stroke: black; fill: none; stroke-width: 1px; }
</style>
  <path
     id="path-1769"
     class="outline"
     d="M667.2858955801855 1365.9533279956295 C669.7999648695062 1366.93247695299 675.2006463989322 1366.4878808437975 685.8569642508669 1364.424516339258 C689.9032945888438 1363.6410323526661 694.5029753834492 1363 696.0784771277679 1363 C698.0628627253903 1363 703.3130432671744 1360.0042088135567 713.1655359701992 1353.25 C723.3223167520791 1346.2871916689392 728.261645507092 1342.2192593536154 730.4440230932983 1339.019783787599 C732.1248103919843 1336.5556648707782 736.425 1331.534669242083 740 1327.8620157238317 C744.6411422695643 1323.0940975462038 748.9308139551852 1319.9228522702 755 1316.7728968759934 C759.675 1314.3465350279337 765.8898414415889 1311.042530656629 768.8107587590865 1309.4306649397606 C776.108164804839 1305.4036976042753 796.901631155415 1283.9309296453805 805.4514723774614 1271.592936101736 C813.9056975370322 1259.3929229405164 820.9588616842698 1246.057708952047 824.5414849637926 1235.5 C826.0345685959991 1231.1 828.123920815777 1225.78067940401 829.1844898966324 1223.679287564467 C830.2450589774879 1221.5778957249238 834.2425409791555 1216.4831418541996 838.0677832336714 1212.357612296191 C841.8930254881875 1208.2320827381825 845.7543028295145 1203.4264033341724 846.6483995477315 1201.6783247317242 C847.5424962659486 1199.930246129276 849.5099544413886 1196.925 851.0205288264872 1195 C852.5311032115859 1193.075 855.4727031054628 1188.35 857.5574174795469 1184.5 C863.5270724195299 1173.4753858827632 864.7635318934981 1172 868.0331469854143 1172 C869.6264741956901 1172 872.9038448675757 1172.6701019493628 875.3161929229378 1173.4891154430284 C877.7285409783 1174.308128936694 885.9199108089556 1175.4225736597307 893.5192369910616 1175.965659271999 C906.0708348939024 1176.8626588307309 908.0936591730913 1176.7666179425248 915.6072610721295 1174.9169505565228 C920.1563481346109 1173.7970751507426 927.2930150431395 1171.11379081177 931.4665208688596 1168.9540964699172 C935.6400266945798 1166.7944021280643 941.8549027914264 1162.7369916822386 945.2773566396299 1159.9376288125263 C952.2398320909729 1154.2427396703386 958.397096945922 1147.311698337207 968 1134.359456679466 C971.575 1129.5375540042369 976.8014447810609 1123.0965797023998 979.614321735691 1120.046180453161 C982.4271986903211 1116.9957812039224 985.2559286486462 1113.4867576998101 985.9003883097469 1112.2483504440227 C986.5448479708474 1111.0099431882352 988.5699661488061 1109.370866300514 990.4006509274327 1108.605957360198 C992.6238226682435 1107.6770568961435 993.9574703053478 1106.3055878105372 994.4166510909959 1104.4760658364703 C995.2553491328036 1101.134426671563 1001.6577400353408 1091.4314961716216 1007.9275978747497 1084 C1010.4797515092545 1080.975 1016.5663930636074 1073.4375 1021.4534679955341 1067.25 C1026.3405429274608 1061.0625 1030.941085752258 1056 1031.6768964950836 1056 C1033.1459858401547 1056 1044.0131973518135 1063.2679337487716 1059.5 1074.6079448938672 C1090.220372679988 1097.102540872551 1102.0557092573113 1105.7122445965128 1106.9103266471768 1109.0969400501644 C1109.886006303124 1111.171618360351 1115.9610063031241 1116.1816724418425 1120.4103266471768 1120.23039356459 C1124.8596469912295 1124.2791146873374 1130.1281152949375 1128.583571140065 1132.1180339887499 1129.795852348429 C1134.117207961995 1131.0137719787897 1137.3833816958957 1132 1139.4176939156341 1132 C1145.552392043551 1132 1154.356210619264 1126.3779931595848 1158.2091728140751 1120 C1161.163286664237 1115.109913625849 1164.098750793386 1112 1165.7604156646805 1112 C1167.4306649681973 1112 1201.6879583429459 1139.1673889348563 1204.2953981332635 1142.5597656204077 C1205.2828671065583 1143.8444996860417 1209.7285356289835 1147.9566254483004 1214.1746615164307 1151.6978228698713 C1235.8911585448313 1169.971192708001 1249.9123200028384 1181.384524537583 1253.940831857911 1184.0677873024406 C1258.7885446268056 1187.2966935674474 1264.5922613069197 1189.1911314959598 1269.4130563315762 1189.1182007696934 C1271.1108753492092 1189.0925155510952 1275.540312321302 1189.0442542387564 1279.2562496028936 1189.0109534089402 L1286.0124992057872 1188.9504064456385 L1289.4710340997533 1183.7252032228193 C1293.2753370833445 1177.9776087008954 1295.526444696672 1169.615218444486 1294.5980829339837 1164.6792975710084 C1293.6026251805547 1159.3866402241702 1288.450952898312 1149.6925353947238 1284.8715626520286 1146.3765209048738 C1283.0172031934128 1144.6586074025543 1278.35 1141.1356660656882 1274.5 1138.5477623785046 C1270.65 1135.9598586913212 1264.35 1131.3683035078661 1260.5 1128.3443064152711 C1256.65 1125.320309322676 1249.9 1120.1730639646573 1245.5 1116.9059833974518 C1233.978395496972 1108.3509810849812 1222.7153460489326 1099.2195745535007 1206.3565107542893 1085.1707845943042 C1195.0095869867898 1075.4261697839327 1192 1072.3183878461637 1192 1070.345858447492 C1192 1067.1503407751247 1201.3941749990017 1053.967353028189 1205.6674047097376 1051.1661828676747 C1207.8014799348841 1049.7672625554915 1209.3178042220275 1047.671303164298 1210.110942402225 1045.0240438571348 C1211.1787527151823 1041.4600106787584 1211.0991840498455 1040.765461956135 1209.407466838435 1038.883460096451 C1206.6217827896396 1035.7844418178856 1195.0992645602635 1028.4880369714206 1190.7489834109665 1027.0683476186261 C1186.1317652810824 1025.5615449101194 1179.6443519635868 1021.1799878498858 1166 1010.3530440467881 C1140.9156016852985 990.4482972612619 1130.6991231473967 982.4498855520688 1118.25 972.9698931208522 C1105.118595042342 962.9703439047396 1105 962.8440337674671 1105 958.8579261632675 C1105 955.5305797120632 1105.6890271695722 954.1158719941957 1108.988911726369 950.6679092025573 C1115.086718102563 944.2964713131844 1124.9073922435884 927.7567075731132 1128.0114009190859 918.6306506113931 C1130.8411236585546 910.3110182888038 1132.9920947626551 896.7588899515948 1132.99718302347 887.2178813690915 C1132.9987323605615 884.3127161220918 1132.325 880.3202603424945 1131.5 878.3457574144309 C1130.675 876.3712544863672 1130 873.515807992225 1130 872.0003207607814 C1129.9999999999998 870.4848335293378 1129.339771752367 868.6969486525843 1128.5328261163709 868.0272432568846 C1127.725880480375 867.3575378611849 1125.507860322575 864.0399377392359 1123.6038924323707 860.6547985414426 C1118.8973481436321 852.2868488297227 1110.1236047493599 841.8995381050127 1103.76030393663 837.1618024124359 C1100.8671367714835 835.0077220465535 1097.375 832.0030372596035 1096 830.4847251081029 C1093.0630905947887 827.2417103897111 1072.806520965313 810.9518741268382 1061.8591700260931 803.02950735276 C1054.7929411245198 797.9158266661112 1010.6282011393589 764.4788719072186 998 754.6819753663757 C992.5301225835701 750.4384712798882 986.531655241636 745.8468885464064 947.1268048150318 715.7406139663774 C887.6254541898718 670.2801191184082 882.42988241227 666.6879098776288 869.8543427745444 662.3145688492141 C865.9946722560268 660.9723079267359 858.8009518377647 659.3771869916194 853.8682974006288 658.7698556600664 C846.9702736852731 657.9205389318173 843.4685359476908 657.9553430272425 838.699917393827 658.9206155926381 C835.2899628272222 659.6108648871057 830.4739026511218 660.5413729373716 827.9975614469374 660.9884112598959 C822.6364591279322 661.9562173859333 809.2113975870659 668.1111086326202 803.2366709931456 672.3403583217626 C798.7044994472128 675.5484858905253 784.9031661265635 693.2414618049869 771.5202842070848 713 C767.5282527292937 718.8938505849645 758.139023828537 731.8492226029829 735.5376422759867 762.649286148616 C715.1922325118692 790.3750210617571 678.5739413813853 838.9301916570953 665.4148217898808 855.6308373410668 C661.0616698054464 861.1555571671145 655.7 868.2021360995285 653.5 871.2899016353201 C651.3 874.3776671711119 648.7849565081594 876.9256161132614 647.9110144625765 876.9520103956525 C646.6760473107149 876.9893081454458 646.0424544203613 875.1208273108391 645.0671792821279 868.5654713224592 C644.3770119784641 863.9264805498117 644.11808375527 858.7388532724483 644.4917832305857 857.0374107060961 C645.2916005407375 853.3958663457569 643.5128592942974 841.2012527862503 641.3502748443206 835.5 C640.5157765387161 833.3 638.6733021569229 829.9727649949498 637.2558873292246 828.1061444332216 C635.4872792657013 825.7770308156 634.554931142193 823.1103567660549 634.2840359133488 819.6061444332216 C633.6207806391151 811.0264905142404 633.1670873883 809.9677602757808 629.4965273495718 808.4341023668048 C625.2439246419267 806.6572515027683 609.9686484391173 806.5202762286126 605.2766638145476 808.2169198816127 C603.0471088940117 809.0231374009827 601.3987025447215 809.1075107373971 600.3924005527688 808.4669198816127 C599.5569884222697 807.9351139467257 594.3610042854085 795.8 588.8457691375218 781.5 C583.330533989635 767.2 578.431528643082 754.375 577.959090589626 753 C577.4866525361701 751.625 575.9217509710854 747.35 574.4815315561044 743.5 C573.0413121411234 739.65 571.1750737597214 734.475 570.3343351529888 732 C569.4935965462564 729.525 567.9494326158979 725.5924042870104 566.9028597521922 723.2608984155786 C565.8562868884865 720.9293925441469 565 718.1514189210245 565 717.0876236975289 C565 714.6663408185769 560.6191653325519 709.3715431295935 557.1177096418194 707.560870021453 C555.6634773801868 706.8088572925476 552.3164572528256 705.8700829728492 549.6798871365722 705.4747048665677 C546.4075112823757 704.9839818016668 544.454194818424 704.080502236512 543.5251535065887 702.6279177912097 C541.2086524673423 699.0059977169681 534.4384786965196 679.9824177590308 532.2748171644083 671.0154835754848 C531.5730569734917 668.1071555624425 530.509337538041 667.0580636958907 525.841942482965 664.6710695486898 C522.1180140643432 662.7665820915636 518.6212837401297 661.7792585925058 515.3749292104292 661.7156434189245 C511.32558381306274 661.6362929327138 509.3145291055559 662.333717122662 503.5 665.8338122854216 C499.65 668.151345852112 494.475 670.681261502309 492 671.4558470636373 C489.525 672.2304326249657 485.025 673.8178388865165 482 674.9834165337502 C478.975 676.1489941809838 474.475 677.798666771318 472 678.6493556233818 C469.525 679.5000444754455 463.7741135685719 681.9290309964849 459.2202523746043 684.0471034479137 C452.03209558736296 687.3904282044468 450.7249902686341 688.3992535080508 449.3058212703768 691.6990721343468 C448.4067453570193 693.789582460456 447.4766332541808 697.975 447.2389054862913 701 C446.84911105479756 705.9599933812376 447.23582710730585 707.3345556835419 451.17763181833175 715 C455.53776794398175 723.478953964883 458.2610231947165 729.6207153766965 459.42607796767084 733.6027322461839 C459.8219858858907 734.9558978189212 458.7493449984627 738.4259407420116 456.41703732796475 743.3371180033223 C453.5689175812342 749.3344489363575 452.8067366108482 752.1371179109934 452.8579473678693 756.4244967187021 C452.92375647226027 761.9340532246505 454.05830244324187 765.1837549963634 458.48037172648264 772.5289145799721 C460.92095576052316 776.5827812335713 465.79754871739163 793.8149097120724 467.98959123757834 806.1310818706983 C469.0462342318698 812.0679179074332 468.97430424683216 813.143217778446 467.30255273275975 816.4017974175683 C466.27556856159913 818.4035959394628 462.9748643085261 822.0715008640838 459.96765439259747 824.5526972500595 L454.5 829.0639634063791 L442.51194258610036 828.6774629276485 L430.5238851722007 828.290962448918 L424.1829106398361 834.3798790539429 C416.42547211677345 841.828954270134 409.5420942181801 851.9615085461023 407.95361734124566 858.2699222320433 C407.24216342226714 861.0953619375692 407.040799206721 865.1709782979757 407.4506032486634 868.4509390511579 C408.30018028722566 875.2507239680677 414.4797583134037 888.0681868419891 423.3777396629349 901.4864438725232 C427.01998284832075 906.9789880024109 430.00000000000006 912.2506553110914 430 913.2012601140352 C430 914.1518649169791 428.9875 915.4638667562019 427.75 916.1168197567526 C426.5125 916.7697727573035 421.17967777827073 920.3582617072717 415.89928395171273 924.091239645571 C407.6109084613771 929.9507122277387 406.0047780979359 931.5614050895327 404.14928395171273 935.8746176059574 C402.9671777782707 938.6224975458705 401.99999999999994 942.1891548759136 402 943.800522783831 C402 945.4118906917483 402.94180011930683 947.9275874499234 404.09288915401515 949.39096002422 C405.2439781887235 950.8543325985166 408.9564781887235 953.9311631937262 412.34288915401515 956.2283613469081 C420.7771251286261 961.9497907608088 456.29523153366887 996.1334077014423 459.91018279385145 1002.0084523839666 C461.52339039529613 1004.6302489334993 464.1864507978261 1011.6634002810066 465.82809479947366 1017.6376776006493 C470.2606399283563 1033.7686132999854 474.2947351865258 1046.7786107471256 479.96554329005227 1063.2310900018624 C485.02130529773007 1077.8991616469743 485.04037460157986 1078.0018316165304 484.4231592255962 1087.2310900018624 C483.98227092783304 1093.8237190539833 484.24369632945167 1098.5666484857409 485.32856809996593 1103.6575365959352 C486.1674698941523 1107.5941817236994 487.8992291692817 1112.366015515121 489.17692204469785 1114.2616116879833 C490.454614920114 1116.1572078608456 492.74822266224555 1119.4996573189596 494.2738281383235 1121.689277150459 L497.047656276647 1125.6704041168214 L495.57497499500056 1132.0852020584107 C492.12780345667045 1147.1006091013137 490.80074873199806 1163.2397121700353 490.73064376862476 1191 C490.6899159700687 1207.12746596241 491.15689388072286 1222.2219202304839 491.8598461522398 1227.5 C494.27487402119755 1245.6331083978932 501.48684083951645 1270.1858454098967 507.72564049080313 1281.5142080093603 C512.030775633979 1289.3314380323716 518.5471375990636 1298.454168391209 522.0014822231783 1301.5 C523.2490164189489 1302.6 526.7243073610769 1306.5639483345467 529.7243509834625 1310.3087740767703 C532.7243946058483 1314.053599818994 536.1879078912945 1317.5011434694106 537.4210471733429 1317.9699821888075 C538.6541864553914 1318.4388209082042 542.7764169113182 1320.8183074082337 546.5815592976246 1323.257729966651 C553.7066132010322 1327.8255004880539 564.282461150094 1333 566.4931983486159 1333 C567.1815302096528 1333 571.2896508880021 1334.1743686283453 575.6223554116143 1335.6097080629897 C581.4286269523534 1337.5332111464004 587.0497331504974 1338.4652983441795 597 1339.1545314726743 C609.8672685147635 1340.0458188992077 610.7097516942524 1340.238647729583 614.9752757504236 1343.26873990201 C617.4366774131565 1345.0172410974626 623.9616774131565 1348.0400240379313 629.4752757504236 1349.9860353252734 C638.4045851101572 1353.1376136121362 639.516550283821 1353.7960917345665 639.6514604494569 1356.012118832948 C639.7347636966582 1357.3804534748265 639.8472636966583 1359.0521261590657 639.9014604494569 1359.7269470201459 C639.9556572022556 1360.4017678812259 641.1405348040724 1361.7012011458605 642.5345217868277 1362.6145764971116 C644.3295294414688 1363.7907106844018 647.9872103457491 1364.3942668552188 655.0704173670131 1364.683132320361 C660.5711729533599 1364.907462671897 666.0681381492875 1365.479050725768 667.2858955801855 1365.9533279956295 Z" />
  <path
     id="path-1770"
     class="outline"
     d="M684.2007788970997 1358.8744015152552 C677.5034952866508 1360.2969600644167 664.8666269167034 1360.1942242672844 659 1358.6695230570365 C654.5449304844748 1357.5116771639016 654.4969892851623 1357.4533688723177 654.1984627045902 1352.8296725592074 C654.0326171921147 1350.2609924667715 653.2548598657531 1347.6264780457832 652.4701130904533 1346.9751960681224 C651.6853663151535 1346.3239140904616 647.9137882241433 1345.6307198556276 644.088828443764 1345.434764435158 C637.8408081054629 1345.1146738923046 635.9763310018587 1344.4650012651475 625.7344963548276 1339.039240926243 L614.3346365938537 1333 L605.6101383501048 1333 C600.8116643160428 1333 594.9988710824257 1332.587054121271 592.6928200531779 1332.0823424917135 C590.38676902393 1331.577630862156 585.8 1330.6239579077974 582.5 1329.9630692598057 C574.9921497702506 1328.4594774453622 567.8621782738157 1325.8306832829562 557.0814471859392 1320.5913426985117 C548.7130947991639 1316.5243969665776 543.7089511449384 1312.4656311379044 529.4250252021814 1298.1597443577525 C525.943237676943 1294.6726037545163 520.9882790550805 1288.440191638888 518.4140060424868 1284.3099396563562 C512.9856811757769 1275.600548914631 505.7898627220664 1258.7844327925002 502.876545909914 1248 C501.76221453233 1243.875 499.9934927810024 1234.65 498.9460531291859 1227.5 C497.4771364284483 1217.472926466876 497.0368587268485 1208.77683426477 497.02080869930523 1189.4737656188424 C497.00936391468736 1175.7093367092057 497.47117536538053 1160.6898348193483 498.04705636751225 1156.0970947524927 C498.622937369644 1151.504354685637 500.0609836180027 1143.1911601571578 501.24271469719827 1137.6233291336503 C502.42444577639384 1132.0554981101427 503.3814474182652 1126.0240337031037 503.3693850124681 1124.2200748957857 C503.3534279418904 1121.8336605691832 502.3712550675921 1119.9267342691753 499.7639965294106 1117.2200748957857 C497.79309526952613 1115.1740337031035 495.2692184859258 1111.850979231267 494.1553814547433 1109.8355094028154 C491.504700205614 1105.039145183545 489.86669722606126 1092.8787252085328 490.6396365492239 1083.7348642209613 C491.2177105714886 1076.896256918014 490.9972409973805 1075.7430145524236 487.07304953476273 1065.0785971950882 C484.77253743102574 1058.8267051955356 479.307311454441 1041.8088577451967 474.92810292012996 1027.2611584165575 C469.33247385177816 1008.6725188020747 466.085556797234 999.531252898431 464.0040173223707 996.5058389779151 C462.37497877791424 994.138112615301 452.9564680334157 984.4427560657516 443.0739934457074 974.9606022011386 C428.8053408631726 961.2699462801426 425.043487399501 957.1157979686329 424.8029289158461 954.7841884733889 C424.5382608646979 952.218897356779 423.83661408897177 951.6243526958865 419.24766771733766 950.0769041250518 C413.60427287099157 948.173882694334 410.39637539966304 945.8242287990888 409.47400430074526 942.9180948043472 C408.69731819931064 940.4709735911273 411.1710283222605 935.9350311625678 415.22199594422557 932.3782344816766 C417.05028512459245 930.772975320093 423.37327252001904 926.3823400927411 429.2730790451736 922.6212673097835 C441.30447598650017 914.9513616299872 441.9196308358368 913.8098063435658 437.16404415228715 907.9778438811853 C435.60426843604506 906.0650297465334 433.0556339556944 902.25 431.50041197373025 899.5 C429.94518999176603 896.75 427.6632059564324 893.375 426.42933633965555 892 C423.0309863351338 888.2129456851173 418.45866806139145 879.963281982161 415.960124924939 873.110791455059 C414.26589149190403 868.4641962527622 413.85704814129207 865.7034050358684 414.27584295647074 861.7373623449613 C414.58794843587617 858.7816818768065 416.01425559262975 854.3917863819032 417.5497820060219 851.6608159179453 C419.04627649083267 848.9992646728152 422.727735882686 844.1677193914863 425.7308028768071 840.9240486261033 L431.19092468430006 835.0264654163158 L444.84546234215003 835.1221188449617 C452.35545805396754 835.1747282307169 461.2 835.109534951237 464.5 834.9772448905619 C469.45070466529876 834.778781550999 469.9753523326494 834.6050667112107 467.5 833.9839220344884 C464.85948520225344 833.3213328390863 464.9793136030046 833.2650301201159 468.5 833.5140608111267 C470.7 833.669674648443 474.50573538852717 833.5051711721144 476.9571897522826 833.1484975303963 C481.21298054156745 832.5293024837144 481.4732447367414 832.2966666478524 482.7171345223469 828 C483.43364978212685 825.525 483.80453755195134 822.9375 483.5413295664014 822.25 C482.67000123176894 819.9740879344594 479.779457107296 820.9485693043872 475.38417378322896 825.0000000000001 C471.1893742693522 828.8666311724216 468 830.1345071544813 468 827.9354399316115 C468.00000000000006 827.3499318939979 469.3887403497162 825.7023318999553 471.086089666036 824.274106611517 C475.82376166625124 820.2876184478991 476.3963870870789 817.6907902883079 474.4036736414633 809.2290262224092 C473.09838657092826 803.6863169816816 472.9622904694894 801.6377095305216 473.84098162978137 800.759018370218 C475.4561928317331 799.1438071682447 475.28617476812855 795.4540811250738 473.4312507701431 791.8670536492557 C469.89899499698606 785.0364241875142 464 769.403050073799 464 766.872580569478 C464 765.3815049050064 463.30377233642594 761.4438915855275 462.4528274142798 758.1223287484136 C461.05219638696894 752.655131227461 461.0541674269465 751.7959318929542 462.47363747697926 749.0509794980871 C463.33602793361007 747.3833002475214 465.17552887110963 745.2758698607723 466.5614173380894 744.367800860867 C471.0733587956234 741.4114632733965 471.27799134462316 739.7300821420457 467.9043486240935 733.3334891835467 C466.21218849355597 730.125070132596 463.7667269964778 724.8970920729156 462.46998974169753 721.7157601620346 C459.17394422250464 713.6294537408457 455.7143867600514 699.2741097991434 456.40171062527844 696.5355933933427 C457.0486853682518 693.9578406956589 460.0720949528973 691.7047038642104 465.69164421978485 689.6124521657052 C478.67414531808 684.7788509845917 488.4611744705733 680.8710650118674 489.4068347617262 680.1434000666142 C490.0080756427768 679.6807583369289 493.875 678.296987653145 498 677.0683541026501 C502.125 675.8397205521551 507.75713242201647 673.7467180629474 510.51584982670323 672.4172374599661 C513.27456723139 671.0877568569848 516.5214089286493 670.0000000000002 517.7310535983905 670.0000000000002 C521.1473679952228 670.0000000000002 526.8189265825847 675.6138281844819 528.0603619012653 680.2241669875534 C528.6589026427913 682.4469776039048 530.1992022677522 686.5683716474853 531.483249956734 689.3828204177324 C535.2668506796125 697.6759317195853 538 706.1954764217584 538 709.6962891668977 C538 712.3705643187011 538.466049648576 713.0788669594064 540.5737417493428 713.6078640025895 C541.9892997114813 713.9631464350441 544.2604735709879 713.7467198477383 545.6207947704685 713.126916030799 C546.9811159699491 712.5071122138596 548.729721137089 712.0000000000001 549.5065840307793 712.0000000000002 C551.3210023223228 712.0000000000002 555.4751526750795 716.3924958938647 558.4910951845204 721.5 C559.7901785299064 723.7 562.7119090257943 730.225 564.983829619827 736 C567.2557502138599 741.775 569.5251059941015 747.4 570.0268424648086 748.5 C570.8559438431796 750.3177102312751 574.1003487579975 758.7681941989827 587.6876801933852 794.5 C590.1973878743502 801.1 592.833756590568 809.1201868594127 593.5462773405359 812.3226374653616 C594.2587980905038 815.5250880713104 595.0882482918819 818.7875880713104 595.3895000102648 819.5726374653616 C596.2797996506483 821.8927211381077 600.9326480294859 821.2129909587173 606.1544239507741 818 C608.8360157699944 816.3500000000001 612.3035408132555 815.0000000000001 613.8600351580208 815.0000000000001 C615.416529502786 815.0000000000001 617.4621225038285 815.8531582757346 618.4057973825595 816.8959072794099 C619.3494722612905 817.9386562830853 620.8984443635346 820.9632307001604 621.8479576097686 823.617183761799 C623.372494447307 827.8783662398874 624.0129018673955 828.5462691310562 627.3252262265617 829.3296153016424 C630.5016882330766 830.0808307863006 631.4749896706352 831.0038344588849 633.6807584575499 835.3567096467862 C635.633008870893 839.2092904046712 636.3702959800324 842.3757147514458 636.624310175805 847.9983708275329 C636.8107053868039 852.1242668723899 637.3642531971553 860.225 637.8544164210307 866 C638.344579644906 871.775 638.5211439075601 879.0167769524286 638.246781449151 882.0928376720636 C637.8670054366848 886.3507601333943 638.163497156927 888.3198947899493 639.4889802413231 890.3428376720636 C640.446552035427 891.8042769524286 641.9998240848798 893 642.940695906774 893 C644.7195817500317 892.9999999999999 649 889.0689807003087 649 887.4353004911738 C649 886.6021322521062 661.7296284444848 869.5047437689691 684.0501177150759 840.3588691901506 C717.3121027632094 796.9256974212523 754.893093304893 746.4009018557698 777.6655578110556 714.5 C785.5179097821796 703.5 793.192985081061 692.7664670768054 794.7212806974587 690.647704615123 C799.8750288545289 683.502772695536 809.6755476210409 675.244247667526 817.2254146495461 671.6843254405381 C827.6639022038612 666.762357448196 836.7263949592208 664.7600050145021 848.5 664.77422423773 C860.5140557376131 664.7887338581745 867.7398371327065 666.8236056937667 879.5 673.5042180548958 C887.8894235911075 678.2700097856695 900.9871918208086 687.9349641420091 945.5534375899828 722.2456103433043 C960.3740469154923 733.6556960321217 984.875 752.4733040662163 1000 764.0625170857368 C1015.125 775.6517301052572 1031.775 788.467067566317 1037 792.5410447769808 C1042.225 796.6150219876446 1055.95 807.2158844126188 1067.5 816.0985168324792 C1079.05 824.9811492523395 1089.85 833.6040270901548 1091.5 835.2604675831797 C1093.15 836.9169080762045 1097.740231317693 840.9530520648332 1101.700514039318 844.229676446799 C1112.0969744766996 852.8314097445897 1121 865.1066610152212 1121 870.8392867350526 C1121 872.3674364321565 1121.660688482658 874.491249065585 1122.4681966281291 875.5588703648934 C1123.2757047736002 876.626491664202 1123.9507047736001 879.1309230645458 1123.9681966281291 881.1242734767684 C1123.9856884826581 883.1176238889909 1124.696857026568 886.7176238889909 1125.5485711701515 889.1242734767684 C1126.6757463197482 892.309280593965 1126.9175420931858 895.2687751046908 1126.4371366656612 900 C1126.0741335446082 903.575 1125.154533551279 908.9483791065912 1124.3935811249294 911.9408424590916 C1122.1464894235285 920.7775835394857 1115.4180127894276 932.4512192267675 1109.1484461163566 938.3905370588387 C1107.4702520159444 939.9803324412001 1104.9392047393194 943.647898712903 1103.5238966127454 946.5406843292899 C1102.1085884861711 949.4334699456767 1099.3867220601596 952.9931293450968 1097.4753045549417 954.4510385502233 C1094.7331602401796 956.5425739826255 1094 957.8051536249078 1094 960.4358813462887 C1094 962.9737877724364 1094.6567078937032 964.196143086719 1096.75 965.5545606655241 C1098.2625 966.5360799583942 1104 971.0268576430664 1109.5 975.5340666314623 C1115 980.0412756198582 1121.976946475588 985.4774688503048 1125.0043255013068 987.6144960324548 C1132.4488357102284 992.8695765952465 1152.394994068084 1008.5561171091953 1157.9754592501106 1013.5444528723763 C1160.4639566625497 1015.7689019521832 1166.1 1020.2635227953591 1170.5 1023.532499190545 C1174.9 1026.8014755857307 1180.4655777153168 1031.159924930244 1182.8679504784818 1033.2179421783521 C1185.2703232416468 1035.2759594264603 1190.1078232416469 1038.5658621397001 1193.6179504784818 1040.5288370966632 C1197.1280777153167 1042.4918120536263 1200 1044.6522019823583 1200 1045.3297036049566 C1200 1046.007205227555 1198.65 1047.0710928212989 1197 1047.6938982577208 C1194.4878701645305 1048.6421213598592 1194 1049.3718292721808 1194 1052.1810013767886 C1194 1055.718083789599 1191.0864557508887 1060.7871076000333 1185.337072121557 1067.2528808230334 C1183.5016824547006 1069.3169652757017 1182 1071.9044652757016 1182 1073.0028808230331 C1182 1075.2388048044295 1183.400170837358 1076.6611596523655 1190.1679691467652 1081.3002615452428 C1192.7353521774862 1083.0601176953592 1198.4100889946824 1087.65 1202.7784954072013 1091.5 C1217.9228887269853 1104.8471817352156 1231.5245712003991 1115.9909608831774 1236.4807297367813 1119.1120440905597 C1239.2201310920111 1120.8371502398734 1244.825709095425 1124.9976284198624 1248.937569744368 1128.3575511572017 C1253.0494303933108 1131.7174738945407 1258.9081020117592 1136.370912807332 1261.9568400075866 1138.6985265189599 C1270.0808888826884 1144.9009773630476 1273.8954613192627 1147.9199412788444 1279.6235538608853 1152.6804792857847 C1283.631444319351 1156.0113812774234 1284.992393468018 1157.9127116324075 1285.8735538608853 1161.4121168567326 C1287.3566124412152 1167.3018765259096 1287.3034755913548 1173.2328907495603 1285.75 1175.2029175576463 C1284.2263399540159 1177.1351340364263 1280.135298419577 1177.9793260564197 1268.9934877856965 1178.6606467875151 L1260.486975571393 1179.1808192542144 L1251.1797364824326 1171.8404096271072 C1246.0607549835045 1167.8031843321983 1239.0415868912228 1162.25 1235.5815851662512 1159.5 C1232.1215834412797 1156.75 1225.5987765674322 1151.6471078208592 1221.0864587799235 1148.1602396019096 C1216.5741409924149 1144.6733713829599 1212.499777747284 1140.8145150922317 1212.032318235188 1139.5850034002913 C1211.5648587230921 1138.3554917083509 1210.0187007954626 1136.5870479334385 1208.5964117293447 1135.6551283449303 C1207.1741226632266 1134.7232087564223 1205.3685344759592 1132.4244530094907 1204.583993535417 1130.546782240638 C1203.799452594875 1128.6691114717858 1201.884605482821 1126.4600751634039 1200.3287777308522 1125.6378126664567 C1198.7729499788834 1124.8155501695094 1195.986169758161 1122.7391461588013 1194.1359327959133 1121.02358153155 C1192.2856958336656 1119.3080169042985 1189.383359290075 1117.6266718580152 1187.6862960323788 1117.287259206476 C1183.576730983256 1116.4653461966514 1173.023330109126 1107.8661317209219 1170.4174878653546 1103.2161377794023 C1168.6742482198079 1100.1054146303768 1167.7261173801564 1099.4487590295355 1164.5976998122437 1099.1854742243709 C1162.542198057088 1099.0124850477748 1160.2168285176783 1099.4050851697239 1159.4302119468894 1100.0579189398131 C1158.6435953761002 1100.7107527099022 1157.9983178728032 1102.4272893089353 1157.9962619395626 1103.8724447154423 C1157.9922316475338 1106.7054152615099 1154.618750595363 1113 1153.1044960670956 1113 C1152.5958006266096 1113 1149.9024243817385 1114.8 1147.1192155229378 1117 C1144.2598583525366 1119.260191776478 1140.9671059047162 1121 1139.5488352860748 1121 C1136.7050652694104 1121 1129.6116968209167 1116.6797589930939 1117.6734970229431 1107.6767482768512 C1113.1780736603243 1104.286593530524 1105.9 1098.9557769838775 1101.5 1095.8304892843037 C1092.3840853158008 1089.3555220041007 1090.993364138018 1088.3552126382049 1074.3477364562623 1076.3005763427495 C1067.6639915072067 1071.4602593542375 1058.389953471581 1064.8957014754444 1053.7387630437609 1061.712669945432 C1049.0875726159406 1058.5296384154196 1042.6824924878836 1053.4671384154196 1039.5052516480782 1050.462669945432 C1035.5118063106038 1046.686380640339 1032.92141279771 1045.0047272060647 1031.1142250605799 1045.015312774517 C1029.676401277261 1045.0237348005014 1028.0014038435886 1045.3612348005015 1027.3920085413079 1045.765312774517 C1026.7826132390271 1046.1693907485326 1025.3670485500681 1048.525 1024.2463092325097 1051 C1023.1255699149516 1053.475 1018.3216950327663 1059.9450572958403 1013.5710317165426 1065.3779051018676 C1008.8203684003188 1070.8107529078948 1004.4284735733369 1076.2107529078946 1003.8112654343604 1077.3779051018676 C1002.430074970157 1079.989762235286 997.0611897191015 1086.8147079371608 991.034334848718 1093.619983933128 C979.8732503385904 1106.2226203229593 976.2051941586243 1110.7004822936422 974.7495506661464 1113.5 C973.8916129731166 1115.15 971.0094895624487 1119.0130821507862 968.3448319757733 1122.0846270017473 C965.680174389098 1125.1561718527084 960.9285905684598 1130.7811718527084 957.7857568187995 1134.5846270017473 C954.6429230691393 1138.3880821507862 949.5830306458098 1144.5012085454848 946.5415514336229 1148.1693523232998 C937.6229498871713 1158.9255372212078 923.971067148757 1166.8375725444077 911.5 1168.4779059517605 C908.75 1168.8396165268389 904.8501460169664 1169.6150106096936 902.8336578154808 1170.2010039136596 C900.2292526605453 1170.9578464186059 897.049432490275 1170.9521069121465 891.8553149338709 1170.1811882428015 C887.8337145504709 1169.5842963198631 884.0835685335045 1168.4738856888596 883.5216571183901 1167.7136090627932 C882.9597457032755 1166.953332436727 881.2251113261741 1166.0137907690028 879.6669140581646 1165.625738690073 C878.1087167901551 1165.2376866111429 875.0582205025527 1163.799297570612 872.888033419048 1162.429318600004 C867.9730034010125 1159.32659634357 863.8798777537737 1158.4587361997494 861.1221684245265 1159.9346174433933 C859.466170565466 1160.8208806016535 859 1162.0116009439687 859 1165.3551851499296 C859 1168.7726686230644 858.319456947199 1170.4355143619584 855.6379706833682 1173.5700013914416 C853.7888545592206 1175.7315006261485 849.1489175114177 1182.675 845.3269994660285 1189 C841.5050814206393 1195.325 837.2874093082613 1202.1528473871906 835.9543947718553 1204.172994193757 C833.3256349105391 1208.156807343601 829.3031529849907 1211 826.2957079433627 1211 C823.6611757984582 1211 822 1212.9296244727602 822 1215.9899012392525 C822 1219.5411134030232 819.295724779565 1229.628158071282 817.0401290326463 1234.4903998639634 C809.6639914473755 1250.3906623487921 807.7427350138151 1254.1989847328114 804.3389335573113 1259.6667616382654 C796.9493629033559 1271.5371730824215 791.6673452960134 1278.349204826031 783.6163086791078 1286.3919997906335 C779.1523389055985 1290.851399905785 772.6588334013662 1296.75 769.1862964474803 1299.5 C761.6425846324299 1305.4740782508231 746.7875235098088 1313.434977977606 739.0637841914129 1315.6428012722324 C736.0037028861358 1316.5175225064345 732.7125 1317.9254771280334 731.75 1318.77158932023 C730.7791261395812 1319.6250627855657 730 1321.7127284200265 730 1323.4607079041225 C730 1326.622101522288 726.3418545126724 1332.6695562781929 723.4508283647715 1334.2874558532953 C722.6208563122234 1334.7519315662319 720.8607602806522 1336.844416266107 719.5395038501688 1338.937421853018 C716.6201203201462 1343.562024540051 706.587820351519 1350.4509870175234 699.8650671887383 1352.4474301611676 C697.151665802662 1353.2532237790529 693.7094978454373 1354.7756755183354 692.2158050615725 1355.8306562484618 C690.7221122777077 1356.8856369785883 687.1153505036948 1358.2553223486452 684.2007788970997 1358.8744015152552 Z" />
</svg>
