<?xml version="1.0" encoding="UTF-8" standalone="no"?>
<svg
   version="1.0"
   viewBox="357.04099 918.58197 513.38736 720.90718"
   width="2.6738925in"
   height="3.754725in"
   id="svg1"
   sodipodi:docname="SBC:Raspberry-Pi5-with-Case+Fan&amp;Adapterboard.svg"
   inkscape:version="1.3.2 (091e20ef0f, 2023-11-25, custom)"
   xmlns:inkscape="http://www.inkscape.org/namespaces/inkscape"
   xmlns:sodipodi="http://sodipodi.sourceforge.net/DTD/sodipodi-0.dtd"
   xmlns="http://www.w3.org/2000/svg"
   xmlns:svg="http://www.w3.org/2000/svg">
  <defs
     id="defs1" />
  <sodipodi:namedview
     id="namedview1"
     pagecolor="#ffffff"
     bordercolor="#000000"
     borderopacity="0.25"
     inkscape:showpageshadow="2"
     inkscape:pageopacity="0.0"
     inkscape:pagecheckerboard="0"
     inkscape:deskcolor="#d1d1d1"
     inkscape:document-units="in"
     inkscape:zoom="1.3885251"
     inkscape:cx="165.28329"
     inkscape:cy="145.4781"
     inkscape:window-width="1920"
     inkscape:window-height="984"
     inkscape:window-x="0"
     inkscape:window-y="30"
     inkscape:window-maximized="1"
     inkscape:current-layer="svg1" />
  <style
     id="svg-style">.outline { stroke: black; fill: none; stroke-width: 1px; }
.outline { stroke: black; fill: none; stroke-width: 1px; }
</style>
  <path
     id="path-1412"
     class="outline"
     d="m 411.07802,1638.4238 c 2.43364,0.4834 16.34981,0.699 30.92481,0.4793 14.575,-0.2198 53.725,-0.6258 87,-0.9022 62.55106,-0.5196 127.16434,-1.7816 177.5,-3.4667 15.95,-0.534 47.675,-1.2165 70.5,-1.5167 22.825,-0.3002 45.1,-0.79 49.5,-1.0884 4.4,-0.2984 11.57227,-1.2388 15.93839,-2.0899 5.88341,-1.1469 8.92508,-2.3404 11.75,-4.6105 3.43988,-2.7644 3.81161,-3.5213 3.81161,-7.7609 0,-3.2213 0.6441,-5.5166 2.04929,-7.303 3.88863,-4.9436 7.99476,-15.6282 9.01543,-23.4592 1.18621,-9.1011 1.141,-38.696 -0.10192,-66.7053 -0.48813,-11 -1.13583,-52.4 -1.43935,-92 -0.6159,-80.3556 -2.16252,-202.3299 -3.0305,-239 -1.09531,-46.2741 -1.39213,-57.2688 -2.44321,-90.5 -1.77453,-56.1041 -3.03406,-87.3012 -4.60258,-114.00003 -1.30349,-22.18769 -1.83106,-26.50933 -4.06153,-33.27038 -1.73781,-5.26769 -3.36013,-8.32746 -5.03699,-9.5 -1.36045,-0.95129 -3.68752,-2.69132 -5.17127,-3.86672 -4.5335,-3.59137 -15.48289,-9.24208 -22.99199,-11.8656 -5.77654,-2.0182 -10.29459,-2.6703 -23.90409,-3.45011 -9.22971,-0.52885 -30.50629,-1.2053 -47.28129,-1.50323 -16.775,-0.29793 -39.95,-0.97905 -51.5,-1.5136 -20.68418,-0.95729 -31.06233,-0.40533 -35.33074,1.87906 -1.30641,0.69916 -10.40591,1.08586 -25.35352,1.07743 -12.82366,-0.007 -38.22243,0.50317 -56.44171,1.13423 l -33.12596,1.14738 -5.68889,-2.78331 c -5.48163,-2.68191 -6.07815,-2.75997 -16.37403,-2.14266 -15.99605,0.95908 -62.25554,4.41145 -82.68515,6.17084 -33.78979,2.90997 -46.79375,4.60262 -54.06638,7.0375 -4.60365,1.5413 -15.47914,8.70559 -16.29925,10.73721 -0.2011,0.49817 -1.6636,2.38407 -3.25,4.19088 -1.58641,1.80681 -2.88437,3.77823 -2.88437,4.38094 0,0.60271 -1.08032,3.4683 -2.4007,6.36799 -1.32039,2.89968 -3.31344,9.54715 -4.42901,14.77215 -2.13605,10.00459 -2.13271,9.37904 -0.24033,45.00003 0.48211,9.075 0.69087,16.8014 0.46391,17.1697 -0.56835,0.9224 -0.63816,139.6201 -0.0707,140.5682 0.25087,0.4191 0.77821,27.0871 1.17186,59.2621 0.39366,32.175 0.84744,58.725 1.0084,59 0.16096,0.275 0.57541,13.55 0.92099,29.5 0.34559,15.95 0.83155,31.025 1.07992,33.5 0.24837,2.475 0.70069,13.95 1.00514,25.5 0.73796,27.9956 2.35807,74.9879 3.49933,101.5 0.50902,11.825 1.47298,38.483 2.14212,59.24 l 1.21663,37.7399 -2.37726,2.5305 c -2.11726,2.2537 -2.25325,2.8837 -1.24345,5.76 0.6236,1.7763 0.90076,4.3753 0.61592,5.7756 -0.30931,1.5206 0.4524,4.7428 1.89116,8 1.32497,2.9997 2.74098,6.7812 3.14667,8.4034 0.40569,1.6221 1.83154,3.9631 3.16854,5.2022 1.337,1.2391 2.43091,3.1652 2.43091,4.2803 0,1.3359 1.2791,2.6803 3.75,3.9414 2.0625,1.0526 4.62625,2.8828 5.69723,4.067 1.07097,1.1842 3.32097,2.7675 5,3.5184 4.25989,1.9053 12.37855,4.4221 17.62796,5.4648 z" />
  <path
     id="path-1413"
     class="outline"
     d="m 646.00283,1630.0407 c -30.4796,0.9271 -87.21427,1.6497 -139,1.7704 -48.125,0.1122 -90.89106,-0.041 -95.03569,-0.3394 -5.60943,-0.4045 -8.54787,-1.1732 -11.4954,-3.0074 -2.17783,-1.3552 -5.60578,-3.21 -7.61767,-4.1218 -2.01799,-0.9146 -3.97921,-2.67 -4.3745,-3.9155 -0.3941,-1.2417 -2.01258,-3.3481 -3.59664,-4.681 -1.58405,-1.3329 -2.8801,-3.024 -2.8801,-3.7579 0,-0.7339 -1.18083,-2.7377 -2.62406,-4.4529 -2.28099,-2.7108 -2.51367,-3.6033 -1.77973,-6.8267 1.03082,-4.5273 0.9208,-11.0768 -1.01982,-60.7082 -1.99874,-51.1177 -3.35499,-91.5922 -4.59069,-137 -0.55379,-20.35 -1.45163,-48.7 -1.9952,-63 -2.3296,-61.2867 -2.97289,-109.5964 -3.12262,-234.5 l -0.15883,-132.50003 2.19174,-6.3558 c 1.20546,-3.49568 2.92079,-7.54568 3.81186,-9 5.84521,-9.54003 8.99063,-13.28243 13.54116,-16.11119 2.76789,-1.72062 8.0056,-3.7577 11.63936,-4.52685 10.04618,-2.12644 43.1099,-5.21657 102.60683,-9.58961 15.4,-1.13191 30.48208,-1.89259 33.51574,-1.69042 3.71122,0.24734 6.5096,1.10239 8.55361,2.6136 l 3.03787,2.24599 38.94639,-1.03934 c 21.42052,-0.57164 47.36723,-1.04092 57.65937,-1.04286 16.71979,-0.003 19.27612,-0.22897 24,-2.12014 4.93474,-1.9756 6.45305,-2.07381 22.78702,-1.47398 9.625,0.35346 23.8,1.07985 31.5,1.61419 28.29295,1.96341 32.53046,2.14248 60,2.53557 24.44126,0.34976 28.93935,0.66292 35.39074,2.46396 5.72438,1.59808 9.2733,3.4627 15.74036,8.27008 4.59229,3.41374 9.90373,7.27837 11.8032,8.58807 5.41292,3.73224 6.65372,8.23033 7.61861,27.61873 2.24406,45.09153 2.92507,62.03473 3.47677,86.50003 l 0.59758,26.5 -6.31363,3 c -3.66282,1.7404 -6.44938,3.7347 -6.63695,4.75 -0.4308,2.3317 1.93248,2.2451 6.82332,-0.25 7.20884,-3.6777 6.9999,-4.1627 7.00084,16.25 4.6e-4,10.0375 0.43239,22.975 0.95986,28.75 1.37098,15.0103 2.9128,120.6268 3.76636,258 0.40496,65.175 0.94084,122.775 1.19084,128 0.25001,5.225 0.48326,21.4497 0.51833,36.0549 l 0.0638,26.555 -3.70066,7.445 c -3.67969,7.4029 -5.84465,10.159 -10.99323,13.9949 -2.05125,1.5283 -2.76692,3.0142 -3,6.2286 -0.27678,3.8172 -0.68931,4.409 -4.30611,6.1781 -3.37435,1.6504 -7.28467,2.0846 -25,2.7756 -11.55,0.4505 -29.67002,0.6114 -40.26671,0.3574 -10.59669,-0.2539 -32.42169,-0.046 -48.5,0.4613 -16.07831,0.5077 -52.40829,1.628 -80.73329,2.4896 z" />
</svg>
