<svg xmlns="http://www.w3.org/2000/svg" version="1.0" viewBox="784.3265991210938 1256.021728515625 376.41168212890625 378.061767578125" width="1.9604775110880532in" height="1.9690717061360676in"><style id="svg-style">.outline { stroke: black; fill: none; stroke-width: 1px; }
.outline { stroke: black; fill: none; stroke-width: 1px; }
</style><path id="path-1903" class="outline" d="M1077.5503684293114 1633.3069205973147 C1081.3201412910614 1634.1630815995127 1086.6913418005138 1634.3015641198388 1095.5366767645746 1633.770651062272 C1109.4238958648682 1632.9371149685464 1121.7651309203954 1630.296613970984 1129.5996715988204 1626.4826145379611 C1132.4044909781717 1625.1171765420825 1136.234271241419 1624 1138.1102944060367 1624 C1141.3184500261518 1624 1141.8136903065601 1623.5095023349513 1146.4400635456382 1615.75 C1149.1454134078015 1611.2125 1153.303133144554 1605.5665485268305 1155.679440738422 1603.2034411707345 C1158.05574833229 1600.8403338146386 1160 1598.2740076741452 1160 1597.5004941918605 C1160 1596.7269807095756 1159.496815957044 1594.989737365961 1158.8818132378756 1593.639953428272 C1157.9983535014985 1591.7009705187838 1158.1291339802926 1590.228733074785 1159.5048220271965 1586.6265453414055 C1160.5888621693605 1583.7880267460146 1160.9937902042261 1581.0166971740055 1160.5777172404228 1579.2836449342594 C1160.2101520544022 1577.7526402204167 1159.7695445061893 1572.8782318903077 1159.5985893555048 1568.451626422906 C1159.3567746428264 1562.1902278926168 1158.3563488741556 1557.6569619370753 1155.0927624068797 1548.0342076124102 C1152.7855127358202 1541.2312327340394 1149.9804741183536 1534.3769489272406 1148.8593432569537 1532.802465819524 C1147.7382123955538 1531.2279827118075 1145.1053285113 1525.9258120617963 1143.0084901808345 1521.0198643750546 C1140.9116518503688 1516.113916688313 1137.8429832511895 1510.1649686048042 1136.189226627103 1507.799979745035 C1129.3721235308933 1498.0510404854033 1113 1471.7294654823147 1113 1470.5185014580456 C1113 1469.801013340724 1113.675 1468.9549558048388 1114.5 1468.6383736005232 C1115.325 1468.3217913962073 1116 1466.9761305481068 1116 1465.6480161602994 C1116 1464.1214284403898 1115.305099582092 1463.0515421864989 1114.1106980986215 1462.7391991821482 C1113.0715820528635 1462.4674642319724 1111.6090820528634 1462.633089369657 1110.8606980986215 1463.1072550436697 C1108.2304231781611 1464.7737606834958 1106.4783353571527 1463.9466604810934 1104.2044776140297 1459.9650830337805 C1100.9436544601501 1454.2553063476942 1092.3071604530983 1444.4219404395599 1070.421186907112 1421.5 C1059.918336607826 1410.5 1046.414448976745 1396.2498086888063 1040.4125477269322 1389.8329081973475 C1034.4106464771196 1383.4160077058887 1021.9335799892433 1370.2816419163692 1012.6857333094295 1360.6454286650821 L995.8714666188589 1343.1250409354693 L996.8210418636085 1339.6859628045524 C997.3433082482208 1337.7944698325482 997.4398490220633 1335.711690667617 997.0355769165922 1335.057564660261 C996.5942560221832 1334.3434924531618 994.5422060293507 1333.994468178944 991.900268362413 1334.1841223234433 L987.5 1334.5 L977 1323.495043924111 C971.225 1317.4423180823724 958.176030535147 1303.7173180823725 948.0022900781046 1292.995043924111 C937.828549621062 1282.27276976585 926.578549621062 1270.417349156492 923.0022900781046 1266.6496647922045 C916.0580360598183 1259.3337088410035 910.7944294414807 1255.9865012190455 906.2898380672965 1256.0219620004916 C901.9425128868983 1256.056184760181 895.2940889383218 1259.54281514747 893.6104339046316 1262.671416997376 C892.7732238563485 1264.227137648819 889.6907653056105 1267.975 886.7605260141028 1271 C883.830286722595 1274.025 861.7766699305588 1295.9176822758948 837.7524886984668 1319.650405057544 C808.3079147734705 1348.737760985922 792.753728689929 1363.4036073428344 790.0267484496289 1364.650405057544 C787.7063875138812 1365.7112930937822 785.799461692221 1367.3528428447912 785.5548206300859 1368.5 C785.3202362341061 1369.6 784.8796882311793 1373.328253202821 784.5758250680265 1376.7850071173802 C784.0321558175945 1382.9698002662326 784.084039851035 1383.1372219810996 787.8297778277292 1387.2850071173802 C789.9233150087184 1389.6032532028212 792.6366706461218 1392.945600121771 793.8594570219589 1394.7124447150463 C795.3497257789776 1396.8657834730643 797.2080496719251 1398.136005367244 799.4960628111398 1398.5652392195193 C802.2530879656741 1399.082460256242 805.6646084459092 1402.1181479734423 817.2381934928605 1414.3527945044727 C835.8093345772535 1433.984684357418 898.9120664138787 1501.585957513484 906.5205350454066 1510 C909.7532588403366 1513.575 917.3711163712278 1521.6796964769026 923.449107336276 1528.0104366153391 C929.5270983013243 1534.3411767537755 941.2063125171913 1546.6387530511522 949.4029167048698 1555.338383942843 C957.5995208925481 1564.038014834534 968.1181892383036 1574.3833183576312 972.7777352509929 1578.327947327504 C988.1051357407307 1591.3036552269446 1002.4442041756594 1601.547195105072 1013.5564775600026 1607.4594543649278 C1027.1580223037622 1614.6961246733576 1028.0163096388335 1615.1396480318674 1036 1619.0572329207018 C1042.9563108491777 1622.4706842235391 1068.677722372785 1631.291835387014 1077.5503684293114 1633.3069205973147 Z"/><path id="path-1904" class="outline" d="M1107.5 1623.356671888042 C1101.9932814758756 1625.646750872819 1088.1776299424291 1627.8885362682763 1087 1626.6830876199108 C1086.725 1626.4015913991059 1080.2 1624.5483064239143 1072.5 1622.5646765639294 C1064.8 1620.5810467039446 1055.35 1617.7740339947748 1051.5 1616.326870543552 C1040.2613401901654 1612.1024087987428 1016.8244805715412 1600.0464446808505 1012.7859041237451 1596.412267719807 C1010.743151391805 1594.5740643302001 1006.86267775469 1591.9506285996533 1004.1626293746009 1590.5824105408137 C1001.1121489179593 1589.0366151100015 998.4610052203326 1586.7516466177954 997.1604505834568 1584.547370671462 C995.6597484601828 1582.0038699994013 994.3672205435867 1581 992.5930507945268 1581 C988.8853940005997 1581 977.8281480646676 1571.5305757836861 957.9508507377589 1551.3324236410508 C935.8680610598011 1528.8931785911016 894.68521252618 1485.270341968796 888.7201832880293 1478 C886.238289929663 1474.975 882.4734286796157 1470.8820918385873 880.3538249545908 1468.904648530194 C878.2342212295658 1466.9272052218007 872.2009108213489 1460.8522052218007 866.9464684918864 1455.404648530194 C851.7346264702693 1439.6337319227596 807.5927783700862 1392.8656819860169 804.034729076398 1388.75 C801.6798001548174 1386.0259965529167 800.000361097529 1385 797.8964078053097 1385 C795.3209249390577 1385 795 1384.6547677079413 795 1381.884213771919 C794.9999999999999 1380.1705313464745 795.7874999999999 1376.4595489297815 796.75 1373.637586179268 C798.7178951945119 1367.8678958563305 799.5987829788218 1366.9351624398598 843.9830845170171 1323.6245458389271 C858.5673880326577 1309.393046050337 872.75 1296.0587627550012 875.5 1293.9928051826255 C878.25 1291.9268476102498 884.8804147895993 1285.9347950409358 890.2342550879985 1280.6771328063728 C900.7557691657231 1270.3446305026678 907.7530895190918 1265 910.7591389716911 1265 C911.8034726122136 1265 915.0573315583955 1267.5875 917.9899366298731 1270.75 C920.9225417013507 1273.9125 929.665316962035 1283.025 937.4183260980604 1291 C945.1713352340859 1298.975 961.8451271863522 1316.525 974.4711971030968 1330 C987.0972670198414 1343.475 1000.6315910206021 1357.65 1004.5474726603428 1361.5 C1008.4633543000836 1365.35 1022.4296245314003 1379.9696775553352 1035.5836287299358 1393.9881723451895 C1048.7376329284712 1408.006667135044 1064.675 1424.8824200993224 1071 1431.489845599142 C1087.5944301977315 1448.8252544913896 1095.2970126424043 1457.7498699308926 1099.0585921330855 1464 C1100.87915871866 1467.025 1104.0104259063023 1471.525 1106.0169636611797 1474 C1112.4989300971251 1481.9952978158365 1126.0418011896113 1503.8416580119044 1130.691661553189 1513.8034016713832 C1133.1810154629115 1519.1365307521223 1135.8150417770844 1525.075 1136.5450533624626 1527 C1137.2750649478407 1528.925 1139.1825818882367 1533.65 1140.783979896676 1537.5 C1142.3853779051153 1541.35 1144.2692906561156 1546.975 1144.9704526766764 1550 C1145.6716146972371 1553.025 1147.055370272741 1557.075 1148.0454650666843 1559 C1150.4698541052767 1563.7136384595078 1151.279625410879 1568.655047556218 1151.5322801859688 1580.277340688388 C1151.7020441862649 1588.0866012655033 1151.4091303756225 1590.502080288682 1150.0770964754176 1592.277340688388 C1149.159844193054 1593.4998033097745 1147.5775090529276 1596.4045286223627 1146.5607961640255 1598.7322858274724 C1145.4128325489853 1601.3605406723573 1142.2085185510114 1605.1539763264539 1138.1061136375565 1608.7413842367582 C1134.4727511369003 1611.9186311567555 1130.741026356617 1615.1080278831057 1129.8133919035936 1615.8289325175365 C1128.8857574505698 1616.5498371519673 1124.8357574505699 1617.9770695543289 1120.8133919035936 1619.0005600783402 C1116.791026356617 1620.0240506023515 1110.8 1621.984300916717 1107.5 1623.356671888042 Z"/></svg>