<?xml version='1.0' encoding='UTF-8' standalone='no'?>
<svg xmlns:freecad="http://www.freecad.org/wiki/index.php?title=Svg_Namespace" xmlns:xlink="http://www.w3.org/1999/xlink" xmlns:svg="http://www.w3.org/2000/svg" xmlns:sodipodi="http://sodipodi.sourceforge.net/DTD/sodipodi-0.dtd" xmlns="http://www.w3.org/2000/svg" xmlns:rdf="http://www.w3.org/1999/02/22-rdf-syntax-ns#" baseProfile="tiny" xmlns:dc="http://purl.org/dc/elements/1.1/" viewBox="0 0 4200 2970" xmlns:inkscape="http://www.inkscape.org/namespaces/inkscape" xmlns:cc="http://creativecommons.org/ns#" width="420mm" height="297mm" version="1.2">
 <title>FreeCAD SVG Export</title>
 <desc>Drawing page: Page exported from FreeCAD document: _2_grid_Base_Plate_16mm</desc>
 <defs/>
 <g id="Page" inkscape:groupmode="layer" inkscape:label="TechDraw">
  <g style="stroke: none;" id="A3_Landscape_blank.svg" transform="scale(10.000000, 10.000000)">
   <metadata id="metadata8">
    <rdf:RDF>
     <cc:Work rdf:about="">
      <dc:format>image/svg+xml</dc:format>
      <dc:type rdf:resource="http://purl.org/dc/dcmitype/StillImage"/>
     </cc:Work>
    </rdf:RDF>
   </metadata>
  </g>
  <g stroke-linecap="square" fill-rule="evenodd" stroke-linejoin="bevel" fill="none" id="DrawingContent" stroke="black" stroke-width="1">
   <g font-weight="400" stroke-linecap="round" font-size="31.75" stroke-linejoin="bevel" fill="none" font-family="Sans Serif" font-style="normal" stroke="#000000" stroke-opacity="1" stroke-width="2.5" transform="matrix(1,0,0,1,2175.68,1419.41)">
    <path fill-rule="evenodd" d="M-1440,890 L-1440,-890" vector-effect="none"/>
   </g>
   <g font-weight="400" stroke-linecap="round" font-size="31.75" stroke-linejoin="bevel" fill="none" font-family="Sans Serif" font-style="normal" stroke="#000000" stroke-opacity="1" stroke-width="2.5" transform="matrix(1,0,0,1,2175.68,1419.41)">
    <path fill-rule="evenodd" d="M-1440,890 C-1440,972.843 -1372.84,1040 -1290,1040 " vector-effect="none"/>
   </g>
   <g font-weight="400" stroke-linecap="round" font-size="31.75" stroke-linejoin="bevel" fill="none" font-family="Sans Serif" font-style="normal" stroke="#000000" stroke-opacity="1" stroke-width="2.5" transform="matrix(1,0,0,1,2175.68,1419.41)">
    <path fill-rule="evenodd" d="M-1290,-1040 C-1372.84,-1040 -1440,-972.843 -1440,-890 " vector-effect="none"/>
   </g>
   <g font-weight="400" stroke-linecap="round" font-size="31.75" stroke-linejoin="bevel" fill="none" font-family="Sans Serif" font-style="normal" stroke="#000000" stroke-opacity="1" stroke-width="2.5" transform="matrix(1,0,0,1,2175.68,1419.41)">
    <path fill-rule="evenodd" d="M1290,1040 L-1290,1040" vector-effect="none"/>
   </g>
   <g font-weight="400" stroke-linecap="round" font-size="31.75" stroke-linejoin="bevel" fill="none" font-family="Sans Serif" font-style="normal" stroke="#000000" stroke-opacity="1" stroke-width="2.5" transform="matrix(1,0,0,1,2175.68,1419.41)">
    <path fill-rule="evenodd" d="M-1290,-1040 L1290,-1040" vector-effect="none"/>
   </g>
   <g font-weight="400" stroke-linecap="round" font-size="31.75" stroke-linejoin="bevel" fill="none" font-family="Sans Serif" font-style="normal" stroke="#000000" stroke-opacity="1" stroke-width="2.5" transform="matrix(1,0,0,1,2175.68,1419.41)">
    <path fill-rule="evenodd" d="M1290,1040 C1372.84,1040 1440,972.843 1440,890 " vector-effect="none"/>
   </g>
   <g font-weight="400" stroke-linecap="round" font-size="31.75" stroke-linejoin="bevel" fill="none" font-family="Sans Serif" font-style="normal" stroke="#000000" stroke-opacity="1" stroke-width="2.5" transform="matrix(1,0,0,1,2175.68,1419.41)">
    <path fill-rule="evenodd" d="M1440,-890 C1440,-972.843 1372.84,-1040 1290,-1040 " vector-effect="none"/>
   </g>
   <g font-weight="400" stroke-linecap="round" font-size="31.75" stroke-linejoin="bevel" fill="none" font-family="Sans Serif" font-style="normal" stroke="#000000" stroke-opacity="1" stroke-width="2.5" transform="matrix(1,0,0,1,2175.68,1419.41)">
    <path fill-rule="evenodd" d="M1440,-890 L1440,890" vector-effect="none"/>
   </g>
   <g font-weight="400" stroke-linecap="round" font-size="31.75" stroke-linejoin="bevel" fill="none" font-family="Sans Serif" font-style="normal" stroke="#000000" stroke-opacity="1" stroke-width="2.5" transform="matrix(1,0,0,1,2175.68,1419.41)">
    <path fill-rule="evenodd" d="M-1255,720 C-1255,733.807 -1266.19,745 -1280,745 C-1293.81,745 -1305,733.807 -1305,720 C-1305,706.193 -1293.81,695 -1280,695 C-1266.19,695 -1255,706.193 -1255,720 " vector-effect="none"/>
   </g>
   <g font-weight="400" stroke-linecap="round" font-size="31.75" stroke-linejoin="bevel" fill="none" font-family="Sans Serif" font-style="normal" stroke="#000000" stroke-opacity="1" stroke-width="2.5" transform="matrix(1,0,0,1,2175.68,1419.41)">
    <path fill-rule="evenodd" d="M-935,720 C-935,733.807 -946.193,745 -960,745 C-973.807,745 -985,733.807 -985,720 C-985,706.193 -973.807,695 -960,695 C-946.193,695 -935,706.193 -935,720 " vector-effect="none"/>
   </g>
   <g font-weight="400" stroke-linecap="round" font-size="31.75" stroke-linejoin="bevel" fill="none" font-family="Sans Serif" font-style="normal" stroke="#000000" stroke-opacity="1" stroke-width="2.5" transform="matrix(1,0,0,1,2175.68,1419.41)">
    <path fill-rule="evenodd" d="M-1255,400 C-1255,413.807 -1266.19,425 -1280,425 C-1293.81,425 -1305,413.807 -1305,400 C-1305,386.193 -1293.81,375 -1280,375 C-1266.19,375 -1255,386.193 -1255,400 " vector-effect="none"/>
   </g>
   <g font-weight="400" stroke-linecap="round" font-size="31.75" stroke-linejoin="bevel" fill="none" font-family="Sans Serif" font-style="normal" stroke="#000000" stroke-opacity="1" stroke-width="2.5" transform="matrix(1,0,0,1,2175.68,1419.41)">
    <path fill-rule="evenodd" d="M-935,400 C-935,413.807 -946.193,425 -960,425 C-973.807,425 -985,413.807 -985,400 C-985,386.193 -973.807,375 -960,375 C-946.193,375 -935,386.193 -935,400 " vector-effect="none"/>
   </g>
   <g font-weight="400" stroke-linecap="round" font-size="31.75" stroke-linejoin="bevel" fill="none" font-family="Sans Serif" font-style="normal" stroke="#000000" stroke-opacity="1" stroke-width="2.5" transform="matrix(1,0,0,1,2175.68,1419.41)">
    <path fill-rule="evenodd" d="M-615,720 C-615,733.807 -626.193,745 -640,745 C-653.807,745 -665,733.807 -665,720 C-665,706.193 -653.807,695 -640,695 C-626.193,695 -615,706.193 -615,720 " vector-effect="none"/>
   </g>
   <g font-weight="400" stroke-linecap="round" font-size="31.75" stroke-linejoin="bevel" fill="none" font-family="Sans Serif" font-style="normal" stroke="#000000" stroke-opacity="1" stroke-width="2.5" transform="matrix(1,0,0,1,2175.68,1419.41)">
    <path fill-rule="evenodd" d="M-295,720 C-295,733.807 -306.193,745 -320,745 C-333.807,745 -345,733.807 -345,720 C-345,706.193 -333.807,695 -320,695 C-306.193,695 -295,706.193 -295,720 " vector-effect="none"/>
   </g>
   <g font-weight="400" stroke-linecap="round" font-size="31.75" stroke-linejoin="bevel" fill="none" font-family="Sans Serif" font-style="normal" stroke="#000000" stroke-opacity="1" stroke-width="2.5" transform="matrix(1,0,0,1,2175.68,1419.41)">
    <path fill-rule="evenodd" d="M-615,400 C-615,413.807 -626.193,425 -640,425 C-653.807,425 -665,413.807 -665,400 C-665,386.193 -653.807,375 -640,375 C-626.193,375 -615,386.193 -615,400 " vector-effect="none"/>
   </g>
   <g font-weight="400" stroke-linecap="round" font-size="31.75" stroke-linejoin="bevel" fill="none" font-family="Sans Serif" font-style="normal" stroke="#000000" stroke-opacity="1" stroke-width="2.5" transform="matrix(1,0,0,1,2175.68,1419.41)">
    <path fill-rule="evenodd" d="M-295,400 C-295,413.807 -306.193,425 -320,425 C-333.807,425 -345,413.807 -345,400 C-345,386.193 -333.807,375 -320,375 C-306.193,375 -295,386.193 -295,400 " vector-effect="none"/>
   </g>
   <g font-weight="400" stroke-linecap="round" font-size="31.75" stroke-linejoin="bevel" fill="none" font-family="Sans Serif" font-style="normal" stroke="#000000" stroke-opacity="1" stroke-width="2.5" transform="matrix(1,0,0,1,2175.68,1419.41)">
    <path fill-rule="evenodd" d="M-1255,80 C-1255,93.8071 -1266.19,105 -1280,105 C-1293.81,105 -1305,93.8071 -1305,80 C-1305,66.1929 -1293.81,55 -1280,55 C-1266.19,55 -1255,66.1929 -1255,80 " vector-effect="none"/>
   </g>
   <g font-weight="400" stroke-linecap="round" font-size="31.75" stroke-linejoin="bevel" fill="none" font-family="Sans Serif" font-style="normal" stroke="#000000" stroke-opacity="1" stroke-width="2.5" transform="matrix(1,0,0,1,2175.68,1419.41)">
    <path fill-rule="evenodd" d="M-935,80 C-935,93.8071 -946.193,105 -960,105 C-973.807,105 -985,93.8071 -985,80 C-985,66.1929 -973.807,55 -960,55 C-946.193,55 -935,66.1929 -935,80 " vector-effect="none"/>
   </g>
   <g font-weight="400" stroke-linecap="round" font-size="31.75" stroke-linejoin="bevel" fill="none" font-family="Sans Serif" font-style="normal" stroke="#000000" stroke-opacity="1" stroke-width="2.5" transform="matrix(1,0,0,1,2175.68,1419.41)">
    <path fill-rule="evenodd" d="M-615,80 C-615,93.8071 -626.193,105 -640,105 C-653.807,105 -665,93.8071 -665,80 C-665,66.1929 -653.807,55 -640,55 C-626.193,55 -615,66.1929 -615,80 " vector-effect="none"/>
   </g>
   <g font-weight="400" stroke-linecap="round" font-size="31.75" stroke-linejoin="bevel" fill="none" font-family="Sans Serif" font-style="normal" stroke="#000000" stroke-opacity="1" stroke-width="2.5" transform="matrix(1,0,0,1,2175.68,1419.41)">
    <path fill-rule="evenodd" d="M-295,80 C-295,93.8071 -306.193,105 -320,105 C-333.807,105 -345,93.8071 -345,80 C-345,66.1929 -333.807,55 -320,55 C-306.193,55 -295,66.1929 -295,80 " vector-effect="none"/>
   </g>
   <g font-weight="400" stroke-linecap="round" font-size="31.75" stroke-linejoin="bevel" fill="none" font-family="Sans Serif" font-style="normal" stroke="#000000" stroke-opacity="1" stroke-width="2.5" transform="matrix(1,0,0,1,2175.68,1419.41)">
    <path fill-rule="evenodd" d="M25,720 C25,733.807 13.8071,745 -4.36131e-10,745 C-13.8071,745 -25,733.807 -25,720 C-25,706.193 -13.8071,695 -4.36131e-10,695 C13.8071,695 25,706.193 25,720 " vector-effect="none"/>
   </g>
   <g font-weight="400" stroke-linecap="round" font-size="31.75" stroke-linejoin="bevel" fill="none" font-family="Sans Serif" font-style="normal" stroke="#000000" stroke-opacity="1" stroke-width="2.5" transform="matrix(1,0,0,1,2175.68,1419.41)">
    <path fill-rule="evenodd" d="M345,720 C345,733.807 333.807,745 320,745 C306.193,745 295,733.807 295,720 C295,706.193 306.193,695 320,695 C333.807,695 345,706.193 345,720 " vector-effect="none"/>
   </g>
   <g font-weight="400" stroke-linecap="round" font-size="31.75" stroke-linejoin="bevel" fill="none" font-family="Sans Serif" font-style="normal" stroke="#000000" stroke-opacity="1" stroke-width="2.5" transform="matrix(1,0,0,1,2175.68,1419.41)">
    <path fill-rule="evenodd" d="M665,720 C665,733.807 653.807,745 640,745 C626.193,745 615,733.807 615,720 C615,706.193 626.193,695 640,695 C653.807,695 665,706.193 665,720 " vector-effect="none"/>
   </g>
   <g font-weight="400" stroke-linecap="round" font-size="31.75" stroke-linejoin="bevel" fill="none" font-family="Sans Serif" font-style="normal" stroke="#000000" stroke-opacity="1" stroke-width="2.5" transform="matrix(1,0,0,1,2175.68,1419.41)">
    <path fill-rule="evenodd" d="M25,400 C25,413.807 13.8071,425 -4.36131e-10,425 C-13.8071,425 -25,413.807 -25,400 C-25,386.193 -13.8071,375 -4.36131e-10,375 C13.8071,375 25,386.193 25,400 " vector-effect="none"/>
   </g>
   <g font-weight="400" stroke-linecap="round" font-size="31.75" stroke-linejoin="bevel" fill="none" font-family="Sans Serif" font-style="normal" stroke="#000000" stroke-opacity="1" stroke-width="2.5" transform="matrix(1,0,0,1,2175.68,1419.41)">
    <path fill-rule="evenodd" d="M345,400 C345,413.807 333.807,425 320,425 C306.193,425 295,413.807 295,400 C295,386.193 306.193,375 320,375 C333.807,375 345,386.193 345,400 " vector-effect="none"/>
   </g>
   <g font-weight="400" stroke-linecap="round" font-size="31.75" stroke-linejoin="bevel" fill="none" font-family="Sans Serif" font-style="normal" stroke="#000000" stroke-opacity="1" stroke-width="2.5" transform="matrix(1,0,0,1,2175.68,1419.41)">
    <path fill-rule="evenodd" d="M665,400 C665,413.807 653.807,425 640,425 C626.193,425 615,413.807 615,400 C615,386.193 626.193,375 640,375 C653.807,375 665,386.193 665,400 " vector-effect="none"/>
   </g>
   <g font-weight="400" stroke-linecap="round" font-size="31.75" stroke-linejoin="bevel" fill="none" font-family="Sans Serif" font-style="normal" stroke="#000000" stroke-opacity="1" stroke-width="2.5" transform="matrix(1,0,0,1,2175.68,1419.41)">
    <path fill-rule="evenodd" d="M985,720 C985,733.807 973.807,745 960,745 C946.193,745 935,733.807 935,720 C935,706.193 946.193,695 960,695 C973.807,695 985,706.193 985,720 " vector-effect="none"/>
   </g>
   <g font-weight="400" stroke-linecap="round" font-size="31.75" stroke-linejoin="bevel" fill="none" font-family="Sans Serif" font-style="normal" stroke="#000000" stroke-opacity="1" stroke-width="2.5" transform="matrix(1,0,0,1,2175.68,1419.41)">
    <path fill-rule="evenodd" d="M1305,720 C1305,733.807 1293.81,745 1280,745 C1266.19,745 1255,733.807 1255,720 C1255,706.193 1266.19,695 1280,695 C1293.81,695 1305,706.193 1305,720 " vector-effect="none"/>
   </g>
   <g font-weight="400" stroke-linecap="round" font-size="31.75" stroke-linejoin="bevel" fill="none" font-family="Sans Serif" font-style="normal" stroke="#000000" stroke-opacity="1" stroke-width="2.5" transform="matrix(1,0,0,1,2175.68,1419.41)">
    <path fill-rule="evenodd" d="M985,400 C985,413.807 973.807,425 960,425 C946.193,425 935,413.807 935,400 C935,386.193 946.193,375 960,375 C973.807,375 985,386.193 985,400 " vector-effect="none"/>
   </g>
   <g font-weight="400" stroke-linecap="round" font-size="31.75" stroke-linejoin="bevel" fill="none" font-family="Sans Serif" font-style="normal" stroke="#000000" stroke-opacity="1" stroke-width="2.5" transform="matrix(1,0,0,1,2175.68,1419.41)">
    <path fill-rule="evenodd" d="M1305,400 C1305,413.807 1293.81,425 1280,425 C1266.19,425 1255,413.807 1255,400 C1255,386.193 1266.19,375 1280,375 C1293.81,375 1305,386.193 1305,400 " vector-effect="none"/>
   </g>
   <g font-weight="400" stroke-linecap="round" font-size="31.75" stroke-linejoin="bevel" fill="none" font-family="Sans Serif" font-style="normal" stroke="#000000" stroke-opacity="1" stroke-width="2.5" transform="matrix(1,0,0,1,2175.68,1419.41)">
    <path fill-rule="evenodd" d="M25,80 C25,93.8071 13.8071,105 -4.36131e-10,105 C-13.8071,105 -25,93.8071 -25,80 C-25,66.1929 -13.8071,55 -4.36131e-10,55 C13.8071,55 25,66.1929 25,80 " vector-effect="none"/>
   </g>
   <g font-weight="400" stroke-linecap="round" font-size="31.75" stroke-linejoin="bevel" fill="none" font-family="Sans Serif" font-style="normal" stroke="#000000" stroke-opacity="1" stroke-width="2.5" transform="matrix(1,0,0,1,2175.68,1419.41)">
    <path fill-rule="evenodd" d="M345,80 C345,93.8071 333.807,105 320,105 C306.193,105 295,93.8071 295,80 C295,66.1929 306.193,55 320,55 C333.807,55 345,66.1929 345,80 " vector-effect="none"/>
   </g>
   <g font-weight="400" stroke-linecap="round" font-size="31.75" stroke-linejoin="bevel" fill="none" font-family="Sans Serif" font-style="normal" stroke="#000000" stroke-opacity="1" stroke-width="2.5" transform="matrix(1,0,0,1,2175.68,1419.41)">
    <path fill-rule="evenodd" d="M665,80 C665,93.8071 653.807,105 640,105 C626.193,105 615,93.8071 615,80 C615,66.1929 626.193,55 640,55 C653.807,55 665,66.1929 665,80 " vector-effect="none"/>
   </g>
   <g font-weight="400" stroke-linecap="round" font-size="31.75" stroke-linejoin="bevel" fill="none" font-family="Sans Serif" font-style="normal" stroke="#000000" stroke-opacity="1" stroke-width="2.5" transform="matrix(1,0,0,1,2175.68,1419.41)">
    <path fill-rule="evenodd" d="M985,80 C985,93.8071 973.807,105 960,105 C946.193,105 935,93.8071 935,80 C935,66.1929 946.193,55 960,55 C973.807,55 985,66.1929 985,80 " vector-effect="none"/>
   </g>
   <g font-weight="400" stroke-linecap="round" font-size="31.75" stroke-linejoin="bevel" fill="none" font-family="Sans Serif" font-style="normal" stroke="#000000" stroke-opacity="1" stroke-width="2.5" transform="matrix(1,0,0,1,2175.68,1419.41)">
    <path fill-rule="evenodd" d="M1305,80 C1305,93.8071 1293.81,105 1280,105 C1266.19,105 1255,93.8071 1255,80 C1255,66.1929 1266.19,55 1280,55 C1293.81,55 1305,66.1929 1305,80 " vector-effect="none"/>
   </g>
   <g font-weight="400" stroke-linecap="round" font-size="31.75" stroke-linejoin="bevel" fill="none" font-family="Sans Serif" font-style="normal" stroke="#000000" stroke-opacity="1" stroke-width="2.5" transform="matrix(1,0,0,1,2175.68,1419.41)">
    <path fill-rule="evenodd" d="M-1255,-240 C-1255,-226.193 -1266.19,-215 -1280,-215 C-1293.81,-215 -1305,-226.193 -1305,-240 C-1305,-253.807 -1293.81,-265 -1280,-265 C-1266.19,-265 -1255,-253.807 -1255,-240 " vector-effect="none"/>
   </g>
   <g font-weight="400" stroke-linecap="round" font-size="31.75" stroke-linejoin="bevel" fill="none" font-family="Sans Serif" font-style="normal" stroke="#000000" stroke-opacity="1" stroke-width="2.5" transform="matrix(1,0,0,1,2175.68,1419.41)">
    <path fill-rule="evenodd" d="M-935,-240 C-935,-226.193 -946.193,-215 -960,-215 C-973.807,-215 -985,-226.193 -985,-240 C-985,-253.807 -973.807,-265 -960,-265 C-946.193,-265 -935,-253.807 -935,-240 " vector-effect="none"/>
   </g>
   <g font-weight="400" stroke-linecap="round" font-size="31.75" stroke-linejoin="bevel" fill="none" font-family="Sans Serif" font-style="normal" stroke="#000000" stroke-opacity="1" stroke-width="2.5" transform="matrix(1,0,0,1,2175.68,1419.41)">
    <path fill-rule="evenodd" d="M-615,-240 C-615,-226.193 -626.193,-215 -640,-215 C-653.807,-215 -665,-226.193 -665,-240 C-665,-253.807 -653.807,-265 -640,-265 C-626.193,-265 -615,-253.807 -615,-240 " vector-effect="none"/>
   </g>
   <g font-weight="400" stroke-linecap="round" font-size="31.75" stroke-linejoin="bevel" fill="none" font-family="Sans Serif" font-style="normal" stroke="#000000" stroke-opacity="1" stroke-width="2.5" transform="matrix(1,0,0,1,2175.68,1419.41)">
    <path fill-rule="evenodd" d="M-295,-240 C-295,-226.193 -306.193,-215 -320,-215 C-333.807,-215 -345,-226.193 -345,-240 C-345,-253.807 -333.807,-265 -320,-265 C-306.193,-265 -295,-253.807 -295,-240 " vector-effect="none"/>
   </g>
   <g font-weight="400" stroke-linecap="round" font-size="31.75" stroke-linejoin="bevel" fill="none" font-family="Sans Serif" font-style="normal" stroke="#000000" stroke-opacity="1" stroke-width="2.5" transform="matrix(1,0,0,1,2175.68,1419.41)">
    <path fill-rule="evenodd" d="M-1255,-560 C-1255,-546.193 -1266.19,-535 -1280,-535 C-1293.81,-535 -1305,-546.193 -1305,-560 C-1305,-573.807 -1293.81,-585 -1280,-585 C-1266.19,-585 -1255,-573.807 -1255,-560 " vector-effect="none"/>
   </g>
   <g font-weight="400" stroke-linecap="round" font-size="31.75" stroke-linejoin="bevel" fill="none" font-family="Sans Serif" font-style="normal" stroke="#000000" stroke-opacity="1" stroke-width="2.5" transform="matrix(1,0,0,1,2175.68,1419.41)">
    <path fill-rule="evenodd" d="M-935,-560 C-935,-546.193 -946.193,-535 -960,-535 C-973.807,-535 -985,-546.193 -985,-560 C-985,-573.807 -973.807,-585 -960,-585 C-946.193,-585 -935,-573.807 -935,-560 " vector-effect="none"/>
   </g>
   <g font-weight="400" stroke-linecap="round" font-size="31.75" stroke-linejoin="bevel" fill="none" font-family="Sans Serif" font-style="normal" stroke="#000000" stroke-opacity="1" stroke-width="2.5" transform="matrix(1,0,0,1,2175.68,1419.41)">
    <path fill-rule="evenodd" d="M-1255,-880 C-1255,-866.193 -1266.19,-855 -1280,-855 C-1293.81,-855 -1305,-866.193 -1305,-880 C-1305,-893.807 -1293.81,-905 -1280,-905 C-1266.19,-905 -1255,-893.807 -1255,-880 " vector-effect="none"/>
   </g>
   <g font-weight="400" stroke-linecap="round" font-size="31.75" stroke-linejoin="bevel" fill="none" font-family="Sans Serif" font-style="normal" stroke="#000000" stroke-opacity="1" stroke-width="2.5" transform="matrix(1,0,0,1,2175.68,1419.41)">
    <path fill-rule="evenodd" d="M-935,-880 C-935,-866.193 -946.193,-855 -960,-855 C-973.807,-855 -985,-866.193 -985,-880 C-985,-893.807 -973.807,-905 -960,-905 C-946.193,-905 -935,-893.807 -935,-880 " vector-effect="none"/>
   </g>
   <g font-weight="400" stroke-linecap="round" font-size="31.75" stroke-linejoin="bevel" fill="none" font-family="Sans Serif" font-style="normal" stroke="#000000" stroke-opacity="1" stroke-width="2.5" transform="matrix(1,0,0,1,2175.68,1419.41)">
    <path fill-rule="evenodd" d="M-615,-560 C-615,-546.193 -626.193,-535 -640,-535 C-653.807,-535 -665,-546.193 -665,-560 C-665,-573.807 -653.807,-585 -640,-585 C-626.193,-585 -615,-573.807 -615,-560 " vector-effect="none"/>
   </g>
   <g font-weight="400" stroke-linecap="round" font-size="31.75" stroke-linejoin="bevel" fill="none" font-family="Sans Serif" font-style="normal" stroke="#000000" stroke-opacity="1" stroke-width="2.5" transform="matrix(1,0,0,1,2175.68,1419.41)">
    <path fill-rule="evenodd" d="M-295,-560 C-295,-546.193 -306.193,-535 -320,-535 C-333.807,-535 -345,-546.193 -345,-560 C-345,-573.807 -333.807,-585 -320,-585 C-306.193,-585 -295,-573.807 -295,-560 " vector-effect="none"/>
   </g>
   <g font-weight="400" stroke-linecap="round" font-size="31.75" stroke-linejoin="bevel" fill="none" font-family="Sans Serif" font-style="normal" stroke="#000000" stroke-opacity="1" stroke-width="2.5" transform="matrix(1,0,0,1,2175.68,1419.41)">
    <path fill-rule="evenodd" d="M-615,-880 C-615,-866.193 -626.193,-855 -640,-855 C-653.807,-855 -665,-866.193 -665,-880 C-665,-893.807 -653.807,-905 -640,-905 C-626.193,-905 -615,-893.807 -615,-880 " vector-effect="none"/>
   </g>
   <g font-weight="400" stroke-linecap="round" font-size="31.75" stroke-linejoin="bevel" fill="none" font-family="Sans Serif" font-style="normal" stroke="#000000" stroke-opacity="1" stroke-width="2.5" transform="matrix(1,0,0,1,2175.68,1419.41)">
    <path fill-rule="evenodd" d="M-295,-880 C-295,-866.193 -306.193,-855 -320,-855 C-333.807,-855 -345,-866.193 -345,-880 C-345,-893.807 -333.807,-905 -320,-905 C-306.193,-905 -295,-893.807 -295,-880 " vector-effect="none"/>
   </g>
   <g font-weight="400" stroke-linecap="round" font-size="31.75" stroke-linejoin="bevel" fill="none" font-family="Sans Serif" font-style="normal" stroke="#000000" stroke-opacity="1" stroke-width="2.5" transform="matrix(1,0,0,1,2175.68,1419.41)">
    <path fill-rule="evenodd" d="M25,-240 C25,-226.193 13.8071,-215 -4.36131e-10,-215 C-13.8071,-215 -25,-226.193 -25,-240 C-25,-253.807 -13.8071,-265 -4.36131e-10,-265 C13.8071,-265 25,-253.807 25,-240 " vector-effect="none"/>
   </g>
   <g font-weight="400" stroke-linecap="round" font-size="31.75" stroke-linejoin="bevel" fill="none" font-family="Sans Serif" font-style="normal" stroke="#000000" stroke-opacity="1" stroke-width="2.5" transform="matrix(1,0,0,1,2175.68,1419.41)">
    <path fill-rule="evenodd" d="M345,-240 C345,-226.193 333.807,-215 320,-215 C306.193,-215 295,-226.193 295,-240 C295,-253.807 306.193,-265 320,-265 C333.807,-265 345,-253.807 345,-240 " vector-effect="none"/>
   </g>
   <g font-weight="400" stroke-linecap="round" font-size="31.75" stroke-linejoin="bevel" fill="none" font-family="Sans Serif" font-style="normal" stroke="#000000" stroke-opacity="1" stroke-width="2.5" transform="matrix(1,0,0,1,2175.68,1419.41)">
    <path fill-rule="evenodd" d="M665,-240 C665,-226.193 653.807,-215 640,-215 C626.193,-215 615,-226.193 615,-240 C615,-253.807 626.193,-265 640,-265 C653.807,-265 665,-253.807 665,-240 " vector-effect="none"/>
   </g>
   <g font-weight="400" stroke-linecap="round" font-size="31.75" stroke-linejoin="bevel" fill="none" font-family="Sans Serif" font-style="normal" stroke="#000000" stroke-opacity="1" stroke-width="2.5" transform="matrix(1,0,0,1,2175.68,1419.41)">
    <path fill-rule="evenodd" d="M985,-240 C985,-226.193 973.807,-215 960,-215 C946.193,-215 935,-226.193 935,-240 C935,-253.807 946.193,-265 960,-265 C973.807,-265 985,-253.807 985,-240 " vector-effect="none"/>
   </g>
   <g font-weight="400" stroke-linecap="round" font-size="31.75" stroke-linejoin="bevel" fill="none" font-family="Sans Serif" font-style="normal" stroke="#000000" stroke-opacity="1" stroke-width="2.5" transform="matrix(1,0,0,1,2175.68,1419.41)">
    <path fill-rule="evenodd" d="M1305,-240 C1305,-226.193 1293.81,-215 1280,-215 C1266.19,-215 1255,-226.193 1255,-240 C1255,-253.807 1266.19,-265 1280,-265 C1293.81,-265 1305,-253.807 1305,-240 " vector-effect="none"/>
   </g>
   <g font-weight="400" stroke-linecap="round" font-size="31.75" stroke-linejoin="bevel" fill="none" font-family="Sans Serif" font-style="normal" stroke="#000000" stroke-opacity="1" stroke-width="2.5" transform="matrix(1,0,0,1,2175.68,1419.41)">
    <path fill-rule="evenodd" d="M25,-560 C25,-546.193 13.8071,-535 -4.36131e-10,-535 C-13.8071,-535 -25,-546.193 -25,-560 C-25,-573.807 -13.8071,-585 -4.36131e-10,-585 C13.8071,-585 25,-573.807 25,-560 " vector-effect="none"/>
   </g>
   <g font-weight="400" stroke-linecap="round" font-size="31.75" stroke-linejoin="bevel" fill="none" font-family="Sans Serif" font-style="normal" stroke="#000000" stroke-opacity="1" stroke-width="2.5" transform="matrix(1,0,0,1,2175.68,1419.41)">
    <path fill-rule="evenodd" d="M345,-560 C345,-546.193 333.807,-535 320,-535 C306.193,-535 295,-546.193 295,-560 C295,-573.807 306.193,-585 320,-585 C333.807,-585 345,-573.807 345,-560 " vector-effect="none"/>
   </g>
   <g font-weight="400" stroke-linecap="round" font-size="31.75" stroke-linejoin="bevel" fill="none" font-family="Sans Serif" font-style="normal" stroke="#000000" stroke-opacity="1" stroke-width="2.5" transform="matrix(1,0,0,1,2175.68,1419.41)">
    <path fill-rule="evenodd" d="M665,-560 C665,-546.193 653.807,-535 640,-535 C626.193,-535 615,-546.193 615,-560 C615,-573.807 626.193,-585 640,-585 C653.807,-585 665,-573.807 665,-560 " vector-effect="none"/>
   </g>
   <g font-weight="400" stroke-linecap="round" font-size="31.75" stroke-linejoin="bevel" fill="none" font-family="Sans Serif" font-style="normal" stroke="#000000" stroke-opacity="1" stroke-width="2.5" transform="matrix(1,0,0,1,2175.68,1419.41)">
    <path fill-rule="evenodd" d="M25,-880 C25,-866.193 13.8071,-855 -4.36131e-10,-855 C-13.8071,-855 -25,-866.193 -25,-880 C-25,-893.807 -13.8071,-905 -4.36131e-10,-905 C13.8071,-905 25,-893.807 25,-880 " vector-effect="none"/>
   </g>
   <g font-weight="400" stroke-linecap="round" font-size="31.75" stroke-linejoin="bevel" fill="none" font-family="Sans Serif" font-style="normal" stroke="#000000" stroke-opacity="1" stroke-width="2.5" transform="matrix(1,0,0,1,2175.68,1419.41)">
    <path fill-rule="evenodd" d="M345,-880 C345,-866.193 333.807,-855 320,-855 C306.193,-855 295,-866.193 295,-880 C295,-893.807 306.193,-905 320,-905 C333.807,-905 345,-893.807 345,-880 " vector-effect="none"/>
   </g>
   <g font-weight="400" stroke-linecap="round" font-size="31.75" stroke-linejoin="bevel" fill="none" font-family="Sans Serif" font-style="normal" stroke="#000000" stroke-opacity="1" stroke-width="2.5" transform="matrix(1,0,0,1,2175.68,1419.41)">
    <path fill-rule="evenodd" d="M665,-880 C665,-866.193 653.807,-855 640,-855 C626.193,-855 615,-866.193 615,-880 C615,-893.807 626.193,-905 640,-905 C653.807,-905 665,-893.807 665,-880 " vector-effect="none"/>
   </g>
   <g font-weight="400" stroke-linecap="round" font-size="31.75" stroke-linejoin="bevel" fill="none" font-family="Sans Serif" font-style="normal" stroke="#000000" stroke-opacity="1" stroke-width="2.5" transform="matrix(1,0,0,1,2175.68,1419.41)">
    <path fill-rule="evenodd" d="M985,-560 C985,-546.193 973.807,-535 960,-535 C946.193,-535 935,-546.193 935,-560 C935,-573.807 946.193,-585 960,-585 C973.807,-585 985,-573.807 985,-560 " vector-effect="none"/>
   </g>
   <g font-weight="400" stroke-linecap="round" font-size="31.75" stroke-linejoin="bevel" fill="none" font-family="Sans Serif" font-style="normal" stroke="#000000" stroke-opacity="1" stroke-width="2.5" transform="matrix(1,0,0,1,2175.68,1419.41)">
    <path fill-rule="evenodd" d="M1305,-560 C1305,-546.193 1293.81,-535 1280,-535 C1266.19,-535 1255,-546.193 1255,-560 C1255,-573.807 1266.19,-585 1280,-585 C1293.81,-585 1305,-573.807 1305,-560 " vector-effect="none"/>
   </g>
   <g font-weight="400" stroke-linecap="round" font-size="31.75" stroke-linejoin="bevel" fill="none" font-family="Sans Serif" font-style="normal" stroke="#000000" stroke-opacity="1" stroke-width="2.5" transform="matrix(1,0,0,1,2175.68,1419.41)">
    <path fill-rule="evenodd" d="M985,-880 C985,-866.193 973.807,-855 960,-855 C946.193,-855 935,-866.193 935,-880 C935,-893.807 946.193,-905 960,-905 C973.807,-905 985,-893.807 985,-880 " vector-effect="none"/>
   </g>
   <g font-weight="400" stroke-linecap="round" font-size="31.75" stroke-linejoin="bevel" fill="none" font-family="Sans Serif" font-style="normal" stroke="#000000" stroke-opacity="1" stroke-width="2.5" transform="matrix(1,0,0,1,2175.68,1419.41)">
    <path fill-rule="evenodd" d="M1305,-880 C1305,-866.193 1293.81,-855 1280,-855 C1266.19,-855 1255,-866.193 1255,-880 C1255,-893.807 1266.19,-905 1280,-905 C1293.81,-905 1305,-893.807 1305,-880 " vector-effect="none"/>
   </g>
  </g>
 </g>
</svg>
